<?xml version="1.0" standalone="no"?>
<!DOCTYPE svg PUBLIC "-//W3C//DTD SVG 1.1//EN" "http://www.w3.org/Graphics/SVG/1.1/DTD/svg11.dtd" >
<svg>
<metadata>
Created by FontForge 20110222 at Wed Jul 24 10:32:09 2013
 By Orthosie Webhosting
Copyright (c) 2009 Linotype Corp., www.linotype.com. All rights reserved. This font software may not be reproduced, modified, disclosed or transferred without the express written approval of Linotype Corp. VAG Rounded is a trademark of Linotype Corp. and may be registered in certain jurisdictions in the name of Linotype Corp. or its licensee Linotype GmbH. This typeface is original artwork of Adrian Williams. The design may be protected in certain jurisdictions. 
</metadata>
<defs>
<font id="VAGRoundedLTCYRLight" horiz-adv-x="204" >
  <font-face 
    font-family="VAGRoundedLTCYRLight"
    font-weight="300"
    font-stretch="normal"
    units-per-em="1000"
    panose-1="2 15 5 2 2 2 4 2 2 4"
    ascent="770"
    descent="-230"
    x-height="532"
    cap-height="712"
    bbox="-119 -293 1047 935"
    underline-thickness="50"
    underline-position="-50"
    unicode-range="U+000D-FB04"
  />
<missing-glyph horiz-adv-x="485" 
d="M263 111h-53v63h53v-63zM257 222h-46v16q0 50 11 75.5t46 55.5q28 27 37 44t9 36q0 33 -21 56.5t-51 23.5q-67 0 -77 -90l-48 8q7 66 41 98t87 32q52 0 85 -34t33 -90q0 -32 -12.5 -56.5t-47.5 -56.5q-33 -30 -39.5 -46t-6.5 -58v-14zM47 47h391v585h-391v-585zM0 680
h485v-680h-485v680z" />
    <glyph glyph-name="IJ" unicode="IJ" horiz-adv-x="582" 
d="M146 671v-630q0 -22 -12 -34.5t-32 -12.5t-32 12.5t-12 34.5v630q0 22 12 34.5t32 12.5t32 -12.5t12 -34.5zM436 172v499q0 22 12 34.5t32 12.5t32 -12.5t12 -34.5v-490q0 -187 -173 -187q-44 0 -95 22.5t-51 57.5q0 17 9.5 27t25.5 10t46 -20.5t72 -20.5q78 0 78 102z
" />
    <glyph glyph-name="ij" unicode="ij" horiz-adv-x="389" 
d="M146 491v-450q0 -22 -12 -34.5t-32 -12.5t-32 12.5t-12 34.5v450q0 22 12 34.5t32 12.5t32 -12.5t12 -34.5zM48 664q0 22 16 38t38 16t38 -16t16 -38t-16 -38t-38 -16t-38 16t-16 38zM331 491v-660q0 -22 -12 -34.5t-32 -12.5t-32 12.5t-12 34.5v660q0 22 12 34.5
t32 12.5t32 -12.5t12 -34.5zM233 664q0 22 15.5 38t38.5 16t38.5 -16t15.5 -38t-15.5 -38t-38.5 -16t-38.5 16t-15.5 38z" />
    <glyph glyph-name="napostrophe" unicode="&#x22;n" horiz-adv-x="538" 
d="M58 41v450q0 22 12 34.5t32 12.5t32 -12.5t12 -34.5v-21l2 -2q55 70 147 70q33 0 64 -11t59 -33.5t45 -63t17 -94.5v-295q0 -22 -12 -34.5t-32 -12.5t-32 12.5t-12 34.5v290q0 65 -37 98t-86 33t-86 -33t-37 -98v-290q0 -22 -12 -34.5t-32 -12.5t-32 12.5t-12 34.5z
M7 661l41 86q11 25 35 25q18 0 30 -10.5t12 -23.5q0 -14 -7 -27l-48 -89q-11 -20 -33 -20q-16 0 -26.5 9t-10.5 20q0 16 7 30z" />
    <glyph glyph-name="f_f" unicode="ff" horiz-adv-x="490" 
d="M405 456v-415q0 -22 -12 -34.5t-32 -12.5t-32 12.5t-12 34.5v415h-143v-415q0 -22 -12 -34.5t-32 -12.5t-32 12.5t-12 34.5v415h-36q-44 0 -44 38t44 38h36v125q0 55 33 85t84 30h27q19 0 34.5 -10.5t15.5 -27.5q0 -38 -48 -38h-22q-36 0 -36 -35v-129h143v125
q0 55 33 85t84 30h27q19 0 34.5 -10.5t15.5 -27.5q0 -38 -48 -38h-22q-36 0 -36 -35v-129h55q44 0 44 -38t-44 -38h-55z" />
    <glyph glyph-name="fi" unicode="fi" horiz-adv-x="463" 
d="M405 491v-450q0 -22 -12 -34.5t-32 -12.5t-32 12.5t-12 34.5v450q0 22 12 34.5t32 12.5t32 -12.5t12 -34.5zM307 664q0 22 15.5 38t38.5 16t38.5 -16t15.5 -38t-15.5 -38t-38.5 -16t-38.5 16t-15.5 38zM174 456v-415q0 -22 -12 -34.5t-32 -12.5t-32 12.5t-12 34.5v415
h-36q-44 0 -44 38t44 38h36v125q0 55 33 85t84 30h27q19 0 34.5 -10.5t15.5 -27.5q0 -38 -48 -38h-22q-36 0 -36 -35v-129h55q44 0 44 -38t-44 -38h-55z" />
    <glyph glyph-name="fl" unicode="fl" horiz-adv-x="463" 
d="M174 456v-415q0 -22 -12 -34.5t-32 -12.5t-32 12.5t-12 34.5v415h-36q-44 0 -44 38t44 38h36v125q0 55 33 85t84 30h27q19 0 34.5 -10.5t15.5 -27.5q0 -38 -48 -38h-22q-36 0 -36 -35v-129h55q44 0 44 -38t-44 -38h-55zM405 725v-684q0 -22 -12 -34.5t-32 -12.5t-32 12.5
t-12 34.5v684q0 22 12 34.5t32 12.5t32 -12.5t12 -34.5z" />
    <glyph glyph-name="f_f_i" unicode="ffi" horiz-adv-x="694" 
d="M405 456v-415q0 -22 -12 -34.5t-32 -12.5t-32 12.5t-12 34.5v415h-143v-415q0 -22 -12 -34.5t-32 -12.5t-32 12.5t-12 34.5v415h-36q-44 0 -44 38t44 38h36v125q0 55 33 85t84 30h27q19 0 34.5 -10.5t15.5 -27.5q0 -38 -48 -38h-22q-36 0 -36 -35v-129h143v125
q0 55 33 85t84 30h27q19 0 34.5 -10.5t15.5 -27.5q0 -38 -48 -38h-22q-36 0 -36 -35v-129h55q44 0 44 -38t-44 -38h-55zM636 491v-450q0 -22 -12 -34.5t-32 -12.5t-32 12.5t-12 34.5v450q0 22 12 34.5t32 12.5t32 -12.5t12 -34.5zM538 664q0 22 16 38t38 16t38 -16t16 -38
t-16 -38t-38 -16t-38 16t-16 38z" />
    <glyph glyph-name="f_f_l" unicode="ffl" horiz-adv-x="693" 
d="M405 456v-415q0 -22 -12 -34.5t-32 -12.5t-32 12.5t-12 34.5v415h-143v-415q0 -22 -12 -34.5t-32 -12.5t-32 12.5t-12 34.5v415h-36q-44 0 -44 38t44 38h36v125q0 55 33 85t84 30h27q19 0 34.5 -10.5t15.5 -27.5q0 -38 -48 -38h-22q-36 0 -36 -35v-129h143v125
q0 55 33 85t84 30h27q19 0 34.5 -10.5t15.5 -27.5q0 -38 -48 -38h-22q-36 0 -36 -35v-129h55q44 0 44 -38t-44 -38h-55zM635 725v-684q0 -22 -12 -34.5t-32 -12.5t-32 12.5t-12 34.5v684q0 22 12 34.5t32 12.5t32 -12.5t12 -34.5z" />
    <glyph glyph-name=".notdef" horiz-adv-x="485" 
d="M263 111h-53v63h53v-63zM257 222h-46v16q0 50 11 75.5t46 55.5q28 27 37 44t9 36q0 33 -21 56.5t-51 23.5q-67 0 -77 -90l-48 8q7 66 41 98t87 32q52 0 85 -34t33 -90q0 -32 -12.5 -56.5t-47.5 -56.5q-33 -30 -39.5 -46t-6.5 -58v-14zM47 47h391v585h-391v-585zM0 680
h485v-680h-485v680z" />
    <glyph glyph-name=".null" horiz-adv-x="500" 
 />
    <glyph glyph-name="nonmarkingreturn" horiz-adv-x="333" 
 />
    <glyph glyph-name="CR" unicode="&#xd;" horiz-adv-x="0" 
 />
    <glyph glyph-name="space" unicode=" " horiz-adv-x="250" 
 />
    <glyph glyph-name="exclam" unicode="!" horiz-adv-x="296" 
d="M104 238v433q0 22 12 34.5t32 12.5t32 -12.5t12 -34.5v-433q0 -22 -12 -34.5t-32 -12.5t-32 12.5t-12 34.5zM97 45q0 21 15 36t36 15t36 -15t15 -36t-15 -36t-36 -15t-36 15t-15 36z" />
    <glyph glyph-name="quotedbl" unicode="&#x22;" horiz-adv-x="334" 
d="M197 539v136q0 43 41 43t41 -43v-136q0 -43 -41 -43t-41 43zM55 539v136q0 43 41 43t41 -43v-136q0 -43 -41 -43t-41 43z" />
    <glyph glyph-name="numbersign" unicode="#" horiz-adv-x="536" 
d="M381 216l-26 -186q-5 -36 -38 -36q-34 0 -34 34q0 10 5 42l20 146h-119l-26 -186q-5 -36 -38 -36q-34 0 -34 34q0 10 5 42l20 146h-61q-41 0 -41 33t41 33h70l21 148h-61q-41 0 -41 33t41 33h70l26 186q5 36 38 36q34 0 34 -34q0 -10 -5 -42l-20 -146h119l26 186
q5 36 38 36q34 0 34 -34q0 -10 -5 -42l-20 -146h61q41 0 41 -33t-41 -33h-70l-21 -148h61q41 0 41 -33t-41 -33h-70zM317 282l21 148h-119l-21 -148h119z" />
    <glyph glyph-name="dollar" unicode="$" horiz-adv-x="481" 
d="M218 439v203q-43 -5 -69.5 -32.5t-26.5 -68.5q0 -38 24.5 -61t71.5 -41zM218 70v277q-28 9 -40 13.5t-37 15t-37 19t-29.5 23.5t-25.5 30.5t-14.5 38t-6.5 48.5q0 64 52.5 119.5t137.5 63.5v47q0 21 21 21t21 -21v-47q62 -5 107.5 -28.5t45.5 -54.5q0 -16 -11 -27.5
t-27 -11.5t-47.5 20.5t-67.5 25.5v-219q29 -10 41.5 -14.5t38.5 -16.5t38.5 -21t31 -25t27.5 -33.5t16 -41.5t7 -52q0 -84 -53.5 -146.5t-146.5 -74.5v-51q0 -21 -21 -21t-21 21v47q-75 0 -136 28t-61 61q0 17 9.5 29.5t25.5 12.5q14 0 36.5 -13.5t54.5 -27.5t71 -14z
M260 332v-257q50 10 78 48t28 92q0 45 -27.5 71.5t-78.5 45.5z" />
    <glyph glyph-name="percent" unicode="%" horiz-adv-x="741" 
d="M194 434q44 0 65 34.5t21 80.5t-21 80.5t-65 34.5t-65 -34.5t-21 -80.5t21 -80.5t65 -34.5zM547 -6q-72 0 -112 49t-40 120t40 120t112 49t112 -49t40 -120t-40 -120t-112 -49zM547 48q44 0 65 34.5t21 80.5t-21 80.5t-65 34.5t-65 -34.5t-21 -80.5t21 -80.5t65 -34.5z
M194 380q-72 0 -112 49t-40 120t40 120t112 49t112 -49t40 -120t-40 -120t-112 -49zM209 58l266 638q13 30 35 30q17 0 26 -8.5t9 -18.5q0 -9 -14 -45l-266 -638q-13 -30 -37 -30q-15 0 -24 8t-9 19t14 45z" />
    <glyph glyph-name="ampersand" unicode="&#x26;" horiz-adv-x="667" 
d="M318 417l159 -188l6 8q15 21 37 57t35.5 51.5t26.5 15.5q16 0 26.5 -8t10.5 -22q0 -49 -93 -160l87 -103q18 -21 18 -38q0 -16 -10.5 -26t-25.5 -10q-21 0 -34 16l-86 99q-91 -115 -220 -115q-91 0 -155 56t-64 151q0 84 37.5 133t121.5 100q-79 81 -79 139
q0 74 48 109.5t126 35.5q64 0 110 -36t46 -90q0 -62 -34.5 -102t-93.5 -73zM204 575q0 -14 10.5 -33t21.5 -31.5t34 -38.5q94 54 94 105q0 34 -24 52.5t-57 18.5q-34 0 -56.5 -19t-22.5 -54zM124 211q0 -59 36 -97t103 -38q46 0 84 20.5t79 70.5l-182 210
q-67 -38 -93.5 -76.5t-26.5 -89.5z" />
    <glyph glyph-name="quotesingle" unicode="'" 
d="M61 539v136q0 43 41 43t41 -43v-136q0 -43 -41 -43t-41 43z" />
    <glyph glyph-name="parenleft" unicode="(" horiz-adv-x="241" 
d="M65 318q0 219 58 373q17 45 44 45q17 0 26 -8.5t9 -20.5q0 -9 -14 -53q-41 -129 -41 -336t41 -336q14 -44 14 -53q0 -12 -9 -20.5t-26 -8.5q-27 0 -44 45q-58 154 -58 373z" />
    <glyph glyph-name="parenright" unicode=")" horiz-adv-x="241" 
d="M176 318q0 -219 -58 -373q-17 -45 -44 -45q-17 0 -26 8.5t-9 20.5q0 9 14 53q41 129 41 336t-41 336q-14 44 -14 53q0 12 9 20.5t26 8.5q27 0 44 -45q58 -154 58 -373z" />
    <glyph glyph-name="asterisk" unicode="*" horiz-adv-x="390" 
d="M150 541l-89 37q-23 10 -23 32q0 14 10 24t25 10q11 0 25.5 -9t37 -28t34.5 -28q0 19 -5.5 55.5t-5.5 48.5q0 15 9.5 25t26.5 10t26.5 -10t9.5 -25q0 -12 -5.5 -48.5t-5.5 -55.5q12 9 34.5 28t37 28t25.5 9q15 0 25 -10t10 -24q0 -22 -23 -32l-89 -37l89 -37
q23 -10 23 -32q0 -14 -10 -24t-25 -10q-11 0 -25.5 9t-37 28t-34.5 28q0 -19 5.5 -55.5t5.5 -48.5q0 -15 -9.5 -25t-26.5 -10t-26.5 10t-9.5 25q0 12 5.5 48.5t5.5 55.5q-12 -9 -34.5 -28t-37 -28t-25.5 -9q-15 0 -25 10t-10 24q0 22 23 32z" />
    <glyph glyph-name="plus" unicode="+" horiz-adv-x="600" 
d="M259 294v169q0 43 41 43t41 -43v-169h169q43 0 43 -41t-43 -41h-169v-169q0 -43 -41 -43t-41 43v169h-169q-43 0 -43 41t43 41h169z" />
    <glyph glyph-name="comma" unicode="," horiz-adv-x="250" 
d="M33 -51l56 110q19 37 47 37q16 0 28 -11t12 -27q0 -15 -11 -37l-56 -110q-19 -37 -47 -37q-16 0 -28 11t-12 27q0 15 11 37z" />
    <glyph glyph-name="hyphen" unicode="-" horiz-adv-x="352" 
d="M279 230h-206q-16 0 -27 11t-11 27t11 27t27 11h206q16 0 27 -11t11 -27t-11 -27t-27 -11z" />
    <glyph glyph-name="period" unicode="." horiz-adv-x="250" 
d="M74 45q0 21 15 36t36 15t36 -15t15 -36t-15 -36t-36 -15t-36 15t-15 36z" />
    <glyph glyph-name="slash" unicode="/" horiz-adv-x="407" 
d="M34 75l273 613q13 30 41 30q17 0 28 -10t11 -27q0 -13 -14 -44l-273 -613q-13 -30 -41 -30q-17 0 -28 10t-11 27q0 13 14 44z" />
    <glyph glyph-name="zero" unicode="0" horiz-adv-x="536" 
d="M33 356q0 167 67 264.5t168 97.5t168 -97.5t67 -264.5t-67 -264.5t-168 -97.5t-168 97.5t-67 264.5zM127 356q0 -142 39.5 -214t101.5 -72t101.5 72t39.5 214t-39.5 214t-101.5 72t-101.5 -72t-39.5 -214z" />
    <glyph glyph-name="one" unicode="1" horiz-adv-x="352" 
d="M164 41v595h-92q-16 0 -27 11t-11 27t11 27t27 11h153q15 0 21 -4.5t6 -19.5v-647q0 -22 -12 -34.5t-32 -12.5t-32 12.5t-12 34.5z" />
    <glyph glyph-name="two" unicode="2" horiz-adv-x="536" 
d="M182 76h270q16 0 27 -11t11 -27t-11 -27t-27 -11h-345q-25 0 -36.5 11t-11.5 25q0 13 19 40l246 329q52 68 52 126q0 48 -32.5 79.5t-80.5 31.5q-61 0 -95.5 -45.5t-34.5 -115.5q0 -40 -39 -40q-43 0 -43 54q0 93 60.5 158t166.5 65q85 0 138.5 -52.5t53.5 -124.5
q0 -83 -49 -147z" />
    <glyph glyph-name="three" unicode="3" horiz-adv-x="536" 
d="M476 210q0 -99 -64.5 -157.5t-162.5 -58.5q-52 0 -94.5 18t-66 44.5t-35.5 53t-12 48.5q0 23 10.5 36t26.5 13q34 0 49 -46q30 -91 120 -91q59 0 97 38t38 94q0 133 -124 133q-54 0 -54 38q0 28 46 38q53 12 76.5 39t23.5 76q0 51 -28 83.5t-73 32.5q-91 0 -101 -104
q-3 -41 -42 -41q-18 0 -29 11.5t-11 29.5q0 75 51 127.5t136 52.5q83 0 134 -53.5t51 -130.5q0 -46 -21.5 -86t-62.5 -65q59 -18 90.5 -64.5t31.5 -108.5z" />
    <glyph glyph-name="four" unicode="4" horiz-adv-x="536" 
d="M334 183h-284q-38 0 -38 31q0 15 22 51l252 413q24 40 69 40q67 0 67 -73v-386h45q16 0 27 -11t11 -27t-11 -27t-27 -11h-45v-142q0 -22 -12 -34.5t-32 -12.5t-32 12.5t-12 34.5v142zM122 259h212v365h-2z" />
    <glyph glyph-name="five" unicode="5" horiz-adv-x="536" 
d="M228 636l-29 -193q39 20 94 20q80 0 131 -64.5t51 -151.5q0 -116 -62 -184.5t-169 -68.5q-82 0 -141 40.5t-59 77.5q0 15 8.5 26.5t23.5 11.5q13 0 35 -18.5t56 -37t78 -18.5q62 0 99 44.5t37 109.5q0 67 -31 109t-92 42q-38 0 -76 -13.5t-45 -13.5q-30 0 -30 27
q0 8 7 59l37 249q4 23 33 23h247q16 0 27 -11t11 -27t-11 -27t-27 -11h-203z" />
    <glyph glyph-name="six" unicode="6" horiz-adv-x="536" 
d="M266 -6q-93 0 -153.5 69.5t-60.5 175.5q0 74 22.5 145.5t61.5 129.5t78.5 102t85.5 82q24 20 41 20q12 0 24 -11t12 -30q0 -16 -35 -47q-46 -41 -80.5 -84.5t-72.5 -113.5h2q54 28 113 28q83 0 131.5 -68t48.5 -166t-62 -165t-156 -67zM140 230q0 -67 31.5 -110.5
t93.5 -43.5t93.5 43.5t31.5 110.5q0 154 -125 154q-62 0 -93.5 -44t-31.5 -110z" />
    <glyph glyph-name="seven" unicode="7" horiz-adv-x="500" 
d="M366 636h-300q-16 0 -27 11t-11 27t11 27t27 11h361q45 0 45 -28q0 -14 -17 -53l-266 -605q-14 -32 -53 -32q-11 0 -22 9t-11 25q0 14 14 47l249 559v2z" />
    <glyph glyph-name="eight" unicode="8" horiz-adv-x="536" 
d="M86 555q0 77 54.5 120t127.5 43t127.5 -43t54.5 -120q0 -56 -22 -91.5t-71 -66.5q60 -14 94.5 -63.5t34.5 -114.5q0 -92 -59 -158.5t-159 -66.5t-159 66.5t-59 158.5q0 65 34.5 114.5t94.5 63.5q-49 31 -71 66.5t-22 91.5zM168 538q0 -47 27 -76t73 -29t73 29t27 76
q0 46 -27 75t-73 29t-73 -29t-27 -75zM144 215q0 -66 36 -105.5t88 -39.5t88 39.5t36 105.5q0 59 -33 100.5t-91 41.5t-91 -41.5t-33 -100.5z" />
    <glyph glyph-name="nine" unicode="9" horiz-adv-x="536" 
d="M270 718q93 0 153.5 -69.5t60.5 -175.5q0 -74 -22.5 -145.5t-61.5 -129.5t-78.5 -102t-85.5 -82q-24 -20 -41 -20q-12 0 -24 11t-12 30q0 16 35 47q46 41 80.5 84.5t72.5 113.5h-2q-54 -28 -113 -28q-83 0 -131.5 68t-48.5 166t62 165t156 67zM396 482q0 67 -31.5 110.5
t-93.5 43.5t-93.5 -43.5t-31.5 -110.5q0 -154 125 -154q62 0 93.5 44t31.5 110z" />
    <glyph glyph-name="colon" unicode=":" horiz-adv-x="250" 
d="M74 45q0 21 15 36t36 15t36 -15t15 -36t-15 -36t-36 -15t-36 15t-15 36zM74 381q0 21 15 36t36 15t36 -15t15 -36t-15 -36t-36 -15t-36 15t-15 36z" />
    <glyph glyph-name="semicolon" unicode=";" horiz-adv-x="250" 
d="M33 -51l56 110q19 37 47 37q16 0 28 -11t12 -27q0 -15 -11 -37l-56 -110q-19 -37 -47 -37q-16 0 -28 11t-12 27q0 15 11 37zM74 381q0 21 15 36t36 15t36 -15t15 -36t-15 -36t-36 -15t-36 15t-15 36z" />
    <glyph glyph-name="less" unicode="&#x3c;" horiz-adv-x="600" 
d="M150 253l372 -184q32 -17 32 -38q0 -15 -10 -26t-23 -11q-11 0 -49 18l-390 195q-36 18 -36 46t36 46l390 195q38 18 49 18q13 0 23 -11t10 -26q0 -21 -32 -38z" />
    <glyph glyph-name="equal" unicode="=" horiz-adv-x="600" 
d="M510 316h-420q-43 0 -43 41t43 41h420q43 0 43 -41t-43 -41zM510 108h-420q-43 0 -43 41t43 41h420q43 0 43 -41t-43 -41z" />
    <glyph glyph-name="greater" unicode="&#x3e;" horiz-adv-x="600" 
d="M78 69l372 184l-372 184q-32 17 -32 38q0 15 10 26t23 11q11 0 49 -18l390 -195q36 -18 36 -46t-36 -46l-390 -195q-38 -18 -49 -18q-13 0 -23 11t-10 26q0 21 32 38z" />
    <glyph glyph-name="question" unicode="?" horiz-adv-x="444" 
d="M258 338v-100q0 -22 -12 -34.5t-32 -12.5t-32 12.5t-12 34.5v113q0 35 10 46t60 21q92 19 92 108q0 50 -32.5 80t-83.5 30q-87 0 -116 -82q-11 -33 -39 -33q-18 0 -31 13t-12 33q3 64 62.5 107.5t132.5 43.5q91 0 152 -52.5t61 -131.5t-45.5 -129.5t-122.5 -66.5zM163 45
q0 21 15 36t36 15t36 -15t15 -36t-15 -36t-36 -15t-36 15t-15 36z" />
    <glyph glyph-name="at" unicode="@" horiz-adv-x="919" 
d="M466 -128q-194 0 -312.5 121.5t-118.5 303.5q0 115 59 212t159 153t216 56q179 0 296.5 -99t117.5 -253q0 -145 -101 -241q-73 -69 -175 -69q-76 0 -88 75q-21 -29 -57.5 -52t-83.5 -23q-82 0 -125 50.5t-43 129.5q0 118 75.5 208t187.5 90q97 0 133 -75l10 27
q13 37 44 37q15 0 26 -9.5t11 -26.5q0 -8 -3 -16l-76 -254q-10 -34 -10 -53q0 -33 30 -33q62 0 115 70.5t53 159.5q0 131 -95 211t-241 80q-152 0 -254.5 -105.5t-102.5 -253.5q0 -147 101.5 -248.5t248.5 -101.5q143 0 248 71q15 9 27 9q13 0 22 -9.5t9 -21.5
q0 -28 -51.5 -57t-122 -46t-129.5 -17zM390 131q46 0 88 39.5t64 90t22 92.5q0 49 -24.5 78t-68.5 29q-71 0 -123 -67t-52 -157q0 -42 24.5 -73.5t69.5 -31.5z" />
    <glyph glyph-name="A" unicode="A" horiz-adv-x="612" 
d="M141 155l-46 -128q-12 -33 -43 -33q-18 0 -30 10t-12 27q0 8 12 44l221 589q19 54 63 54t63 -54l221 -589q12 -36 12 -44q0 -17 -12 -27t-30 -10q-31 0 -43 33l-46 128h-330zM444 231l-137 385h-2l-137 -385h276z" />
    <glyph glyph-name="B" unicode="B" horiz-adv-x="537" 
d="M146 636v-225h100q55 0 86.5 32.5t31.5 82.5t-29 80t-86 30h-103zM146 339v-263h124q65 0 107 36.5t42 95.5q0 57 -39 94t-106 37h-128zM58 48v616q0 48 47 48h155q89 0 140.5 -52t51.5 -118q0 -58 -27.5 -100t-71.5 -56v-2q65 -7 109.5 -56.5t44.5 -119.5
q0 -88 -62.5 -148t-170.5 -60h-169q-47 0 -47 48z" />
    <glyph glyph-name="C" unicode="C" horiz-adv-x="593" 
d="M125 356q0 -114 56.5 -200t161.5 -86q47 0 86.5 16t65.5 32t39 16q16 0 25.5 -11t9.5 -30q0 -35 -68 -67t-158 -32q-99 0 -171.5 52.5t-106.5 133.5t-34 176q0 71 20.5 135t58.5 115t100 81.5t138 30.5q86 0 146 -36t60 -68q0 -18 -10 -30t-26 -12q-15 0 -35 17.5
t-53.5 35t-81.5 17.5q-57 0 -101 -25t-70 -67t-39 -91.5t-13 -102.5z" />
    <glyph glyph-name="D" unicode="D" horiz-adv-x="630" 
d="M63 48v616q0 48 47 48h173q102 0 175 -49.5t107 -127.5t34 -175q0 -162 -81.5 -261t-222.5 -99h-185q-47 0 -47 48zM151 636v-560h126q60 0 105.5 23.5t71.5 64.5t38.5 90t12.5 106q0 120 -58 198t-176 78h-120z" />
    <glyph glyph-name="E" unicode="E" horiz-adv-x="444" 
d="M146 315v-233h212q43 0 43 -41t-43 -41h-253q-47 0 -47 48v616q0 48 47 48h253q43 0 43 -41t-43 -41h-212v-233h193q43 0 43 -41t-43 -41h-193z" />
    <glyph glyph-name="F" unicode="F" horiz-adv-x="407" 
d="M146 315v-274q0 -22 -12 -34.5t-32 -12.5t-32 12.5t-12 34.5v623q0 48 47 48h250q43 0 43 -41t-43 -41h-209v-233h185q43 0 43 -41t-43 -41h-185z" />
    <glyph glyph-name="G" unicode="G" horiz-adv-x="667" 
d="M559 326h-124q-43 0 -43 41t43 41h148q35 0 49.5 -16t14.5 -56q0 -70 -14 -127t-46.5 -107.5t-94.5 -79t-149 -28.5q-74 0 -134.5 30.5t-98.5 81.5t-58.5 115.5t-20.5 134.5q0 96 33.5 176t109 133t182.5 53q100 0 172 -40t72 -74q0 -18 -12 -30t-30 -12
q-14 0 -33.5 12.5t-39 27.5t-55.5 27.5t-80 12.5q-58 0 -102.5 -25t-70.5 -67t-39 -91.5t-13 -102.5q0 -54 13 -102.5t39 -91t71.5 -67.5t105.5 -25q96 0 150.5 66.5t54.5 147.5v42z" />
    <glyph glyph-name="H" unicode="H" horiz-adv-x="667" 
d="M146 319v-272q0 -53 -44 -53t-44 53v618q0 53 44 53t44 -53v-270h375v270q0 53 44 53t44 -53v-618q0 -53 -44 -53t-44 53v272h-375z" />
    <glyph glyph-name="I" unicode="I" 
d="M146 671v-630q0 -22 -12 -34.5t-32 -12.5t-32 12.5t-12 34.5v630q0 22 12 34.5t32 12.5t32 -12.5t12 -34.5z" />
    <glyph glyph-name="J" unicode="J" horiz-adv-x="370" 
d="M224 172v499q0 22 12 34.5t32 12.5t32 -12.5t12 -34.5v-490q0 -187 -173 -187q-44 0 -95 22.5t-51 57.5q0 17 9.5 27t25.5 10t30 -10.5t34.5 -20.5t53.5 -10q78 0 78 102z" />
    <glyph glyph-name="K" unicode="K" horiz-adv-x="574" 
d="M146 339v-298q0 -22 -12 -34.5t-32 -12.5t-32 12.5t-12 34.5v630q0 22 12 34.5t32 12.5t32 -12.5t12 -34.5v-260l305 279q30 28 48 28q17 0 27.5 -10.5t10.5 -27.5q0 -24 -18 -40l-292 -263l319 -308q18 -17 18 -36q0 -16 -12.5 -27.5t-30.5 -11.5q-23 0 -43 19z" />
    <glyph glyph-name="L" unicode="L" horiz-adv-x="389" 
d="M146 671v-589h188q43 0 43 -41t-43 -41h-229q-47 0 -47 48v623q0 22 12 34.5t32 12.5t32 -12.5t12 -34.5z" />
    <glyph glyph-name="M" unicode="M" horiz-adv-x="834" 
d="M200 604l-83 -572q-5 -38 -47 -38q-41 0 -41 45q0 12 5 40l97 572q12 67 69 67q50 0 64 -46l152 -521h2l152 521q14 46 64 46q57 0 69 -67l97 -572q5 -28 5 -40q0 -45 -41 -45q-42 0 -47 38l-83 572h-2l-170 -574q-11 -36 -45 -36t-45 36l-170 574h-2z" />
    <glyph glyph-name="N" unicode="N" horiz-adv-x="668" 
d="M146 557v-516q0 -22 -12 -34.5t-32 -12.5t-32 12.5t-12 34.5v625q0 52 40 52q19 0 31 -9.5t31 -36.5l360 -517h2v516q0 22 12 34.5t32 12.5t32 -12.5t12 -34.5v-625q0 -52 -40 -52q-19 0 -31 9.5t-31 36.5l-360 517h-2z" />
    <glyph glyph-name="O" unicode="O" horiz-adv-x="686" 
d="M125 356q0 -73 20 -135t71 -106.5t127 -44.5t127 44.5t71 106.5t20 135t-20 135t-71 106.5t-127 44.5t-127 -44.5t-71 -106.5t-20 -135zM31 356q0 95 34.5 176t107.5 133.5t170 52.5t170 -52.5t107.5 -133.5t34.5 -176t-34.5 -176t-107.5 -133.5t-170 -52.5t-170 52.5
t-107.5 133.5t-34.5 176z" />
    <glyph glyph-name="P" unicode="P" horiz-adv-x="519" 
d="M146 266v-225q0 -22 -12 -34.5t-32 -12.5t-32 12.5t-12 34.5v623q0 48 47 48h174q105 0 168 -64t63 -160q0 -93 -65.5 -157.5t-162.5 -64.5h-136zM146 636v-294h130q64 0 105 42t41 104q0 60 -37 104t-113 44h-126z" />
    <glyph glyph-name="Q" unicode="Q" horiz-adv-x="685" 
d="M485 127l-59 58q-18 18 -18 33q0 17 11 28.5t28 11.5t33 -16l49 -48q32 70 32 162q0 73 -20 135t-71 106.5t-127 44.5t-127 -44.5t-71 -106.5t-20 -135t20 -135t71 -106.5t127 -44.5q87 0 142 57zM612 2l-70 69q-80 -77 -199 -77q-97 0 -170 52.5t-107.5 133.5t-34.5 176
t34.5 176t107.5 133.5t170 52.5t170 -52.5t107.5 -133.5t34.5 -176q0 -128 -62 -225l74 -73q17 -17 17 -35q0 -15 -10.5 -26t-27.5 -11q-18 0 -34 16z" />
    <glyph glyph-name="R" unicode="R" horiz-adv-x="519" 
d="M146 312v-271q0 -22 -12 -34.5t-32 -12.5t-32 12.5t-12 34.5v623q0 48 47 48h163q88 0 153 -54t65 -138q0 -102 -53.5 -150.5t-140.5 -51.5l-38 -1l227 -249q17 -18 17 -40q0 -14 -11.5 -24t-28.5 -10q-22 0 -40 20zM146 636v-253h120q69 0 100.5 31t31.5 100
q0 51 -37 86.5t-97 35.5h-118z" />
    <glyph glyph-name="S" unicode="S" horiz-adv-x="481" 
d="M238 718q68 0 121.5 -24.5t53.5 -58.5q0 -16 -11 -27.5t-27 -11.5q-15 0 -32 11.5t-43.5 23t-64.5 11.5q-49 0 -81 -28t-32 -73q0 -32 18.5 -54.5t48.5 -36.5t66 -26t72 -27.5t66 -36t48.5 -56.5t18.5 -85q0 -93 -65 -159t-176 -66q-74 0 -136 25t-62 61q0 19 9.5 32
t27.5 13q11 0 33 -13.5t56 -27.5t73 -14q66 0 106 42t40 103q0 39 -25 66t-62.5 40t-81.5 30t-81.5 35t-62.5 56t-25 93q0 68 58.5 125.5t151.5 57.5z" />
    <glyph glyph-name="T" unicode="T" horiz-adv-x="444" 
d="M178 41v589h-133q-43 0 -43 41t43 41h354q43 0 43 -41t-43 -41h-133v-589q0 -22 -12 -34.5t-32 -12.5t-32 12.5t-12 34.5z" />
    <glyph glyph-name="U" unicode="U" horiz-adv-x="668" 
d="M58 282v389q0 22 12 34.5t32 12.5t32 -12.5t12 -34.5v-423q0 -83 51.5 -130.5t136.5 -47.5t136.5 47.5t51.5 130.5v423q0 22 12 34.5t32 12.5t32 -12.5t12 -34.5v-389q0 -69 -17.5 -122t-44.5 -83.5t-64.5 -50t-73.5 -26t-76 -6.5t-76 6.5t-73.5 26t-64.5 50t-44.5 83.5
t-17.5 122z" />
    <glyph glyph-name="V" unicode="V" horiz-adv-x="556" 
d="M279 142l180 519q8 21 11.5 30t15 18t27.5 9q17 0 28 -11t11 -25q0 -16 -6 -34l-217 -606q-8 -25 -19 -36.5t-32 -11.5t-32 11.5t-19 36.5l-217 606q-6 18 -6 34q0 14 11 25t28 11q16 0 27.5 -9t15 -18t11.5 -30l180 -519h2z" />
    <glyph glyph-name="W" unicode="W" horiz-adv-x="834" 
d="M208 108l164 575q10 35 45 35t45 -35l164 -575h2l93 569q7 41 48 41q18 0 29 -11.5t11 -28.5q0 -19 -5 -45l-108 -581q-11 -58 -63 -58q-28 0 -43.5 11.5t-25.5 46.5l-146 522h-2l-146 -522q-10 -35 -25.5 -46.5t-43.5 -11.5q-52 0 -63 58l-108 581q-5 26 -5 45
q0 17 11 28.5t29 11.5q41 0 48 -41l93 -569h2z" />
    <glyph glyph-name="X" unicode="X" horiz-adv-x="594" 
d="M297 313l-204 -291q-20 -28 -44 -28q-15 0 -27.5 11t-12.5 26t14 36l223 315l-186 263q-14 20 -14 36t11.5 26.5t27.5 10.5q25 0 45 -28l167 -244l167 244q20 28 45 28q16 0 27.5 -10.5t11.5 -26.5t-14 -36l-186 -263l223 -315q14 -21 14 -36t-12.5 -26t-27.5 -11
q-24 0 -44 28z" />
    <glyph glyph-name="Y" unicode="Y" horiz-adv-x="500" 
d="M206 41v293l-191 311q-14 22 -14 37q0 16 11.5 26t28.5 10q27 0 44 -28l165 -269l165 269q17 28 44 28q17 0 28.5 -10t11.5 -26q0 -15 -14 -37l-191 -311v-293q0 -22 -12 -34.5t-32 -12.5t-32 12.5t-12 34.5z" />
    <glyph glyph-name="Z" unicode="Z" horiz-adv-x="556" 
d="M41 87l366 549h-323q-19 0 -31 10t-12 28t12 28t31 10h389q21 0 33.5 -9t12.5 -22q0 -24 -22 -56l-367 -549h359q19 0 31 -10t12 -28t-12 -28t-31 -10h-413q-52 0 -52 40q0 22 17 47z" />
    <glyph glyph-name="bracketleft" unicode="[" horiz-adv-x="241" 
d="M158 642v-648h34q16 0 27 -11t11 -27t-11 -27t-27 -11h-69q-47 0 -47 48v704q0 48 47 48h69q16 0 27 -11t11 -27t-11 -27t-27 -11h-34z" />
    <glyph glyph-name="backslash" unicode="\" horiz-adv-x="407" 
d="M307 24l-273 613q-14 31 -14 44q0 17 11 27t28 10q28 0 41 -30l273 -613q14 -31 14 -44q0 -17 -11 -27t-28 -10q-28 0 -41 30z" />
    <glyph glyph-name="bracketright" unicode="]" horiz-adv-x="241" 
d="M83 -6v648h-34q-16 0 -27 11t-11 27t11 27t27 11h69q47 0 47 -48v-704q0 -48 -47 -48h-69q-16 0 -27 11t-11 27t11 27t27 11h34z" />
    <glyph glyph-name="asciicircum" unicode="^" horiz-adv-x="600" 
d="M300 630l-157 -291q-12 -22 -17 -29.5t-13.5 -14t-19.5 -6.5q-16 0 -26.5 9.5t-10.5 23.5q0 11 17 43l175 312q23 41 52 41t52 -41l175 -312q17 -32 17 -43q0 -14 -10.5 -23.5t-26.5 -9.5t-24.5 10t-25.5 40z" />
    <glyph glyph-name="underscore" unicode="_" horiz-adv-x="500" 
d="M500 -125h-500q-29 0 -29 25t29 25h500q29 0 29 -25t-29 -25z" />
    <glyph glyph-name="grave" unicode="`" 
d="M141 616l-115 47q-35 14 -35 37q0 14 10 28t28 14q12 0 34 -9l115 -47q35 -14 35 -37q0 -14 -10 -28t-28 -14q-12 0 -34 9z" />
    <glyph glyph-name="a" unicode="a" horiz-adv-x="556" 
d="M498 495v-458q0 -21 -13 -32t-28 -11q-16 0 -28.5 11t-12.5 32v37h-2q-56 -80 -145 -80q-108 0 -171 80t-63 192t63 192t171 80q80 0 145 -71h2v28q0 21 12.5 32t28.5 11q15 0 28 -11t13 -32zM123 266q0 -78 36 -137t110 -59t110 59t36 137t-36 137t-110 59t-110 -59
t-36 -137z" />
    <glyph glyph-name="b" unicode="b" horiz-adv-x="556" 
d="M141 266q0 -78 36 -137t110 -59t110 59t36 137t-36 137t-110 59t-110 -59t-36 -137zM62 41v684q0 22 12 34.5t32 12.5t32 -12.5t12 -34.5v-259h2q20 29 57 50.5t85 21.5q104 0 165.5 -80t61.5 -192t-61.5 -192t-165.5 -80t-142 73h-2v-26q0 -22 -12 -34.5t-32 -12.5
t-32 12.5t-12 34.5z" />
    <glyph glyph-name="c" unicode="c" horiz-adv-x="444" 
d="M35 266q0 114 62.5 193t177.5 79q65 0 104 -19.5t39 -47.5q0 -14 -10.5 -25.5t-25.5 -11.5q-14 0 -44 14t-63 14q-75 0 -113.5 -59.5t-38.5 -136.5t38.5 -136.5t113.5 -59.5q35 0 65.5 15t40.5 15q34 0 34 -37q0 -27 -38 -48t-102 -21q-115 0 -177.5 79t-62.5 193z" />
    <glyph glyph-name="d" unicode="d" horiz-adv-x="556" 
d="M415 266q0 78 -36 137t-110 59t-110 -59t-36 -137t36 -137t110 -59t110 59t36 137zM406 41v26h-2q-38 -73 -142 -73t-165.5 80t-61.5 192t61.5 192t165.5 80q48 0 85 -21.5t57 -50.5h2v259q0 22 12 34.5t32 12.5t32 -12.5t12 -34.5v-684q0 -22 -12 -34.5t-32 -12.5
t-32 12.5t-12 34.5z" />
    <glyph glyph-name="e" unicode="e" horiz-adv-x="520" 
d="M445 232h-331q0 -70 42.5 -116t114.5 -46q40 0 72.5 11t49 25t32.5 25t26 11q13 0 22.5 -10.5t9.5 -28.5q0 -34 -69 -71.5t-144 -37.5q-120 0 -182 78.5t-62 193.5q0 113 65.5 192.5t173.5 79.5q103 0 166 -78t63 -181q0 -24 -11 -35.5t-38 -11.5zM114 298h292
q0 64 -36.5 114t-104.5 50q-75 3 -111.5 -45.5t-39.5 -118.5z" />
    <glyph glyph-name="f" unicode="f" horiz-adv-x="259" 
d="M174 456v-415q0 -22 -12 -34.5t-32 -12.5t-32 12.5t-12 34.5v415h-36q-44 0 -44 38t44 38h36v125q0 55 33 85t84 30h27q19 0 34.5 -10.5t15.5 -27.5q0 -38 -48 -38h-22q-36 0 -36 -35v-129h55q44 0 44 -38t-44 -38h-55z" />
    <glyph glyph-name="g" unicode="g" horiz-adv-x="556" 
d="M494 495v-457q0 -117 -65.5 -185.5t-174.5 -68.5q-69 0 -136.5 32t-67.5 65q0 16 9 28.5t28 12.5q15 0 39 -15.5t59 -31t76 -15.5q77 0 111 48.5t34 115.5v46h-2q-45 -76 -135 -76q-108 0 -171 80t-63 192t63 192t171 80q40 0 78 -20.5t57 -46.5h2v24q0 22 13.5 32.5
t33.5 10.5q15 0 28 -11t13 -32zM123 266q0 -78 36 -137t110 -59t110 59t36 137t-36 137t-110 59t-110 -59t-36 -137z" />
    <glyph glyph-name="h" unicode="h" horiz-adv-x="538" 
d="M392 41v290q0 65 -37 98t-86 33t-86 -33t-37 -98v-290q0 -22 -12 -34.5t-32 -12.5t-32 12.5t-12 34.5v684q0 22 12 34.5t32 12.5t32 -12.5t12 -34.5v-255l2 -2q55 70 147 70q33 0 64 -11t59 -33.5t45 -63t17 -94.5v-295q0 -22 -12 -34.5t-32 -12.5t-32 12.5t-12 34.5z
" />
    <glyph glyph-name="i" unicode="i" 
d="M146 491v-450q0 -22 -12 -34.5t-32 -12.5t-32 12.5t-12 34.5v450q0 22 12 34.5t32 12.5t32 -12.5t12 -34.5zM48 664q0 22 16 38t38 16t38 -16t16 -38t-16 -38t-38 -16t-38 16t-16 38z" />
    <glyph glyph-name="j" unicode="j" 
d="M146 491v-660q0 -22 -12 -34.5t-32 -12.5t-32 12.5t-12 34.5v660q0 22 12 34.5t32 12.5t32 -12.5t12 -34.5zM48 664q0 22 16 38t38 16t38 -16t16 -38t-16 -38t-38 -16t-38 16t-16 38z" />
    <glyph glyph-name="k" unicode="k" horiz-adv-x="463" 
d="M58 41v684q0 22 12 34.5t32 12.5t32 -12.5t12 -34.5v-375l192 161q30 27 50 27q17 0 27 -11t10 -28q0 -21 -22 -38l-200 -158l232 -229q21 -21 21 -45q0 -15 -11 -25t-26 -10t-25 5.5t-26 21.5l-222 232v-212q0 -22 -12 -34.5t-32 -12.5t-32 12.5t-12 34.5z" />
    <glyph glyph-name="l" unicode="l" 
d="M146 725v-684q0 -22 -12 -34.5t-32 -12.5t-32 12.5t-12 34.5v684q0 22 12 34.5t32 12.5t32 -12.5t12 -34.5z" />
    <glyph glyph-name="m" unicode="m" horiz-adv-x="834" 
d="M373 41v298q0 57 -30 90t-84 33q-53 0 -83 -33t-30 -90v-298q0 -22 -12 -34.5t-32 -12.5t-32 12.5t-12 34.5v450q0 22 12 34.5t32 12.5t32 -12.5t12 -34.5v-16l2 -2q14 18 26.5 29.5t41.5 23.5t66 12q93 0 146 -90q63 90 163 90q33 0 64 -11t59 -33.5t45 -63t17 -94.5
v-295q0 -22 -12 -34.5t-32 -12.5t-32 12.5t-12 34.5v298q0 57 -30 90t-84 33q-53 0 -83 -33t-30 -90v-298q0 -22 -12 -34.5t-32 -12.5t-32 12.5t-12 34.5z" />
    <glyph glyph-name="n" unicode="n" horiz-adv-x="538" 
d="M58 41v450q0 22 12 34.5t32 12.5t32 -12.5t12 -34.5v-21l2 -2q55 70 147 70q33 0 64 -11t59 -33.5t45 -63t17 -94.5v-295q0 -22 -12 -34.5t-32 -12.5t-32 12.5t-12 34.5v290q0 65 -37 98t-86 33t-86 -33t-37 -98v-290q0 -22 -12 -34.5t-32 -12.5t-32 12.5t-12 34.5z" />
    <glyph glyph-name="o" unicode="o" horiz-adv-x="538" 
d="M35 266q0 112 63 192t171 80t171 -80t63 -192t-63 -192t-171 -80t-171 80t-63 192zM123 266q0 -78 36 -137t110 -59t110 59t36 137t-36 137t-110 59t-110 -59t-36 -137z" />
    <glyph glyph-name="p" unicode="p" horiz-adv-x="556" 
d="M141 266q0 -78 36 -137t110 -59t110 59t36 137t-36 137t-110 59t-110 -59t-36 -137zM62 -169v660q0 22 12 34.5t32 12.5t32 -12.5t12 -34.5v-26h2q38 73 142 73t165.5 -80t61.5 -192t-61.5 -192t-165.5 -80q-48 0 -85 21.5t-57 50.5h-2v-235q0 -22 -12 -34.5t-32 -12.5
t-32 12.5t-12 34.5z" />
    <glyph glyph-name="q" unicode="q" horiz-adv-x="556" 
d="M415 266q0 78 -36 137t-110 59t-110 -59t-36 -137t36 -137t110 -59t110 59t36 137zM35 266q0 112 61.5 192t165.5 80t142 -73h2v26q0 22 12 34.5t32 12.5t32 -12.5t12 -34.5v-660q0 -22 -12 -34.5t-32 -12.5t-32 12.5t-12 34.5v235h-2q-20 -29 -57 -50.5t-85 -21.5
q-104 0 -165.5 80t-61.5 192z" />
    <glyph glyph-name="r" unicode="r" horiz-adv-x="315" 
d="M58 41v450q0 22 12 34.5t32 12.5t32 -12.5t12 -34.5v-45h2q17 35 51 63.5t69 28.5q23 0 36 -13t13 -32q0 -38 -55 -48q-47 -8 -81.5 -44.5t-34.5 -106.5v-253q0 -22 -12 -34.5t-32 -12.5t-32 12.5t-12 34.5z" />
    <glyph glyph-name="s" unicode="s" horiz-adv-x="444" 
d="M46 388q0 69 54.5 109.5t126.5 40.5q60 0 118.5 -27.5t58.5 -66.5q0 -15 -10.5 -25.5t-29.5 -10.5q-15 0 -32 13.5t-43 27t-62 13.5q-40 0 -66.5 -17.5t-26.5 -49.5q0 -25 29.5 -45t71 -35t83 -33t71 -49.5t29.5 -74.5q0 -79 -57 -121.5t-137 -42.5t-140 32.5t-60 68.5
q0 18 10.5 29t25.5 11t37 -16.5t55 -32.5t75 -16q46 0 74.5 21.5t28.5 50.5q0 28 -29.5 50.5t-71 39t-83 35t-71 49.5t-29.5 72z" />
    <glyph glyph-name="t" unicode="t" horiz-adv-x="260" 
d="M86 532v115q0 22 12 34.5t32 12.5t32 -12.5t12 -34.5v-115h36q44 0 44 -38t-44 -38h-36v-415q0 -22 -12 -34.5t-32 -12.5t-32 12.5t-12 34.5v415h-36q-44 0 -44 38t44 38h36z" />
    <glyph glyph-name="u" unicode="u" horiz-adv-x="538" 
d="M58 206v285q0 22 12 34.5t32 12.5t32 -12.5t12 -34.5v-282q0 -139 123 -139t123 139v282q0 22 12 34.5t32 12.5t32 -12.5t12 -34.5v-285q0 -109 -60.5 -160.5t-150.5 -51.5t-150.5 51.5t-60.5 160.5z" />
    <glyph glyph-name="v" unicode="v" horiz-adv-x="426" 
d="M167 32l-153 429q-9 24 -9 36q0 19 11.5 30t28.5 11q34 0 46 -34l121 -368h2l121 368q12 34 46 34q17 0 28.5 -11t11.5 -30q0 -12 -9 -36l-153 -429q-7 -21 -16.5 -29.5t-29.5 -8.5t-29.5 8.5t-16.5 29.5z" />
    <glyph glyph-name="w" unicode="w" horiz-adv-x="742" 
d="M155 40l-146 425q-7 23 -7 34q0 15 10.5 27t31.5 12q35 0 49 -45l113 -363h2l111 350q10 33 20 45.5t32 12.5t32 -12.5t20 -45.5l111 -350h2l113 363q14 45 49 45q21 0 31.5 -12t10.5 -27q0 -11 -7 -34l-146 -425q-16 -46 -51 -46t-50 46l-114 359h-2l-114 -359
q-15 -46 -50 -46t-51 46z" />
    <glyph glyph-name="x" unicode="x" horiz-adv-x="464" 
d="M24 76l157 206l-138 181q-15 19 -15 35q0 17 10.5 28.5t26.5 11.5q22 0 38 -20l129 -172l129 172q16 20 38 20q16 0 26.5 -11.5t10.5 -28.5q0 -16 -15 -35l-138 -181l157 -206q18 -24 18 -42q0 -17 -11.5 -28.5t-28.5 -11.5q-25 0 -39 20l-147 204l-147 -204
q-14 -20 -39 -20q-17 0 -28.5 11.5t-11.5 28.5q0 18 18 42z" />
    <glyph glyph-name="y" unicode="y" horiz-adv-x="444" 
d="M179 19l-150 433q-12 36 -12 49q0 16 12 26.5t28 10.5q34 0 44 -33l122 -365h2l120 365q10 33 42 33q16 0 28 -10.5t12 -26.5q0 -13 -12 -49l-222 -635q-12 -33 -43 -33q-16 0 -28 10.5t-12 26.5q0 14 13 49z" />
    <glyph glyph-name="z" unicode="z" horiz-adv-x="444" 
d="M141 76h239q44 0 44 -38t-44 -38h-317q-43 0 -43 31q0 19 18 45l254 380h-218q-44 0 -44 38t44 38h296q43 0 43 -31q0 -19 -18 -45l-257 -378z" />
    <glyph glyph-name="braceleft" unicode="{" horiz-adv-x="241" 
d="M76 26v122q0 34 -1 49.5t-5 36t-14 31t-27 15.5q-25 7 -34.5 14.5t-9.5 23.5t10 24t34 14q17 4 27 14.5t14 31t5 36.5t1 50v122q0 108 102 108h38q40 0 40 -30t-40 -30h-14q-20 0 -32 -13t-12 -35v-158q0 -123 -91 -133v-2q91 -10 91 -133v-158q0 -22 12 -35t32 -13h14
q40 0 40 -30t-40 -30h-38q-102 0 -102 108z" />
    <glyph glyph-name="bar" unicode="|" horiz-adv-x="222" 
d="M70 -250v1000q0 43 41 43t41 -43v-1000q0 -43 -41 -43t-41 43z" />
    <glyph glyph-name="braceright" unicode="}" horiz-adv-x="241" 
d="M165 610v-122q0 -34 1 -49.5t5 -36t14 -31t27 -15.5q25 -7 34.5 -14.5t9.5 -23.5t-10 -24t-34 -14q-17 -4 -27 -14.5t-14 -31t-5 -36.5t-1 -50v-122q0 -108 -102 -108h-38q-40 0 -40 30t40 30h14q20 0 32 13t12 35v158q0 123 91 133v2q-91 10 -91 133v158q0 22 -12 35
t-32 13h-14q-40 0 -40 30t40 30h38q102 0 102 -108z" />
    <glyph glyph-name="asciitilde" unicode="~" horiz-adv-x="600" 
d="M64 210q0 42 41.5 78.5t88.5 36.5q48 0 118 -34q68 -34 91 -34q21 0 47 34.5t51 33.5q15 -1 25 -9.5t10 -19.5q0 -42 -41.5 -78.5t-88.5 -36.5q-48 0 -118 34q-68 34 -91 34q-21 0 -47 -34.5t-51 -33.5q-15 1 -25 9.5t-10 19.5z" />
    <glyph glyph-name="uni00A0" unicode="&#xa0;" horiz-adv-x="244" 
 />
    <glyph glyph-name="exclamdown" unicode="&#xa1;" horiz-adv-x="296" 
d="M192 294v-433q0 -22 -12 -34.5t-32 -12.5t-32 12.5t-12 34.5v433q0 22 12 34.5t32 12.5t32 -12.5t12 -34.5zM199 487q0 -21 -15 -36t-36 -15t-36 15t-15 36t15 36t36 15t36 -15t15 -36z" />
    <glyph glyph-name="cent" unicode="&#xa2;" horiz-adv-x="444" 
d="M227 -60v59q-93 16 -142.5 91t-49.5 176t49.5 176.5t142.5 91.5v58q0 21 21 21t21 -21v-54q69 0 109 -19.5t40 -47.5q0 -14 -10.5 -25.5t-25.5 -11.5q-13 0 -44.5 14t-68.5 14v-392q39 0 71 15t41 15q34 0 34 -37q0 -27 -39 -48t-107 -21v-54q0 -21 -21 -21t-21 21z
M227 79v375q-52 -19 -78 -72.5t-26 -115.5t26 -115.5t78 -71.5z" />
    <glyph glyph-name="sterling" unicode="&#xa3;" horiz-adv-x="593" 
d="M242 398h129q43 0 43 -41t-43 -41h-109q7 -40 7 -66q0 -37 -23.5 -85t-62.5 -83h337q43 0 43 -41t-43 -41h-400q-53 0 -53 42q0 14 18 34.5t39 41t39 57t18 76.5q0 39 -7 65h-101q-43 0 -43 41t43 41h77q-49 88 -49 143q0 77 64.5 127t151.5 50t158 -58t71 -119
q0 -20 -11.5 -31.5t-30.5 -11.5q-18 0 -29.5 14t-21 34.5t-22.5 41t-41.5 34.5t-71.5 14q-52 0 -90.5 -27t-38.5 -74q0 -19 6 -39t11 -31.5t18.5 -35.5t17.5 -31z" />
    <glyph glyph-name="currency" unicode="&#xa4;" horiz-adv-x="536" 
d="M35 172l34 35q-49 55 -49 149t49 149l-34 35q-14 14 -14 28q0 15 11.5 25.5t22.5 10.5q10 0 21 -11l42 -43q57 54 150 54t150 -54l42 43q11 11 21 11q11 0 22.5 -10.5t11.5 -25.5q0 -14 -14 -28l-34 -35q49 -55 49 -149t-49 -149l34 -35q14 -14 14 -28q0 -15 -11.5 -25.5
t-22.5 -10.5q-10 0 -21 11l-42 43q-57 -54 -150 -54t-150 54l-42 -43q-11 -11 -21 -11q-11 0 -22.5 10.5t-11.5 25.5q0 14 14 28zM102 356q0 -75 49 -123.5t117 -48.5t117 48.5t49 123.5t-49 123.5t-117 48.5t-117 -48.5t-49 -123.5z" />
    <glyph glyph-name="yen" unicode="&#xa5;" horiz-adv-x="536" 
d="M224 261v71h-137q-41 0 -41 33t41 33h96l-160 247q-15 23 -15 40q0 14 11 23.5t24 9.5q27 0 46 -28l179 -269l179 269q19 28 46 28q13 0 24 -9.5t11 -23.5q0 -17 -15 -40l-160 -247h96q41 0 41 -33t-41 -33h-137v-71h137q41 0 41 -33t-41 -33h-137v-154q0 -22 -12 -34.5
t-32 -12.5t-32 12.5t-12 34.5v154h-137q-41 0 -41 33t41 33h137z" />
    <glyph glyph-name="brokenbar" unicode="&#xa6;" horiz-adv-x="222" 
d="M70 368v264q0 43 41 43t41 -43v-264q0 -43 -41 -43t-41 43zM70 -132v264q0 43 41 43t41 -43v-264q0 -43 -41 -43t-41 43z" />
    <glyph glyph-name="section" unicode="&#xa7;" horiz-adv-x="556" 
d="M85 554q0 77 58 120.5t153 43.5q86 0 145.5 -48t59.5 -103q0 -19 -10.5 -32.5t-29.5 -13.5q-17 0 -28.5 12.5t-20 30.5t-20 35.5t-37.5 30t-65 12.5q-50 0 -83.5 -22.5t-33.5 -61.5q0 -35 36.5 -62.5t88.5 -48.5t104.5 -46.5t89 -70t36.5 -104.5q0 -49 -30.5 -95.5
t-78.5 -73.5q65 -44 65 -118q0 -70 -64.5 -113t-145.5 -42q-53 1 -98.5 17t-72 39t-41 46.5t-14.5 41.5q0 50 44 50q18 0 30 -12t21 -29.5t22 -35t40 -29.5t67 -12q58 0 91 23t33 57q0 30 -27.5 54.5t-68 40.5t-88.5 38t-88.5 45t-68 62.5t-27.5 89.5q0 62 31.5 101.5
t90.5 69.5q-36 26 -50.5 51t-14.5 62zM116 277q0 -37 30 -64.5t94 -59.5l114 -56q51 38 68.5 66.5t17.5 59.5q0 37 -17 63t-72 51l-125 58q-52 -22 -81 -49t-29 -69z" />
    <glyph glyph-name="dieresis" unicode="&#xa8;" 
d="M-45 658q0 22 15.5 38t38.5 16t38.5 -16t15.5 -38t-15.5 -38t-38.5 -16t-38.5 16t-15.5 38zM141 658q0 22 15.5 38t38.5 16t38.5 -16t15.5 -38t-15.5 -38t-38.5 -16t-38.5 16t-15.5 38z" />
    <glyph glyph-name="copyright" unicode="&#xa9;" horiz-adv-x="800" 
d="M272 358q0 -64 36 -109.5t94 -45.5q30 0 51.5 9.5t33.5 23t21 27t19 23t22 9.5q32 0 32 -28q0 -35 -49.5 -82.5t-129.5 -47.5q-94 0 -153 63.5t-59 157.5q0 96 58 158.5t154 62.5q83 0 131 -45t48 -82q0 -28 -33 -28q-17 0 -30.5 14t-22.5 30.5t-33 30.5t-60 14
q-62 0 -96 -43t-34 -112zM400 -6q-150 0 -256 106t-106 256t106 256t256 106t256 -106t106 -256t-106 -256t-256 -106zM400 70q114 0 197 84t83 202t-83 202t-197 84t-197 -84t-83 -202t83 -202t197 -84z" />
    <glyph glyph-name="ordfeminine" unicode="&#xaa;" horiz-adv-x="361" 
d="M332 692v-275q0 -26 -33 -26t-33 26v16h-2q-31 -42 -83 -42q-68 0 -110 46.5t-42 117.5q0 70 42 116.5t110 46.5q52 0 83 -42h2v16q0 26 33 26t33 -26zM184 451q37 0 60 30.5t23 73.5q0 42 -23 72.5t-60 30.5t-60 -30.5t-23 -72.5q0 -43 23 -73.5t60 -30.5z" />
    <glyph glyph-name="guillemotleft" unicode="&#xab;" horiz-adv-x="407" 
d="M196 268l99 178q15 26 34 26q16 0 28 -9t12 -26q0 -12 -11 -31l-83 -138l83 -138q11 -19 11 -31q0 -17 -12 -26t-28 -9q-19 0 -34 26zM38 268l99 178q15 26 34 26q16 0 28 -9t12 -26q0 -12 -11 -31l-83 -138l83 -138q11 -19 11 -31q0 -17 -12 -26t-28 -9q-19 0 -34 26z
" />
    <glyph glyph-name="logicalnot" unicode="&#xac;" horiz-adv-x="600" 
d="M471 316h-381q-43 0 -43 41t43 41h422q41 0 41 -43v-204q0 -43 -41 -43t-41 43v165z" />
    <glyph glyph-name="uni00AD" unicode="&#xad;" horiz-adv-x="352" 
d="M279 230h-206q-16 0 -27 11t-11 27t11 27t27 11h206q16 0 27 -11t11 -27t-11 -27t-27 -11z" />
    <glyph glyph-name="registered" unicode="&#xae;" horiz-adv-x="400" 
d="M190 519h-32v-71q0 -16 -16 -16q-17 0 -17 16v179q0 11 12 11h66q39 0 57 -13.5t18 -46.5q0 -52 -51 -57l44 -68q5 -7 5 -13q0 -8 -18 -8q-13 0 -20 11zM158 549h38q16 0 25 1.5t16.5 9t7.5 21.5q0 27 -46 27h-41v-59zM200 356q-75 0 -128 53t-53 128t53 128t128 53
t128 -53t53 -128t-53 -128t-128 -53zM200 394q57 0 98.5 42t41.5 101t-41.5 101t-98.5 42t-98.5 -42t-41.5 -101t41.5 -101t98.5 -42z" />
    <glyph glyph-name="macron" unicode="&#xaf;" 
d="M1 689h202q43 0 43 -41t-43 -41h-202q-43 0 -43 41t43 41z" />
    <glyph glyph-name="degree" unicode="&#xb0;" horiz-adv-x="400" 
d="M57 575q0 59 42 101t101 42t101 -42t42 -101t-42 -101t-101 -42t-101 42t-42 101zM111 575q0 -37 26 -63t63 -26t63 26t26 63t-26 63t-63 26t-63 -26t-26 -63z" />
    <glyph glyph-name="plusminus" unicode="&#xb1;" horiz-adv-x="600" 
d="M259 353v110q0 43 41 43t41 -43v-110h169q43 0 43 -41t-43 -41h-169v-110q0 -43 -41 -43t-41 43v110h-169q-43 0 -43 41t43 41h169zM510 0h-420q-43 0 -43 41t43 41h420q43 0 43 -41t-43 -41z" />
    <glyph glyph-name="twosuperior" unicode="&#xb2;" horiz-adv-x="348" 
d="M131 351h148q38 0 38 -30t-38 -30h-218q-15 0 -22.5 6.5t-7.5 14.5t12 23l171 217q26 33 26 56t-17.5 36.5t-46.5 13.5q-36 0 -60 -26.5t-24 -55.5q0 -24 -29 -24q-31 0 -31 33q0 55 39.5 94t108.5 39q63 0 97.5 -31t34.5 -77q0 -40 -36 -84z" />
    <glyph glyph-name="threesuperior" unicode="&#xb3;" horiz-adv-x="348" 
d="M164 718q61 0 95.5 -31.5t34.5 -78.5q0 -61 -55 -91q38 -11 58.5 -38.5t20.5 -64.5q0 -59 -44.5 -94t-110.5 -35q-61 0 -97 33t-36 72q0 32 28 32q18 0 29 -25q24 -52 81 -52q32 0 55 22t23 54q0 63 -67 63q-28 0 -37 6.5t-9 18.5q0 13 6.5 19t23.5 10q32 7 45.5 23
t13.5 44q0 21 -17 37t-44 16q-29 0 -45 -14.5t-20 -34.5q-3 -23 -29 -23q-25 0 -25 28q0 45 32.5 74.5t89.5 29.5z" />
    <glyph glyph-name="acute" unicode="&#xb4;" 
d="M178 663l-115 -47q-22 -9 -34 -9q-18 0 -28 14t-10 28q0 23 35 37l115 47q22 9 34 9q18 0 28 -14t10 -28q0 -23 -35 -37z" />
    <glyph glyph-name="mu" unicode="&#xb5;" horiz-adv-x="538" 
d="M58 -169v660q0 22 12 34.5t32 12.5t32 -12.5t12 -34.5v-282q0 -75 27.5 -107t95.5 -32t95.5 32t27.5 107v282q0 22 12 34.5t32 12.5t32 -12.5t12 -34.5v-450q0 -22 -12 -34.5t-32 -12.5q-33 0 -41 29q-48 -29 -126 -29q-81 0 -123 46v-209q0 -22 -12 -34.5t-32 -12.5
t-32 12.5t-12 34.5z" />
    <glyph glyph-name="paragraph" unicode="&#xb6;" horiz-adv-x="600" 
d="M242 -173v517q-96 0 -155 51.5t-59 133.5q0 83 65.5 133t189.5 50h191q47 0 47 -48v-837q0 -43 -41 -43t-41 43v819h-115v-819q0 -43 -41 -43t-41 43z" />
    <glyph glyph-name="periodcentered" unicode="&#xb7;" horiz-adv-x="250" 
d="M71 303q0 23 15.5 38.5t38.5 15.5t38.5 -15.5t15.5 -38.5t-15.5 -38.5t-38.5 -15.5t-38.5 15.5t-15.5 38.5z" />
    <glyph glyph-name="cedilla" unicode="&#xb8;" 
d="M183 0l-29 -42q15 3 21 3q31 0 50 -18t19 -37q0 -44 -30 -65t-81 -21q-32 0 -52.5 9.5t-20.5 25.5q0 11 5.5 19t15.5 8q6 0 24 -4t28 -4q35 0 35 27q0 12 -9 15t-35 3q-11 0 -18.5 4t-9.5 8t-2 7q0 10 10 25l26 37h53z" />
    <glyph glyph-name="onesuperior" unicode="&#xb9;" horiz-adv-x="229" 
d="M87 652h-51q-28 0 -28 30t28 30h104q19 0 19 -14v-377q0 -36 -36 -36q-15 0 -25.5 9t-10.5 27v331z" />
    <glyph glyph-name="ordmasculine" unicode="&#xba;" horiz-adv-x="350" 
d="M23 555q0 70 42 116.5t110 46.5t110 -46.5t42 -116.5q0 -71 -41.5 -117.5t-110.5 -46.5q-68 0 -110 46.5t-42 117.5zM95 555q0 -43 22.5 -73.5t57.5 -30.5t57.5 30.5t22.5 73.5q0 42 -22.5 72.5t-57.5 30.5t-57.5 -30.5t-22.5 -72.5z" />
    <glyph glyph-name="guillemotright" unicode="&#xbb;" horiz-adv-x="407" 
d="M49 130l83 138l-83 138q-11 19 -11 31q0 17 12 26t28 9q19 0 34 -26l99 -178l-99 -178q-15 -26 -34 -26q-16 0 -28 9t-12 26q0 12 11 31zM207 130l83 138l-83 138q-11 19 -11 31q0 17 12 26t28 9q19 0 34 -26l99 -178l-99 -178q-15 -26 -34 -26q-16 0 -28 9t-12 26
q0 12 11 31z" />
    <glyph glyph-name="onequarter" unicode="&#xbc;" horiz-adv-x="805" 
d="M202 58l266 638q13 30 35 30q17 0 26 -8.5t9 -18.5q0 -12 -14 -45l-266 -638q-13 -30 -37 -30q-15 0 -24 8t-9 19t14 45zM115 652h-51q-28 0 -28 30t28 30h104q19 0 19 -14v-377q0 -36 -36 -36q-15 0 -25.5 9t-10.5 27v331zM646 97h-178q-23 0 -23 24q0 13 14 35l159 239
q20 32 50 32q50 0 50 -44v-226h24q12 0 19.5 -8.5t7.5 -21.5t-7.5 -21.5t-19.5 -8.5h-24v-72q0 -31 -36 -31t-36 31v72zM528 157h118v198h-2z" />
    <glyph glyph-name="onehalf" unicode="&#xbd;" horiz-adv-x="805" 
d="M187 58l266 638q13 30 35 30q17 0 26 -8.5t9 -18.5q0 -12 -14 -45l-266 -638q-13 -30 -37 -30q-15 0 -24 8t-9 19t14 45zM130 652h-51q-28 0 -28 30t28 30h104q19 0 19 -14v-377q0 -36 -36 -36q-15 0 -25.5 9t-10.5 27v331zM568 60h148q38 0 38 -30t-38 -30h-218
q-15 0 -22.5 6.5t-7.5 14.5t12 23l171 217q26 33 26 56t-17.5 36.5t-46.5 13.5q-36 0 -60 -26.5t-24 -55.5q0 -24 -29 -24q-31 0 -31 33q0 55 39.5 94t108.5 39q63 0 97.5 -31t34.5 -77q0 -41 -36 -84z" />
    <glyph glyph-name="threequarters" unicode="&#xbe;" horiz-adv-x="805" 
d="M259 58l266 638q13 30 35 30q17 0 26 -8.5t9 -18.5q0 -12 -14 -45l-266 -638q-13 -30 -37 -30q-15 0 -24 8t-9 19t14 45zM173 718q61 0 95.5 -31.5t34.5 -78.5q0 -61 -55 -91q38 -11 58.5 -38.5t20.5 -64.5q0 -59 -44.5 -94t-110.5 -35q-61 0 -97 33t-36 72q0 32 28 32
q18 0 29 -25q24 -52 81 -52q32 0 55 22t23 54q0 63 -67 63q-28 0 -37 6.5t-9 18.5q0 13 6.5 19t23.5 10q32 7 45.5 23t13.5 44q0 21 -17 37t-44 16q-29 0 -45 -14.5t-20 -34.5q-3 -23 -29 -23q-25 0 -25 28q0 45 32.5 74.5t89.5 29.5zM643 97h-178q-23 0 -23 24q0 13 14 35
l159 239q20 32 50 32q50 0 50 -44v-226h24q12 0 19.5 -8.5t7.5 -21.5t-7.5 -21.5t-19.5 -8.5h-24v-72q0 -31 -36 -31t-36 31v72zM525 157h118v198h-2z" />
    <glyph glyph-name="questiondown" unicode="&#xbf;" horiz-adv-x="444" 
d="M186 194v100q0 22 12 34.5t32 12.5t32 -12.5t12 -34.5v-113q0 -35 -10 -46t-60 -21q-92 -19 -92 -108q0 -50 32.5 -80t83.5 -30q87 0 116 82q11 33 39 33q18 0 31 -13t12 -33q-3 -64 -62.5 -107.5t-132.5 -43.5q-91 0 -152 52.5t-61 131.5t45.5 129.5t122.5 66.5z
M281 487q0 -21 -15 -36t-36 -15t-36 15t-15 36t15 36t36 15t36 -15t15 -36z" />
    <glyph glyph-name="Agrave" unicode="&#xc0;" horiz-adv-x="612" 
d="M141 155l-46 -128q-12 -33 -43 -33q-18 0 -30 10t-12 27q0 8 12 44l221 589q19 54 63 54t63 -54l221 -589q12 -36 12 -44q0 -17 -12 -27t-30 -10q-31 0 -43 33l-46 128h-330zM444 231l-137 385h-2l-137 -385h276zM345 776l-115 47q-35 14 -35 37q0 14 10 28t28 14
q12 0 34 -9l115 -47q35 -14 35 -37q0 -14 -10 -28t-28 -14q-12 0 -34 9z" />
    <glyph glyph-name="Aacute" unicode="&#xc1;" horiz-adv-x="612" 
d="M141 155l-46 -128q-12 -33 -43 -33q-18 0 -30 10t-12 27q0 8 12 44l221 589q19 54 63 54t63 -54l221 -589q12 -36 12 -44q0 -17 -12 -27t-30 -10q-31 0 -43 33l-46 128h-330zM444 231l-137 385h-2l-137 -385h276zM382 823l-115 -47q-22 -9 -34 -9q-18 0 -28 14t-10 28
q0 23 35 37l115 47q22 9 34 9q18 0 28 -14t10 -28q0 -23 -35 -37z" />
    <glyph glyph-name="Acircumflex" unicode="&#xc2;" horiz-adv-x="612" 
d="M141 155l-46 -128q-12 -33 -43 -33q-18 0 -30 10t-12 27q0 8 12 44l221 589q19 54 63 54t63 -54l221 -589q12 -36 12 -44q0 -17 -12 -27t-30 -10q-31 0 -43 33l-46 128h-330zM444 231l-137 385h-2l-137 -385h276zM177 840l129 55l129 -55q23 -10 23 -35q0 -16 -10 -27
t-26 -11q-11 0 -22 5l-94 37l-94 -37q-11 -5 -22 -5q-16 0 -26 11t-10 27q0 25 23 35z" />
    <glyph glyph-name="Atilde" unicode="&#xc3;" horiz-adv-x="612" 
d="M141 155l-46 -128q-12 -33 -43 -33q-18 0 -30 10t-12 27q0 8 12 44l221 589q19 54 63 54t63 -54l221 -589q12 -36 12 -44q0 -17 -12 -27t-30 -10q-31 0 -43 33l-46 128h-330zM444 231l-137 385h-2l-137 -385h276zM157 815q0 24 26.5 43.5t66.5 19.5q24 0 57.5 -10
t52.5 -10q15 0 33 10t29 10q12 0 22.5 -12t10.5 -27q0 -24 -26.5 -43.5t-66.5 -19.5q-24 0 -57.5 10t-52.5 10q-15 0 -33 -10t-29 -10q-12 0 -22.5 12t-10.5 27z" />
    <glyph glyph-name="Adieresis" unicode="&#xc4;" horiz-adv-x="612" 
d="M141 155l-46 -128q-12 -33 -43 -33q-18 0 -30 10t-12 27q0 8 12 44l221 589q19 54 63 54t63 -54l221 -589q12 -36 12 -44q0 -17 -12 -27t-30 -10q-31 0 -43 33l-46 128h-330zM444 231l-137 385h-2l-137 -385h276zM159 818q0 22 15.5 38t38.5 16t38.5 -16t15.5 -38
t-15.5 -38t-38.5 -16t-38.5 16t-15.5 38zM345 818q0 22 15.5 38t38.5 16t38.5 -16t15.5 -38t-15.5 -38t-38.5 -16t-38.5 16t-15.5 38z" />
    <glyph glyph-name="Aring" unicode="&#xc5;" horiz-adv-x="612" 
d="M141 155l-46 -128q-12 -33 -43 -33q-18 0 -30 10t-12 27q0 8 12 44l221 589q19 54 63 54t63 -54l221 -589q12 -36 12 -44q0 -17 -12 -27t-30 -10q-31 0 -43 33l-46 128h-330zM444 231l-137 385h-2l-137 -385h276zM212 828q0 39 27.5 66.5t66.5 27.5t66.5 -27.5
t27.5 -66.5t-27.5 -66.5t-66.5 -27.5t-66.5 27.5t-27.5 66.5zM260 828q0 -19 13.5 -32.5t32.5 -13.5t32.5 13.5t13.5 32.5t-13.5 32.5t-32.5 13.5t-32.5 -13.5t-13.5 -32.5z" />
    <glyph glyph-name="AE" unicode="&#xc6;" horiz-adv-x="759" 
d="M461 315v-233h212q43 0 43 -41t-43 -41h-253q-47 0 -47 48v107h-231l-68 -133q-13 -28 -42 -28q-18 0 -29.5 9.5t-11.5 22.5q0 15 13 41l311 607q13 25 24.5 31.5t36.5 6.5h287q43 0 43 -41t-43 -41h-202v-233h193q43 0 43 -41t-43 -41h-193zM373 231v379h-2l-191 -379
h193z" />
    <glyph glyph-name="Ccedilla" unicode="&#xc7;" horiz-adv-x="593" 
d="M359 -5l-25 -37q15 3 21 3q31 0 50 -18t19 -37q0 -44 -30 -65t-81 -21q-32 0 -52.5 9.5t-20.5 25.5q0 11 5.5 19t15.5 8q6 0 24 -4t28 -4q35 0 35 27q0 12 -9 15t-35 3q-11 0 -18.5 4t-9.5 8t-2 7q0 10 10 25l23 33q-130 14 -203 117.5t-73 242.5q0 71 20.5 135t58.5 115
t100 81.5t138 30.5q86 0 146 -36t60 -68q0 -18 -10 -30t-26 -12q-15 0 -35 17.5t-53.5 35t-81.5 17.5q-57 0 -101 -25t-70 -67t-39 -91.5t-13 -102.5q0 -114 56.5 -200t161.5 -86q47 0 86.5 16t65.5 32t39 16q16 0 25.5 -11t9.5 -30q0 -34 -62.5 -64.5t-147.5 -33.5z" />
    <glyph glyph-name="Egrave" unicode="&#xc8;" horiz-adv-x="444" 
d="M146 315v-233h212q43 0 43 -41t-43 -41h-253q-47 0 -47 48v616q0 48 47 48h253q43 0 43 -41t-43 -41h-212v-233h193q43 0 43 -41t-43 -41h-193zM261 776l-115 47q-35 14 -35 37q0 14 10 28t28 14q12 0 34 -9l115 -47q35 -14 35 -37q0 -14 -10 -28t-28 -14q-12 0 -34 9z
" />
    <glyph glyph-name="Eacute" unicode="&#xc9;" horiz-adv-x="444" 
d="M146 315v-233h212q43 0 43 -41t-43 -41h-253q-47 0 -47 48v616q0 48 47 48h253q43 0 43 -41t-43 -41h-212v-233h193q43 0 43 -41t-43 -41h-193zM298 823l-115 -47q-22 -9 -34 -9q-18 0 -28 14t-10 28q0 23 35 37l115 47q22 9 34 9q18 0 28 -14t10 -28q0 -23 -35 -37z" />
    <glyph glyph-name="Ecircumflex" unicode="&#xca;" horiz-adv-x="444" 
d="M146 315v-233h212q43 0 43 -41t-43 -41h-253q-47 0 -47 48v616q0 48 47 48h253q43 0 43 -41t-43 -41h-212v-233h193q43 0 43 -41t-43 -41h-193zM93 840l129 55l129 -55q23 -10 23 -35q0 -16 -10 -27t-26 -11q-11 0 -22 5l-94 37l-94 -37q-11 -5 -22 -5q-16 0 -26 11
t-10 27q0 25 23 35z" />
    <glyph glyph-name="Edieresis" unicode="&#xcb;" horiz-adv-x="444" 
d="M146 315v-233h212q43 0 43 -41t-43 -41h-253q-47 0 -47 48v616q0 48 47 48h253q43 0 43 -41t-43 -41h-212v-233h193q43 0 43 -41t-43 -41h-193zM75 818q0 22 15.5 38t38.5 16t38.5 -16t15.5 -38t-15.5 -38t-38.5 -16t-38.5 16t-15.5 38zM261 818q0 22 15.5 38t38.5 16
t38.5 -16t15.5 -38t-15.5 -38t-38.5 -16t-38.5 16t-15.5 38z" />
    <glyph glyph-name="Igrave" unicode="&#xcc;" 
d="M146 671v-630q0 -22 -12 -34.5t-32 -12.5t-32 12.5t-12 34.5v630q0 22 12 34.5t32 12.5t32 -12.5t12 -34.5zM141 776l-115 47q-35 14 -35 37q0 14 10 28t28 14q12 0 34 -9l115 -47q35 -14 35 -37q0 -14 -10 -28t-28 -14q-12 0 -34 9z" />
    <glyph glyph-name="Iacute" unicode="&#xcd;" 
d="M146 671v-630q0 -22 -12 -34.5t-32 -12.5t-32 12.5t-12 34.5v630q0 22 12 34.5t32 12.5t32 -12.5t12 -34.5zM178 823l-115 -47q-22 -9 -34 -9q-18 0 -28 14t-10 28q0 23 35 37l115 47q22 9 34 9q18 0 28 -14t10 -28q0 -23 -35 -37z" />
    <glyph glyph-name="Icircumflex" unicode="&#xce;" 
d="M146 671v-630q0 -22 -12 -34.5t-32 -12.5t-32 12.5t-12 34.5v630q0 22 12 34.5t32 12.5t32 -12.5t12 -34.5zM-27 840l129 55l129 -55q23 -10 23 -35q0 -16 -10 -27t-26 -11q-11 0 -22 5l-94 37l-94 -37q-11 -5 -22 -5q-16 0 -26 11t-10 27q0 25 23 35z" />
    <glyph glyph-name="Idieresis" unicode="&#xcf;" 
d="M146 671v-630q0 -22 -12 -34.5t-32 -12.5t-32 12.5t-12 34.5v630q0 22 12 34.5t32 12.5t32 -12.5t12 -34.5zM-45 818q0 22 15.5 38t38.5 16t38.5 -16t15.5 -38t-15.5 -38t-38.5 -16t-38.5 16t-15.5 38zM141 818q0 22 15.5 38t38.5 16t38.5 -16t15.5 -38t-15.5 -38
t-38.5 -16t-38.5 16t-15.5 38z" />
    <glyph glyph-name="Eth" unicode="&#xd0;" horiz-adv-x="630" 
d="M63 48v273h-38q-19 0 -31 10t-12 28t12 28t31 10h38v267q0 48 47 48h173q102 0 175 -49.5t107 -127.5t34 -175q0 -162 -81.5 -261t-222.5 -99h-185q-47 0 -47 48zM151 321v-245h126q60 0 105.5 23.5t71.5 64.5t38.5 90t12.5 106q0 120 -58 198t-176 78h-120v-239h120
q19 0 31 -10t12 -28t-12 -28t-31 -10h-120z" />
    <glyph glyph-name="Ntilde" unicode="&#xd1;" horiz-adv-x="668" 
d="M146 557v-516q0 -22 -12 -34.5t-32 -12.5t-32 12.5t-12 34.5v625q0 52 40 52q19 0 31 -9.5t31 -36.5l360 -517h2v516q0 22 12 34.5t32 12.5t32 -12.5t12 -34.5v-625q0 -52 -40 -52q-19 0 -31 9.5t-31 36.5l-360 517h-2zM185 815q0 24 26.5 43.5t66.5 19.5q24 0 57.5 -10
t52.5 -10q15 0 33 10t29 10q12 0 22.5 -12t10.5 -27q0 -24 -26.5 -43.5t-66.5 -19.5q-24 0 -57.5 10t-52.5 10q-15 0 -33 -10t-29 -10q-12 0 -22.5 12t-10.5 27z" />
    <glyph glyph-name="Ograve" unicode="&#xd2;" horiz-adv-x="686" 
d="M125 356q0 -73 20 -135t71 -106.5t127 -44.5t127 44.5t71 106.5t20 135t-20 135t-71 106.5t-127 44.5t-127 -44.5t-71 -106.5t-20 -135zM31 356q0 95 34.5 176t107.5 133.5t170 52.5t170 -52.5t107.5 -133.5t34.5 -176t-34.5 -176t-107.5 -133.5t-170 -52.5t-170 52.5
t-107.5 133.5t-34.5 176zM382 776l-115 47q-35 14 -35 37q0 14 10 28t28 14q12 0 34 -9l115 -47q35 -14 35 -37q0 -14 -10 -28t-28 -14q-12 0 -34 9z" />
    <glyph glyph-name="Oacute" unicode="&#xd3;" horiz-adv-x="686" 
d="M125 356q0 -73 20 -135t71 -106.5t127 -44.5t127 44.5t71 106.5t20 135t-20 135t-71 106.5t-127 44.5t-127 -44.5t-71 -106.5t-20 -135zM31 356q0 95 34.5 176t107.5 133.5t170 52.5t170 -52.5t107.5 -133.5t34.5 -176t-34.5 -176t-107.5 -133.5t-170 -52.5t-170 52.5
t-107.5 133.5t-34.5 176zM419 823l-115 -47q-22 -9 -34 -9q-18 0 -28 14t-10 28q0 23 35 37l115 47q22 9 34 9q18 0 28 -14t10 -28q0 -23 -35 -37z" />
    <glyph glyph-name="Ocircumflex" unicode="&#xd4;" horiz-adv-x="686" 
d="M125 356q0 -73 20 -135t71 -106.5t127 -44.5t127 44.5t71 106.5t20 135t-20 135t-71 106.5t-127 44.5t-127 -44.5t-71 -106.5t-20 -135zM31 356q0 95 34.5 176t107.5 133.5t170 52.5t170 -52.5t107.5 -133.5t34.5 -176t-34.5 -176t-107.5 -133.5t-170 -52.5t-170 52.5
t-107.5 133.5t-34.5 176zM214 840l129 55l129 -55q23 -10 23 -35q0 -16 -10 -27t-26 -11q-11 0 -22 5l-94 37l-94 -37q-11 -5 -22 -5q-16 0 -26 11t-10 27q0 25 23 35z" />
    <glyph glyph-name="Otilde" unicode="&#xd5;" horiz-adv-x="686" 
d="M125 356q0 -73 20 -135t71 -106.5t127 -44.5t127 44.5t71 106.5t20 135t-20 135t-71 106.5t-127 44.5t-127 -44.5t-71 -106.5t-20 -135zM31 356q0 95 34.5 176t107.5 133.5t170 52.5t170 -52.5t107.5 -133.5t34.5 -176t-34.5 -176t-107.5 -133.5t-170 -52.5t-170 52.5
t-107.5 133.5t-34.5 176zM194 815q0 24 26.5 43.5t66.5 19.5q24 0 57.5 -10t52.5 -10q15 0 33 10t29 10q12 0 22.5 -12t10.5 -27q0 -24 -26.5 -43.5t-66.5 -19.5q-24 0 -57.5 10t-52.5 10q-15 0 -33 -10t-29 -10q-12 0 -22.5 12t-10.5 27z" />
    <glyph glyph-name="Odieresis" unicode="&#xd6;" horiz-adv-x="686" 
d="M125 356q0 -73 20 -135t71 -106.5t127 -44.5t127 44.5t71 106.5t20 135t-20 135t-71 106.5t-127 44.5t-127 -44.5t-71 -106.5t-20 -135zM31 356q0 95 34.5 176t107.5 133.5t170 52.5t170 -52.5t107.5 -133.5t34.5 -176t-34.5 -176t-107.5 -133.5t-170 -52.5t-170 52.5
t-107.5 133.5t-34.5 176zM196 818q0 22 16 38t38 16t38 -16t16 -38t-16 -38t-38 -16t-38 16t-16 38zM382 818q0 22 16 38t38 16t38 -16t16 -38t-16 -38t-38 -16t-38 16t-16 38z" />
    <glyph glyph-name="multiply" unicode="&#xd7;" horiz-adv-x="600" 
d="M300 309l152 151q23 23 42 23q15 0 25.5 -11.5t10.5 -25.5q0 -19 -21 -40l-153 -153l153 -153q21 -21 21 -40q0 -14 -10.5 -25.5t-25.5 -11.5q-19 0 -42 23l-152 152l-152 -152q-23 -23 -42 -23q-15 0 -25.5 11.5t-10.5 25.5q0 19 21 40l153 153l-153 153q-21 21 -21 40
q0 14 10.5 25.5t25.5 11.5q19 0 42 -23z" />
    <glyph glyph-name="Oslash" unicode="&#xd8;" horiz-adv-x="686" 
d="M160 190l332 388q-57 64 -149 64q-76 0 -127 -44.5t-71 -106.5t-20 -135q0 -96 35 -166zM527 524l-333 -389q55 -65 149 -65q76 0 127 44.5t71 106.5t20 135q0 97 -34 168zM545 639l59 70q14 17 31 17q12 0 21.5 -7.5t9.5 -20.5t-12 -26l-69 -80q70 -99 70 -236
q0 -95 -34.5 -176t-107.5 -133.5t-170 -52.5q-120 0 -202 80l-61 -72q-14 -16 -31 -16q-13 0 -21 8.5t-8 18.5q0 13 14 30l66 77q-69 100 -69 236q0 95 34.5 176t107.5 133.5t170 52.5q120 0 202 -79z" />
    <glyph glyph-name="Ugrave" unicode="&#xd9;" horiz-adv-x="668" 
d="M58 282v389q0 22 12 34.5t32 12.5t32 -12.5t12 -34.5v-423q0 -83 51.5 -130.5t136.5 -47.5t136.5 47.5t51.5 130.5v423q0 22 12 34.5t32 12.5t32 -12.5t12 -34.5v-389q0 -69 -17.5 -122t-44.5 -83.5t-64.5 -50t-73.5 -26t-76 -6.5t-76 6.5t-73.5 26t-64.5 50t-44.5 83.5
t-17.5 122zM373 776l-115 47q-35 14 -35 37q0 14 10 28t28 14q12 0 34 -9l115 -47q35 -14 35 -37q0 -14 -10 -28t-28 -14q-12 0 -34 9z" />
    <glyph glyph-name="Uacute" unicode="&#xda;" horiz-adv-x="668" 
d="M58 282v389q0 22 12 34.5t32 12.5t32 -12.5t12 -34.5v-423q0 -83 51.5 -130.5t136.5 -47.5t136.5 47.5t51.5 130.5v423q0 22 12 34.5t32 12.5t32 -12.5t12 -34.5v-389q0 -69 -17.5 -122t-44.5 -83.5t-64.5 -50t-73.5 -26t-76 -6.5t-76 6.5t-73.5 26t-64.5 50t-44.5 83.5
t-17.5 122zM410 823l-115 -47q-22 -9 -34 -9q-18 0 -28 14t-10 28q0 23 35 37l115 47q22 9 34 9q18 0 28 -14t10 -28q0 -23 -35 -37z" />
    <glyph glyph-name="Ucircumflex" unicode="&#xdb;" horiz-adv-x="668" 
d="M58 282v389q0 22 12 34.5t32 12.5t32 -12.5t12 -34.5v-423q0 -83 51.5 -130.5t136.5 -47.5t136.5 47.5t51.5 130.5v423q0 22 12 34.5t32 12.5t32 -12.5t12 -34.5v-389q0 -69 -17.5 -122t-44.5 -83.5t-64.5 -50t-73.5 -26t-76 -6.5t-76 6.5t-73.5 26t-64.5 50t-44.5 83.5
t-17.5 122zM205 840l129 55l129 -55q23 -10 23 -35q0 -16 -10 -27t-26 -11q-11 0 -22 5l-94 37l-94 -37q-11 -5 -22 -5q-16 0 -26 11t-10 27q0 25 23 35z" />
    <glyph glyph-name="Udieresis" unicode="&#xdc;" horiz-adv-x="668" 
d="M58 282v389q0 22 12 34.5t32 12.5t32 -12.5t12 -34.5v-423q0 -83 51.5 -130.5t136.5 -47.5t136.5 47.5t51.5 130.5v423q0 22 12 34.5t32 12.5t32 -12.5t12 -34.5v-389q0 -69 -17.5 -122t-44.5 -83.5t-64.5 -50t-73.5 -26t-76 -6.5t-76 6.5t-73.5 26t-64.5 50t-44.5 83.5
t-17.5 122zM187 818q0 22 15.5 38t38.5 16t38.5 -16t15.5 -38t-15.5 -38t-38.5 -16t-38.5 16t-15.5 38zM373 818q0 22 15.5 38t38.5 16t38.5 -16t15.5 -38t-15.5 -38t-38.5 -16t-38.5 16t-15.5 38z" />
    <glyph glyph-name="Yacute" unicode="&#xdd;" horiz-adv-x="500" 
d="M206 41v293l-191 311q-14 22 -14 37q0 16 11.5 26t28.5 10q27 0 44 -28l165 -269l165 269q17 28 44 28q17 0 28.5 -10t11.5 -26q0 -15 -14 -37l-191 -311v-293q0 -22 -12 -34.5t-32 -12.5t-32 12.5t-12 34.5zM326 823l-115 -47q-22 -9 -34 -9q-18 0 -28 14t-10 28
q0 23 35 37l115 47q22 9 34 9q18 0 28 -14t10 -28q0 -23 -35 -37z" />
    <glyph glyph-name="Thorn" unicode="&#xde;" horiz-adv-x="519" 
d="M146 524v-292h130q64 0 105 41.5t41 103.5q0 59 -37 103t-113 44h-126zM146 156v-115q0 -22 -12 -34.5t-32 -12.5t-32 12.5t-12 34.5v630q0 22 12 34.5t32 12.5t32 -12.5t12 -34.5v-71h133q104 0 167.5 -64.5t63.5 -158.5q0 -93 -65.5 -157t-162.5 -64h-136z" />
    <glyph glyph-name="germandbls" unicode="&#xdf;" horiz-adv-x="556" 
d="M58 37v526q0 97 52.5 153t139.5 56t143 -56.5t56 -125.5q0 -115 -77 -168q62 -16 98 -71.5t36 -126.5q0 -87 -54.5 -158.5t-143.5 -71.5q-58 0 -58 41q0 38 33 38q71 0 100 40.5t29 114.5q0 68 -34 105.5t-87 40.5q-45 3 -45 37q0 20 9 28t36 16q15 5 25 10.5t21.5 18.5
t17.5 37t6 59q0 50 -29.5 83t-79.5 33q-106 0 -106 -150v-509q0 -22 -13 -32.5t-31 -10.5t-31 10.5t-13 32.5z" />
    <glyph glyph-name="agrave" unicode="&#xe0;" horiz-adv-x="556" 
d="M498 495v-458q0 -21 -13 -32t-28 -11q-16 0 -28.5 11t-12.5 32v37h-2q-56 -80 -145 -80q-108 0 -171 80t-63 192t63 192t171 80q80 0 145 -71h2v28q0 21 12.5 32t28.5 11q15 0 28 -11t13 -32zM123 266q0 -78 36 -137t110 -59t110 59t36 137t-36 137t-110 59t-110 -59
t-36 -137zM317 616l-115 47q-35 14 -35 37q0 14 10 28t28 14q12 0 34 -9l115 -47q35 -14 35 -37q0 -14 -10 -28t-28 -14q-12 0 -34 9z" />
    <glyph glyph-name="aacute" unicode="&#xe1;" horiz-adv-x="556" 
d="M498 495v-458q0 -21 -13 -32t-28 -11q-16 0 -28.5 11t-12.5 32v37h-2q-56 -80 -145 -80q-108 0 -171 80t-63 192t63 192t171 80q80 0 145 -71h2v28q0 21 12.5 32t28.5 11q15 0 28 -11t13 -32zM123 266q0 -78 36 -137t110 -59t110 59t36 137t-36 137t-110 59t-110 -59
t-36 -137zM354 663l-115 -47q-22 -9 -34 -9q-18 0 -28 14t-10 28q0 23 35 37l115 47q22 9 34 9q18 0 28 -14t10 -28q0 -23 -35 -37z" />
    <glyph glyph-name="acircumflex" unicode="&#xe2;" horiz-adv-x="556" 
d="M498 495v-458q0 -21 -13 -32t-28 -11q-16 0 -28.5 11t-12.5 32v37h-2q-56 -80 -145 -80q-108 0 -171 80t-63 192t63 192t171 80q80 0 145 -71h2v28q0 21 12.5 32t28.5 11q15 0 28 -11t13 -32zM123 266q0 -78 36 -137t110 -59t110 59t36 137t-36 137t-110 59t-110 -59
t-36 -137zM149 680l129 55l129 -55q23 -10 23 -35q0 -16 -10 -27t-26 -11q-11 0 -22 5l-94 37l-94 -37q-11 -5 -22 -5q-16 0 -26 11t-10 27q0 25 23 35z" />
    <glyph glyph-name="atilde" unicode="&#xe3;" horiz-adv-x="556" 
d="M498 495v-458q0 -21 -13 -32t-28 -11q-16 0 -28.5 11t-12.5 32v37h-2q-56 -80 -145 -80q-108 0 -171 80t-63 192t63 192t171 80q80 0 145 -71h2v28q0 21 12.5 32t28.5 11q15 0 28 -11t13 -32zM123 266q0 -78 36 -137t110 -59t110 59t36 137t-36 137t-110 59t-110 -59
t-36 -137zM129 655q0 24 26.5 43.5t66.5 19.5q24 0 57.5 -10t52.5 -10q15 0 33 10t29 10q12 0 22.5 -12t10.5 -27q0 -24 -26.5 -43.5t-66.5 -19.5q-24 0 -57.5 10t-52.5 10q-15 0 -33 -10t-29 -10q-12 0 -22.5 12t-10.5 27z" />
    <glyph glyph-name="adieresis" unicode="&#xe4;" horiz-adv-x="556" 
d="M498 495v-458q0 -21 -13 -32t-28 -11q-16 0 -28.5 11t-12.5 32v37h-2q-56 -80 -145 -80q-108 0 -171 80t-63 192t63 192t171 80q80 0 145 -71h2v28q0 21 12.5 32t28.5 11q15 0 28 -11t13 -32zM123 266q0 -78 36 -137t110 -59t110 59t36 137t-36 137t-110 59t-110 -59
t-36 -137zM131 658q0 22 15.5 38t38.5 16t38.5 -16t15.5 -38t-15.5 -38t-38.5 -16t-38.5 16t-15.5 38zM317 658q0 22 15.5 38t38.5 16t38.5 -16t15.5 -38t-15.5 -38t-38.5 -16t-38.5 16t-15.5 38z" />
    <glyph glyph-name="aring" unicode="&#xe5;" horiz-adv-x="556" 
d="M498 495v-458q0 -21 -13 -32t-28 -11q-16 0 -28.5 11t-12.5 32v37h-2q-56 -80 -145 -80q-108 0 -171 80t-63 192t63 192t171 80q80 0 145 -71h2v28q0 21 12.5 32t28.5 11q15 0 28 -11t13 -32zM123 266q0 -78 36 -137t110 -59t110 59t36 137t-36 137t-110 59t-110 -59
t-36 -137zM184 678q0 39 27.5 66.5t66.5 27.5t66.5 -27.5t27.5 -66.5t-27.5 -66.5t-66.5 -27.5t-66.5 27.5t-27.5 66.5zM232 678q0 -19 13.5 -32.5t32.5 -13.5t32.5 13.5t13.5 32.5t-13.5 32.5t-32.5 13.5t-32.5 -13.5t-13.5 -32.5z" />
    <glyph glyph-name="ae" unicode="&#xe6;" horiz-adv-x="889" 
d="M123 266q0 -78 36 -137t110 -59t110 59t36 137t-36 137t-110 59t-110 -59t-36 -137zM415 37v37h-2q-55 -80 -144 -80q-108 0 -171 80t-63 192t63 192t171 80q81 0 144 -71h2v28q0 21 12.5 32t28.5 11q15 0 28 -11t13 -32v-22h2q13 18 53 41.5t87 23.5q89 0 156.5 -72.5
t67.5 -186.5q0 -24 -11 -35.5t-38 -11.5h-325q2 -65 45 -113t116 -47q37 1 67 11.5t45.5 23.5t31 23.5t26.5 11.5q13 0 22.5 -10.5t9.5 -28.5q1 -21 -28 -47t-76 -44t-92 -18q-106 0 -157 64h-2v-21q0 -21 -13 -32t-28 -11q-16 0 -28.5 11t-12.5 32zM495 298h280
q0 64 -36.5 114t-104.5 50q-70 0 -104.5 -49.5t-34.5 -114.5z" />
    <glyph glyph-name="ccedilla" unicode="&#xe7;" horiz-adv-x="444" 
d="M284 -5l-25 -37q15 3 21 3q31 0 50 -18t19 -37q0 -44 -30 -65t-81 -21q-32 0 -52.5 9.5t-20.5 25.5q0 11 5.5 19t15.5 8q6 0 24 -4t28 -4q35 0 35 27q0 12 -9.5 15t-34.5 3q-11 0 -18.5 4t-9.5 8t-2 7q0 10 10 25l24 35q-96 14 -147 90t-51 178q0 114 62.5 193t177.5 79
q65 0 104 -19.5t39 -47.5q0 -14 -10.5 -25.5t-25.5 -11.5q-14 0 -44 14t-63 14q-75 0 -113.5 -59.5t-38.5 -136.5t38.5 -136.5t113.5 -59.5q35 0 65.5 15t40.5 15q34 0 34 -37q0 -26 -35 -46.5t-96 -21.5z" />
    <glyph glyph-name="egrave" unicode="&#xe8;" horiz-adv-x="520" 
d="M445 232h-331q0 -70 42.5 -116t114.5 -46q40 0 72.5 11t49 25t32.5 25t26 11q13 0 22.5 -10.5t9.5 -28.5q0 -34 -69 -71.5t-144 -37.5q-120 0 -182 78.5t-62 193.5q0 113 65.5 192.5t173.5 79.5q103 0 166 -78t63 -181q0 -24 -11 -35.5t-38 -11.5zM114 298h292
q0 64 -36.5 114t-104.5 50q-75 3 -111.5 -45.5t-39.5 -118.5zM299 616l-115 47q-35 14 -35 37q0 14 10 28t28 14q12 0 34 -9l115 -47q35 -14 35 -37q0 -14 -10 -28t-28 -14q-12 0 -34 9z" />
    <glyph glyph-name="eacute" unicode="&#xe9;" horiz-adv-x="520" 
d="M445 232h-331q0 -70 42.5 -116t114.5 -46q40 0 72.5 11t49 25t32.5 25t26 11q13 0 22.5 -10.5t9.5 -28.5q0 -34 -69 -71.5t-144 -37.5q-120 0 -182 78.5t-62 193.5q0 113 65.5 192.5t173.5 79.5q103 0 166 -78t63 -181q0 -24 -11 -35.5t-38 -11.5zM114 298h292
q0 64 -36.5 114t-104.5 50q-75 3 -111.5 -45.5t-39.5 -118.5zM336 663l-115 -47q-22 -9 -34 -9q-18 0 -28 14t-10 28q0 23 35 37l115 47q22 9 34 9q18 0 28 -14t10 -28q0 -23 -35 -37z" />
    <glyph glyph-name="ecircumflex" unicode="&#xea;" horiz-adv-x="520" 
d="M445 232h-331q0 -70 42.5 -116t114.5 -46q40 0 72.5 11t49 25t32.5 25t26 11q13 0 22.5 -10.5t9.5 -28.5q0 -34 -69 -71.5t-144 -37.5q-120 0 -182 78.5t-62 193.5q0 113 65.5 192.5t173.5 79.5q103 0 166 -78t63 -181q0 -24 -11 -35.5t-38 -11.5zM114 298h292
q0 64 -36.5 114t-104.5 50q-75 3 -111.5 -45.5t-39.5 -118.5zM131 680l129 55l129 -55q23 -10 23 -35q0 -16 -10 -27t-26 -11q-11 0 -22 5l-94 37l-94 -37q-11 -5 -22 -5q-16 0 -26 11t-10 27q0 25 23 35z" />
    <glyph glyph-name="edieresis" unicode="&#xeb;" horiz-adv-x="520" 
d="M445 232h-331q0 -70 42.5 -116t114.5 -46q40 0 72.5 11t49 25t32.5 25t26 11q13 0 22.5 -10.5t9.5 -28.5q0 -34 -69 -71.5t-144 -37.5q-120 0 -182 78.5t-62 193.5q0 113 65.5 192.5t173.5 79.5q103 0 166 -78t63 -181q0 -24 -11 -35.5t-38 -11.5zM114 298h292
q0 64 -36.5 114t-104.5 50q-75 3 -111.5 -45.5t-39.5 -118.5zM113 658q0 22 15.5 38t38.5 16t38.5 -16t15.5 -38t-15.5 -38t-38.5 -16t-38.5 16t-15.5 38zM299 658q0 22 15.5 38t38.5 16t38.5 -16t15.5 -38t-15.5 -38t-38.5 -16t-38.5 16t-15.5 38z" />
    <glyph glyph-name="igrave" unicode="&#xec;" 
d="M146 491v-450q0 -22 -12 -34.5t-32 -12.5t-32 12.5t-12 34.5v450q0 22 12 34.5t32 12.5t32 -12.5t12 -34.5zM141 616l-115 47q-35 14 -35 37q0 14 10 28t28 14q12 0 34 -9l115 -47q35 -14 35 -37q0 -14 -10 -28t-28 -14q-12 0 -34 9z" />
    <glyph glyph-name="iacute" unicode="&#xed;" 
d="M146 491v-450q0 -22 -12 -34.5t-32 -12.5t-32 12.5t-12 34.5v450q0 22 12 34.5t32 12.5t32 -12.5t12 -34.5zM178 663l-115 -47q-22 -9 -34 -9q-18 0 -28 14t-10 28q0 23 35 37l115 47q22 9 34 9q18 0 28 -14t10 -28q0 -23 -35 -37z" />
    <glyph glyph-name="icircumflex" unicode="&#xee;" 
d="M146 491v-450q0 -22 -12 -34.5t-32 -12.5t-32 12.5t-12 34.5v450q0 22 12 34.5t32 12.5t32 -12.5t12 -34.5zM-27 680l129 55l129 -55q23 -10 23 -35q0 -16 -10 -27t-26 -11q-11 0 -22 5l-94 37l-94 -37q-11 -5 -22 -5q-16 0 -26 11t-10 27q0 25 23 35z" />
    <glyph glyph-name="idieresis" unicode="&#xef;" 
d="M146 491v-450q0 -22 -12 -34.5t-32 -12.5t-32 12.5t-12 34.5v450q0 22 12 34.5t32 12.5t32 -12.5t12 -34.5zM-45 658q0 22 15.5 38t38.5 16t38.5 -16t15.5 -38t-15.5 -38t-38.5 -16t-38.5 16t-15.5 38zM141 658q0 22 15.5 38t38.5 16t38.5 -16t15.5 -38t-15.5 -38
t-38.5 -16t-38.5 16t-15.5 38z" />
    <glyph glyph-name="eth" unicode="&#xf0;" horiz-adv-x="538" 
d="M35 262q0 109 62 189.5t166 80.5q36 0 70.5 -16.5t55.5 -43.5l2 2q-32 87 -121 161l-87 -42q-18 -9 -29 -9q-9 0 -16.5 7.5t-7.5 19.5q0 15 17 23l77 37q-17 13 -42.5 24t-38.5 20t-13 26q0 14 10.5 22.5t26.5 8.5q23 0 62.5 -18t72.5 -43l92 46q18 9 29 9q24 0 24 -24
q0 -18 -21 -29l-78 -38q155 -139 155 -376q0 -139 -60.5 -222t-179.5 -83q-104 0 -166 80.5t-62 187.5zM123 262q0 -76 37.5 -134t108.5 -58t108.5 58t37.5 134t-37.5 134t-108.5 58t-108.5 -58t-37.5 -134z" />
    <glyph glyph-name="ntilde" unicode="&#xf1;" horiz-adv-x="538" 
d="M58 41v450q0 22 12 34.5t32 12.5t32 -12.5t12 -34.5v-21l2 -2q55 70 147 70q33 0 64 -11t59 -33.5t45 -63t17 -94.5v-295q0 -22 -12 -34.5t-32 -12.5t-32 12.5t-12 34.5v290q0 65 -37 98t-86 33t-86 -33t-37 -98v-290q0 -22 -12 -34.5t-32 -12.5t-32 12.5t-12 34.5z
M120 655q0 24 26.5 43.5t66.5 19.5q24 0 57.5 -10t52.5 -10q15 0 33 10t29 10q12 0 22.5 -12t10.5 -27q0 -24 -26.5 -43.5t-66.5 -19.5q-24 0 -57.5 10t-52.5 10q-15 0 -33 -10t-29 -10q-12 0 -22.5 12t-10.5 27z" />
    <glyph glyph-name="ograve" unicode="&#xf2;" horiz-adv-x="538" 
d="M35 266q0 112 63 192t171 80t171 -80t63 -192t-63 -192t-171 -80t-171 80t-63 192zM123 266q0 -78 36 -137t110 -59t110 59t36 137t-36 137t-110 59t-110 -59t-36 -137zM308 616l-115 47q-35 14 -35 37q0 14 10 28t28 14q12 0 34 -9l115 -47q35 -14 35 -37q0 -14 -10 -28
t-28 -14q-12 0 -34 9z" />
    <glyph glyph-name="oacute" unicode="&#xf3;" horiz-adv-x="538" 
d="M35 266q0 112 63 192t171 80t171 -80t63 -192t-63 -192t-171 -80t-171 80t-63 192zM123 266q0 -78 36 -137t110 -59t110 59t36 137t-36 137t-110 59t-110 -59t-36 -137zM345 663l-115 -47q-22 -9 -34 -9q-18 0 -28 14t-10 28q0 23 35 37l115 47q22 9 34 9q18 0 28 -14
t10 -28q0 -23 -35 -37z" />
    <glyph glyph-name="ocircumflex" unicode="&#xf4;" horiz-adv-x="538" 
d="M35 266q0 112 63 192t171 80t171 -80t63 -192t-63 -192t-171 -80t-171 80t-63 192zM123 266q0 -78 36 -137t110 -59t110 59t36 137t-36 137t-110 59t-110 -59t-36 -137zM140 680l129 55l129 -55q23 -10 23 -35q0 -16 -10 -27t-26 -11q-11 0 -22 5l-94 37l-94 -37
q-11 -5 -22 -5q-16 0 -26 11t-10 27q0 25 23 35z" />
    <glyph glyph-name="otilde" unicode="&#xf5;" horiz-adv-x="538" 
d="M35 266q0 112 63 192t171 80t171 -80t63 -192t-63 -192t-171 -80t-171 80t-63 192zM123 266q0 -78 36 -137t110 -59t110 59t36 137t-36 137t-110 59t-110 -59t-36 -137zM120 655q0 24 26.5 43.5t66.5 19.5q24 0 57.5 -10t52.5 -10q15 0 33 10t29 10q12 0 22.5 -12
t10.5 -27q0 -24 -26.5 -43.5t-66.5 -19.5q-24 0 -57.5 10t-52.5 10q-15 0 -33 -10t-29 -10q-12 0 -22.5 12t-10.5 27z" />
    <glyph glyph-name="odieresis" unicode="&#xf6;" horiz-adv-x="538" 
d="M35 266q0 112 63 192t171 80t171 -80t63 -192t-63 -192t-171 -80t-171 80t-63 192zM123 266q0 -78 36 -137t110 -59t110 59t36 137t-36 137t-110 59t-110 -59t-36 -137zM122 658q0 22 16 38t38 16t38 -16t16 -38t-16 -38t-38 -16t-38 16t-16 38zM308 658q0 22 16 38
t38 16t38 -16t16 -38t-16 -38t-38 -16t-38 16t-16 38z" />
    <glyph glyph-name="divide" unicode="&#xf7;" horiz-adv-x="600" 
d="M510 212h-420q-43 0 -43 41t43 41h420q43 0 43 -41t-43 -41zM228 460q0 30 21 51t51 21t51 -21t21 -51t-21 -51t-51 -21t-51 21t-21 51zM228 46q0 30 21 51t51 21t51 -21t21 -51t-21 -51t-51 -21t-51 21t-21 51z" />
    <glyph glyph-name="oslash" unicode="&#xf8;" horiz-adv-x="538" 
d="M41 39l45 54q-51 69 -51 173q0 112 63 192t171 80q84 0 143 -51l41 50q15 19 31 19q13 0 22 -8t9 -20q0 -14 -14 -31l-48 -57q50 -76 50 -174q0 -112 -63 -192t-171 -80q-84 0 -142 52l-42 -51q-14 -19 -32 -19q-12 0 -21 8.5t-9 19.5q0 14 18 35zM143 162l218 263
q-35 37 -92 37q-74 0 -110 -59t-36 -137q0 -58 20 -104zM395 370l-218 -263q35 -37 92 -37q74 0 110 59t36 137q0 60 -20 104z" />
    <glyph glyph-name="ugrave" unicode="&#xf9;" horiz-adv-x="538" 
d="M58 206v285q0 22 12 34.5t32 12.5t32 -12.5t12 -34.5v-282q0 -139 123 -139t123 139v282q0 22 12 34.5t32 12.5t32 -12.5t12 -34.5v-285q0 -109 -60.5 -160.5t-150.5 -51.5t-150.5 51.5t-60.5 160.5zM308 616l-115 47q-35 14 -35 37q0 14 10 28t28 14q12 0 34 -9l115 -47
q35 -14 35 -37q0 -14 -10 -28t-28 -14q-12 0 -34 9z" />
    <glyph glyph-name="uacute" unicode="&#xfa;" horiz-adv-x="538" 
d="M58 206v285q0 22 12 34.5t32 12.5t32 -12.5t12 -34.5v-282q0 -139 123 -139t123 139v282q0 22 12 34.5t32 12.5t32 -12.5t12 -34.5v-285q0 -109 -60.5 -160.5t-150.5 -51.5t-150.5 51.5t-60.5 160.5zM345 663l-115 -47q-22 -9 -34 -9q-18 0 -28 14t-10 28q0 23 35 37
l115 47q22 9 34 9q18 0 28 -14t10 -28q0 -23 -35 -37z" />
    <glyph glyph-name="ucircumflex" unicode="&#xfb;" horiz-adv-x="538" 
d="M58 206v285q0 22 12 34.5t32 12.5t32 -12.5t12 -34.5v-282q0 -139 123 -139t123 139v282q0 22 12 34.5t32 12.5t32 -12.5t12 -34.5v-285q0 -109 -60.5 -160.5t-150.5 -51.5t-150.5 51.5t-60.5 160.5zM140 680l129 55l129 -55q23 -10 23 -35q0 -16 -10 -27t-26 -11
q-11 0 -22 5l-94 37l-94 -37q-11 -5 -22 -5q-16 0 -26 11t-10 27q0 25 23 35z" />
    <glyph glyph-name="udieresis" unicode="&#xfc;" horiz-adv-x="538" 
d="M58 206v285q0 22 12 34.5t32 12.5t32 -12.5t12 -34.5v-282q0 -139 123 -139t123 139v282q0 22 12 34.5t32 12.5t32 -12.5t12 -34.5v-285q0 -109 -60.5 -160.5t-150.5 -51.5t-150.5 51.5t-60.5 160.5zM122 658q0 22 16 38t38 16t38 -16t16 -38t-16 -38t-38 -16t-38 16
t-16 38zM308 658q0 22 16 38t38 16t38 -16t16 -38t-16 -38t-38 -16t-38 16t-16 38z" />
    <glyph glyph-name="yacute" unicode="&#xfd;" horiz-adv-x="444" 
d="M179 19l-150 433q-12 36 -12 49q0 16 12 26.5t28 10.5q34 0 44 -33l122 -365h2l120 365q10 33 42 33q16 0 28 -10.5t12 -26.5q0 -13 -12 -49l-222 -635q-12 -33 -43 -33q-16 0 -28 10.5t-12 26.5q0 14 13 49zM298 663l-115 -47q-22 -9 -34 -9q-18 0 -28 14t-10 28
q0 23 35 37l115 47q22 9 34 9q18 0 28 -14t10 -28q0 -23 -35 -37z" />
    <glyph glyph-name="thorn" unicode="&#xfe;" horiz-adv-x="556" 
d="M141 266q0 -78 36 -137t110 -59t110 59t36 137t-36 137t-110 59t-110 -59t-36 -137zM62 -169v894q0 22 12 34.5t32 12.5t32 -12.5t12 -34.5v-260h2q38 73 142 73t165.5 -80t61.5 -192t-61.5 -192t-165.5 -80q-48 0 -85 21.5t-57 50.5h-2v-235q0 -22 -12 -34.5t-32 -12.5
t-32 12.5t-12 34.5z" />
    <glyph glyph-name="ydieresis" unicode="&#xff;" horiz-adv-x="444" 
d="M179 19l-150 433q-12 36 -12 49q0 16 12 26.5t28 10.5q34 0 44 -33l122 -365h2l120 365q10 33 42 33q16 0 28 -10.5t12 -26.5q0 -13 -12 -49l-222 -635q-12 -33 -43 -33q-16 0 -28 10.5t-12 26.5q0 14 13 49zM75 658q0 22 15.5 38t38.5 16t38.5 -16t15.5 -38t-15.5 -38
t-38.5 -16t-38.5 16t-15.5 38zM261 658q0 22 15.5 38t38.5 16t38.5 -16t15.5 -38t-15.5 -38t-38.5 -16t-38.5 16t-15.5 38z" />
    <glyph glyph-name="Amacron" unicode="&#x100;" horiz-adv-x="612" 
d="M141 155l-46 -128q-12 -33 -43 -33q-18 0 -30 10t-12 27q0 8 12 44l221 589q19 54 63 54t63 -54l221 -589q12 -36 12 -44q0 -17 -12 -27t-30 -10q-31 0 -43 33l-46 128h-330zM444 231l-137 385h-2l-137 -385h276zM206 849h202q43 0 43 -41t-43 -41h-202q-43 0 -43 41
t43 41z" />
    <glyph glyph-name="amacron" unicode="&#x101;" horiz-adv-x="556" 
d="M498 495v-458q0 -21 -13 -32t-28 -11q-16 0 -28.5 11t-12.5 32v37h-2q-56 -80 -145 -80q-108 0 -171 80t-63 192t63 192t171 80q80 0 145 -71h2v28q0 21 12.5 32t28.5 11q15 0 28 -11t13 -32zM123 266q0 -78 36 -137t110 -59t110 59t36 137t-36 137t-110 59t-110 -59
t-36 -137zM171 689h202q43 0 43 -41t-43 -41h-202q-43 0 -43 41t43 41z" />
    <glyph glyph-name="Abreve" unicode="&#x102;" horiz-adv-x="612" 
d="M141 155l-46 -128q-12 -33 -43 -33q-18 0 -30 10t-12 27q0 8 12 44l221 589q19 54 63 54t63 -54l221 -589q12 -36 12 -44q0 -17 -12 -27t-30 -10q-31 0 -43 33l-46 128h-330zM444 231l-137 385h-2l-137 -385h276zM172 857q0 15 8.5 25.5t22.5 10.5q10 0 21.5 -9t21 -19.5
t26 -19.5t35.5 -9t35.5 9t26 19.5t21 19.5t21.5 9q14 0 22.5 -10.5t8.5 -25.5q0 -41 -44.5 -69t-90.5 -28t-90.5 28t-44.5 69z" />
    <glyph glyph-name="abreve" unicode="&#x103;" horiz-adv-x="556" 
d="M498 495v-458q0 -21 -13 -32t-28 -11q-16 0 -28.5 11t-12.5 32v37h-2q-56 -80 -145 -80q-108 0 -171 80t-63 192t63 192t171 80q80 0 145 -71h2v28q0 21 12.5 32t28.5 11q15 0 28 -11t13 -32zM123 266q0 -78 36 -137t110 -59t110 59t36 137t-36 137t-110 59t-110 -59
t-36 -137zM137 697q0 15 8.5 25.5t22.5 10.5q10 0 21.5 -9t21 -19.5t26 -19.5t35.5 -9t35.5 9t26 19.5t21 19.5t21.5 9q14 0 22.5 -10.5t8.5 -25.5q0 -41 -44.5 -69t-90.5 -28t-90.5 28t-44.5 69z" />
    <glyph glyph-name="Aogonek" unicode="&#x104;" horiz-adv-x="612" 
d="M534 2q-11 8 -17 25l-46 128h-330l-46 -128q-12 -33 -43 -33q-18 0 -30 10t-12 27q0 8 12 44l221 589q19 54 63 54t63 -54l221 -589q12 -36 12 -44q0 -19 -16 -30l-25 -23q-37 -34 -37 -68t37 -34q12 0 27.5 4t19.5 4q24 0 24 -23q0 -39 -85 -39q-41 0 -70 19.5t-29 53.5
q0 45 55 84zM444 231l-137 385h-2l-137 -385h276z" />
    <glyph glyph-name="aogonek" unicode="&#x105;" horiz-adv-x="556" 
d="M498 495v-458q0 -26 -20 -37l-23 -22q-37 -34 -37 -68t37 -34q12 0 27.5 4t19.5 4q24 0 24 -23q0 -39 -85 -39q-41 0 -70 19.5t-29 53.5q0 45 55 84l33 24q-14 12 -14 34v37h-2q-56 -80 -145 -80q-108 0 -171 80t-63 192t63 192t171 80q80 0 145 -71h2v28q0 21 12.5 32
t28.5 11q15 0 28 -11t13 -32zM123 266q0 -78 36 -137t110 -59t110 59t36 137t-36 137t-110 59t-110 -59t-36 -137z" />
    <glyph glyph-name="Cacute" unicode="&#x106;" horiz-adv-x="593" 
d="M125 356q0 -114 56.5 -200t161.5 -86q47 0 86.5 16t65.5 32t39 16q16 0 25.5 -11t9.5 -30q0 -35 -68 -67t-158 -32q-99 0 -171.5 52.5t-106.5 133.5t-34 176q0 71 20.5 135t58.5 115t100 81.5t138 30.5q86 0 146 -36t60 -68q0 -18 -10 -30t-26 -12q-15 0 -35 17.5
t-53.5 35t-81.5 17.5q-57 0 -101 -25t-70 -67t-39 -91.5t-13 -102.5zM429 823l-115 -47q-22 -9 -34 -9q-18 0 -28 14t-10 28q0 23 35 37l115 47q22 9 34 9q18 0 28 -14t10 -28q0 -23 -35 -37z" />
    <glyph glyph-name="cacute" unicode="&#x107;" horiz-adv-x="444" 
d="M35 266q0 114 62.5 193t177.5 79q65 0 104 -19.5t39 -47.5q0 -14 -10.5 -25.5t-25.5 -11.5q-14 0 -44 14t-63 14q-75 0 -113.5 -59.5t-38.5 -136.5t38.5 -136.5t113.5 -59.5q35 0 65.5 15t40.5 15q34 0 34 -37q0 -27 -38 -48t-102 -21q-115 0 -177.5 79t-62.5 193z
M359 663l-115 -47q-22 -9 -34 -9q-18 0 -28 14t-10 28q0 23 35 37l115 47q22 9 34 9q18 0 28 -14t10 -28q0 -23 -35 -37z" />
    <glyph glyph-name="Ccircumflex" unicode="&#x108;" horiz-adv-x="593" 
d="M125 356q0 -114 56.5 -200t161.5 -86q47 0 86.5 16t65.5 32t39 16q16 0 25.5 -11t9.5 -30q0 -35 -68 -67t-158 -32q-99 0 -171.5 52.5t-106.5 133.5t-34 176q0 71 20.5 135t58.5 115t100 81.5t138 30.5q86 0 146 -36t60 -68q0 -18 -10 -30t-26 -12q-15 0 -35 17.5
t-53.5 35t-81.5 17.5q-57 0 -101 -25t-70 -67t-39 -91.5t-13 -102.5zM213 840l129 55l129 -55q23 -10 23 -35q0 -16 -10 -27t-26 -11q-11 0 -22 5l-94 37l-94 -37q-11 -5 -22 -5q-16 0 -26 11t-10 27q0 25 23 35z" />
    <glyph glyph-name="ccircumflex" unicode="&#x109;" horiz-adv-x="444" 
d="M35 266q0 114 62.5 193t177.5 79q65 0 104 -19.5t39 -47.5q0 -14 -10.5 -25.5t-25.5 -11.5q-14 0 -44 14t-63 14q-75 0 -113.5 -59.5t-38.5 -136.5t38.5 -136.5t113.5 -59.5q35 0 65.5 15t40.5 15q34 0 34 -37q0 -27 -38 -48t-102 -21q-115 0 -177.5 79t-62.5 193z
M123 680l129 55l129 -55q23 -10 23 -35q0 -16 -10 -27t-26 -11q-11 0 -22 5l-94 37l-94 -37q-11 -5 -22 -5q-16 0 -26 11t-10 27q0 25 23 35z" />
    <glyph glyph-name="Cdotaccent" unicode="&#x10a;" horiz-adv-x="593" 
d="M125 356q0 -114 56.5 -200t161.5 -86q47 0 86.5 16t65.5 32t39 16q16 0 25.5 -11t9.5 -30q0 -35 -68 -67t-158 -32q-99 0 -171.5 52.5t-106.5 133.5t-34 176q0 71 20.5 135t58.5 115t100 81.5t138 30.5q86 0 146 -36t60 -68q0 -18 -10 -30t-26 -12q-15 0 -35 17.5
t-53.5 35t-81.5 17.5q-57 0 -101 -25t-70 -67t-39 -91.5t-13 -102.5zM288 818q0 22 16 38t38 16t38 -16t16 -38t-16 -38t-38 -16t-38 16t-16 38z" />
    <glyph glyph-name="cdotaccent" unicode="&#x10b;" horiz-adv-x="444" 
d="M35 266q0 114 62.5 193t177.5 79q65 0 104 -19.5t39 -47.5q0 -14 -10.5 -25.5t-25.5 -11.5q-14 0 -44 14t-63 14q-75 0 -113.5 -59.5t-38.5 -136.5t38.5 -136.5t113.5 -59.5q35 0 65.5 15t40.5 15q34 0 34 -37q0 -27 -38 -48t-102 -21q-115 0 -177.5 79t-62.5 193z
M198 658q0 22 16 38t38 16t38 -16t16 -38t-16 -38t-38 -16t-38 16t-16 38z" />
    <glyph glyph-name="Ccaron" unicode="&#x10c;" horiz-adv-x="593" 
d="M125 356q0 -114 56.5 -200t161.5 -86q47 0 86.5 16t65.5 32t39 16q16 0 25.5 -11t9.5 -30q0 -35 -68 -67t-158 -32q-99 0 -171.5 52.5t-106.5 133.5t-34 176q0 71 20.5 135t58.5 115t100 81.5t138 30.5q86 0 146 -36t60 -68q0 -18 -10 -30t-26 -12q-15 0 -35 17.5
t-53.5 35t-81.5 17.5q-57 0 -101 -25t-70 -67t-39 -91.5t-13 -102.5zM342 767l-129 55q-23 10 -23 35q0 16 10 27t26 11q11 0 22 -5l94 -37l94 37q11 5 22 5q16 0 26 -11t10 -27q0 -25 -23 -35z" />
    <glyph glyph-name="ccaron" unicode="&#x10d;" horiz-adv-x="444" 
d="M35 266q0 114 62.5 193t177.5 79q65 0 104 -19.5t39 -47.5q0 -14 -10.5 -25.5t-25.5 -11.5q-14 0 -44 14t-63 14q-75 0 -113.5 -59.5t-38.5 -136.5t38.5 -136.5t113.5 -59.5q35 0 65.5 15t40.5 15q34 0 34 -37q0 -27 -38 -48t-102 -21q-115 0 -177.5 79t-62.5 193z
M252 607l-129 55q-23 10 -23 35q0 16 10 27t26 11q11 0 22 -5l94 -37l94 37q11 5 22 5q16 0 26 -11t10 -27q0 -25 -23 -35z" />
    <glyph glyph-name="Dcaron" unicode="&#x10e;" horiz-adv-x="630" 
d="M63 48v616q0 48 47 48h173q102 0 175 -49.5t107 -127.5t34 -175q0 -162 -81.5 -261t-222.5 -99h-185q-47 0 -47 48zM151 636v-560h126q60 0 105.5 23.5t71.5 64.5t38.5 90t12.5 106q0 120 -58 198t-176 78h-120zM265 767l-129 55q-23 10 -23 35q0 16 10 27t26 11
q11 0 22 -5l94 -37l94 37q11 5 22 5q16 0 26 -11t10 -27q0 -25 -23 -35z" />
    <glyph glyph-name="dcaron" unicode="&#x10f;" horiz-adv-x="556" 
d="M415 266q0 78 -36 137t-110 59t-110 -59t-36 -137t36 -137t110 -59t110 59t36 137zM406 41v26h-2q-38 -73 -142 -73t-165.5 80t-61.5 192t61.5 192t165.5 80q48 0 85 -21.5t57 -50.5h2v259q0 22 12 34.5t32 12.5t32 -12.5t12 -34.5v-684q0 -22 -12 -34.5t-32 -12.5
t-32 12.5t-12 34.5zM543 661l41 86q11 25 35 25q18 0 30 -10.5t12 -23.5q0 -14 -7 -27l-48 -89q-11 -20 -33 -20q-16 0 -26.5 9t-10.5 20q0 16 7 30z" />
    <glyph glyph-name="Dcroat" unicode="&#x110;" horiz-adv-x="630" 
d="M63 48v273h-38q-19 0 -31 10t-12 28t12 28t31 10h38v267q0 48 47 48h173q102 0 175 -49.5t107 -127.5t34 -175q0 -162 -81.5 -261t-222.5 -99h-185q-47 0 -47 48zM151 321v-245h126q60 0 105.5 23.5t71.5 64.5t38.5 90t12.5 106q0 120 -58 198t-176 78h-120v-239h120
q19 0 31 -10t12 -28t-12 -28t-31 -10h-120z" />
    <glyph glyph-name="dcroat" unicode="&#x111;" horiz-adv-x="556" 
d="M305 673h101v52q0 22 12 34.5t32 12.5t32 -12.5t12 -34.5v-52h30q43 0 43 -41t-43 -41h-30v-550q0 -22 -12 -34.5t-32 -12.5t-32 12.5t-12 34.5v26h-2q-38 -73 -142 -73t-165.5 80t-61.5 192t61.5 192t165.5 80q48 0 85 -21.5t57 -50.5h2v125h-101q-43 0 -43 41t43 41z
M415 266q0 78 -36 137t-110 59t-110 -59t-36 -137t36 -137t110 -59t110 59t36 137z" />
    <glyph glyph-name="Emacron" unicode="&#x112;" horiz-adv-x="444" 
d="M146 315v-233h212q43 0 43 -41t-43 -41h-253q-47 0 -47 48v616q0 48 47 48h253q43 0 43 -41t-43 -41h-212v-233h193q43 0 43 -41t-43 -41h-193zM126 849h202q43 0 43 -41t-43 -41h-202q-43 0 -43 41t43 41z" />
    <glyph glyph-name="emacron" unicode="&#x113;" horiz-adv-x="520" 
d="M445 232h-331q0 -70 42.5 -116t114.5 -46q40 0 72.5 11t49 25t32.5 25t26 11q13 0 22.5 -10.5t9.5 -28.5q0 -34 -69 -71.5t-144 -37.5q-120 0 -182 78.5t-62 193.5q0 113 65.5 192.5t173.5 79.5q103 0 166 -78t63 -181q0 -24 -11 -35.5t-38 -11.5zM114 298h292
q0 64 -36.5 114t-104.5 50q-75 3 -111.5 -45.5t-39.5 -118.5zM161 689h202q43 0 43 -41t-43 -41h-202q-43 0 -43 41t43 41z" />
    <glyph glyph-name="Ebreve" unicode="&#x114;" horiz-adv-x="444" 
d="M146 315v-233h212q43 0 43 -41t-43 -41h-253q-47 0 -47 48v616q0 48 47 48h253q43 0 43 -41t-43 -41h-212v-233h193q43 0 43 -41t-43 -41h-193zM92 857q0 15 8.5 25.5t22.5 10.5q10 0 21.5 -9t21 -19.5t26 -19.5t35.5 -9t35.5 9t26 19.5t21 19.5t21.5 9q14 0 22.5 -10.5
t8.5 -25.5q0 -41 -44.5 -69t-90.5 -28t-90.5 28t-44.5 69z" />
    <glyph glyph-name="ebreve" unicode="&#x115;" horiz-adv-x="520" 
d="M445 232h-331q0 -70 42.5 -116t114.5 -46q40 0 72.5 11t49 25t32.5 25t26 11q13 0 22.5 -10.5t9.5 -28.5q0 -34 -69 -71.5t-144 -37.5q-120 0 -182 78.5t-62 193.5q0 113 65.5 192.5t173.5 79.5q103 0 166 -78t63 -181q0 -24 -11 -35.5t-38 -11.5zM114 298h292
q0 64 -36.5 114t-104.5 50q-75 3 -111.5 -45.5t-39.5 -118.5zM127 697q0 15 8.5 25.5t22.5 10.5q10 0 21.5 -9t21 -19.5t26 -19.5t35.5 -9t35.5 9t26 19.5t21 19.5t21.5 9q14 0 22.5 -10.5t8.5 -25.5q0 -41 -44.5 -69t-90.5 -28t-90.5 28t-44.5 69z" />
    <glyph glyph-name="Edotaccent" unicode="&#x116;" horiz-adv-x="444" 
d="M146 315v-233h212q43 0 43 -41t-43 -41h-253q-47 0 -47 48v616q0 48 47 48h253q43 0 43 -41t-43 -41h-212v-233h193q43 0 43 -41t-43 -41h-193zM173 818q0 22 15.5 38t38.5 16t38.5 -16t15.5 -38t-15.5 -38t-38.5 -16t-38.5 16t-15.5 38z" />
    <glyph glyph-name="edotaccent" unicode="&#x117;" horiz-adv-x="520" 
d="M445 232h-331q0 -70 42.5 -116t114.5 -46q40 0 72.5 11t49 25t32.5 25t26 11q13 0 22.5 -10.5t9.5 -28.5q0 -34 -69 -71.5t-144 -37.5q-120 0 -182 78.5t-62 193.5q0 113 65.5 192.5t173.5 79.5q103 0 166 -78t63 -181q0 -24 -11 -35.5t-38 -11.5zM114 298h292
q0 64 -36.5 114t-104.5 50q-75 3 -111.5 -45.5t-39.5 -118.5zM208 658q0 22 16 38t38 16t38 -16t16 -38t-16 -38t-38 -16t-38 16t-16 38z" />
    <glyph glyph-name="Eogonek" unicode="&#x118;" horiz-adv-x="444" 
d="M146 315v-233h212q43 0 43 -41t-43 -41h-43l-24 -22q-37 -34 -37 -68t37 -34q12 0 27.5 4t19.5 4q24 0 24 -23q0 -39 -85 -39q-41 0 -70 19.5t-29 53.5q0 45 55 84l28 21h-156q-47 0 -47 48v616q0 48 47 48h253q43 0 43 -41t-43 -41h-212v-233h193q43 0 43 -41t-43 -41
h-193z" />
    <glyph glyph-name="eogonek" unicode="&#x119;" horiz-adv-x="520" 
d="M445 232h-331q0 -70 42.5 -116t114.5 -46q40 0 72.5 11t49 25t32.5 25t26 11q13 0 22.5 -10.5t9.5 -28.5q0 -31 -60.5 -66.5t-130.5 -41.5l-18 -17q-37 -34 -37 -68t37 -34q12 0 27.5 4t19.5 4q24 0 24 -23q0 -39 -85 -39q-41 0 -70 19.5t-29 53.5q0 45 55 84l22 17
q-104 11 -158 87t-54 183q0 113 65.5 192.5t173.5 79.5q103 0 166 -78t63 -181q0 -24 -11 -35.5t-38 -11.5zM114 298h292q0 64 -36.5 114t-104.5 50q-76 0 -112 -47.5t-39 -116.5z" />
    <glyph glyph-name="Ecaron" unicode="&#x11a;" horiz-adv-x="444" 
d="M146 315v-233h212q43 0 43 -41t-43 -41h-253q-47 0 -47 48v616q0 48 47 48h253q43 0 43 -41t-43 -41h-212v-233h193q43 0 43 -41t-43 -41h-193zM227 767l-129 55q-23 10 -23 35q0 16 10 27t26 11q11 0 22 -5l94 -37l94 37q11 5 22 5q16 0 26 -11t10 -27q0 -25 -23 -35z
" />
    <glyph glyph-name="ecaron" unicode="&#x11b;" horiz-adv-x="520" 
d="M445 232h-331q0 -70 42.5 -116t114.5 -46q40 0 72.5 11t49 25t32.5 25t26 11q13 0 22.5 -10.5t9.5 -28.5q0 -34 -69 -71.5t-144 -37.5q-120 0 -182 78.5t-62 193.5q0 113 65.5 192.5t173.5 79.5q103 0 166 -78t63 -181q0 -24 -11 -35.5t-38 -11.5zM114 298h292
q0 64 -36.5 114t-104.5 50q-75 3 -111.5 -45.5t-39.5 -118.5zM262 607l-129 55q-23 10 -23 35q0 16 10 27t26 11q11 0 22 -5l94 -37l94 37q11 5 22 5q16 0 26 -11t10 -27q0 -25 -23 -35z" />
    <glyph glyph-name="Gcircumflex" unicode="&#x11c;" horiz-adv-x="667" 
d="M559 326h-124q-43 0 -43 41t43 41h148q35 0 49.5 -16t14.5 -56q0 -70 -14 -127t-46.5 -107.5t-94.5 -79t-149 -28.5q-74 0 -134.5 30.5t-98.5 81.5t-58.5 115.5t-20.5 134.5q0 96 33.5 176t109 133t182.5 53q100 0 172 -40t72 -74q0 -18 -12 -30t-30 -12
q-14 0 -33.5 12.5t-39 27.5t-55.5 27.5t-80 12.5q-58 0 -102.5 -25t-70.5 -67t-39 -91.5t-13 -102.5q0 -54 13 -102.5t39 -91t71.5 -67.5t105.5 -25q96 0 150.5 66.5t54.5 147.5v42zM223 840l129 55l129 -55q23 -10 23 -35q0 -16 -10 -27t-26 -11q-11 0 -22 5l-94 37
l-94 -37q-11 -5 -22 -5q-16 0 -26 11t-10 27q0 25 23 35z" />
    <glyph glyph-name="gcircumflex" unicode="&#x11d;" horiz-adv-x="556" 
d="M494 495v-457q0 -117 -65.5 -185.5t-174.5 -68.5q-69 0 -136.5 32t-67.5 65q0 16 9 28.5t28 12.5q15 0 39 -15.5t59 -31t76 -15.5q77 0 111 48.5t34 115.5v46h-2q-45 -76 -135 -76q-108 0 -171 80t-63 192t63 192t171 80q40 0 78 -20.5t57 -46.5h2v24q0 22 13.5 32.5
t33.5 10.5q15 0 28 -11t13 -32zM123 266q0 -78 36 -137t110 -59t110 59t36 137t-36 137t-110 59t-110 -59t-36 -137zM173 680l129 55l129 -55q23 -10 23 -35q0 -16 -10 -27t-26 -11q-11 0 -22 5l-94 37l-94 -37q-11 -5 -22 -5q-16 0 -26 11t-10 27q0 25 23 35z" />
    <glyph glyph-name="Gbreve" unicode="&#x11e;" horiz-adv-x="667" 
d="M559 326h-124q-43 0 -43 41t43 41h148q35 0 49.5 -16t14.5 -56q0 -70 -14 -127t-46.5 -107.5t-94.5 -79t-149 -28.5q-74 0 -134.5 30.5t-98.5 81.5t-58.5 115.5t-20.5 134.5q0 96 33.5 176t109 133t182.5 53q100 0 172 -40t72 -74q0 -18 -12 -30t-30 -12
q-14 0 -33.5 12.5t-39 27.5t-55.5 27.5t-80 12.5q-58 0 -102.5 -25t-70.5 -67t-39 -91.5t-13 -102.5q0 -54 13 -102.5t39 -91t71.5 -67.5t105.5 -25q96 0 150.5 66.5t54.5 147.5v42zM217 857q0 15 8.5 25.5t22.5 10.5q10 0 21.5 -9t21 -19.5t26 -19.5t35.5 -9t35.5 9
t26 19.5t21 19.5t21.5 9q14 0 22.5 -10.5t8.5 -25.5q0 -41 -44.5 -69t-90.5 -28t-90.5 28t-44.5 69z" />
    <glyph glyph-name="gbreve" unicode="&#x11f;" horiz-adv-x="556" 
d="M494 495v-457q0 -117 -65.5 -185.5t-174.5 -68.5q-69 0 -136.5 32t-67.5 65q0 16 9 28.5t28 12.5q15 0 39 -15.5t59 -31t76 -15.5q77 0 111 48.5t34 115.5v46h-2q-45 -76 -135 -76q-108 0 -171 80t-63 192t63 192t171 80q40 0 78 -20.5t57 -46.5h2v24q0 22 13.5 32.5
t33.5 10.5q15 0 28 -11t13 -32zM123 266q0 -78 36 -137t110 -59t110 59t36 137t-36 137t-110 59t-110 -59t-36 -137zM167 697q0 15 8.5 25.5t22.5 10.5q10 0 21.5 -9t21 -19.5t26 -19.5t35.5 -9t35.5 9t26 19.5t21 19.5t21.5 9q14 0 22.5 -10.5t8.5 -25.5q0 -41 -44.5 -69
t-90.5 -28t-90.5 28t-44.5 69z" />
    <glyph glyph-name="Gdotaccent" unicode="&#x120;" horiz-adv-x="667" 
d="M559 326h-124q-43 0 -43 41t43 41h148q35 0 49.5 -16t14.5 -56q0 -70 -14 -127t-46.5 -107.5t-94.5 -79t-149 -28.5q-74 0 -134.5 30.5t-98.5 81.5t-58.5 115.5t-20.5 134.5q0 96 33.5 176t109 133t182.5 53q100 0 172 -40t72 -74q0 -18 -12 -30t-30 -12
q-14 0 -33.5 12.5t-39 27.5t-55.5 27.5t-80 12.5q-58 0 -102.5 -25t-70.5 -67t-39 -91.5t-13 -102.5q0 -54 13 -102.5t39 -91t71.5 -67.5t105.5 -25q96 0 150.5 66.5t54.5 147.5v42zM298 818q0 22 16 38t38 16t38 -16t16 -38t-16 -38t-38 -16t-38 16t-16 38z" />
    <glyph glyph-name="gdotaccent" unicode="&#x121;" horiz-adv-x="556" 
d="M494 495v-457q0 -117 -65.5 -185.5t-174.5 -68.5q-69 0 -136.5 32t-67.5 65q0 16 9 28.5t28 12.5q15 0 39 -15.5t59 -31t76 -15.5q77 0 111 48.5t34 115.5v46h-2q-45 -76 -135 -76q-108 0 -171 80t-63 192t63 192t171 80q40 0 78 -20.5t57 -46.5h2v24q0 22 13.5 32.5
t33.5 10.5q15 0 28 -11t13 -32zM123 266q0 -78 36 -137t110 -59t110 59t36 137t-36 137t-110 59t-110 -59t-36 -137zM248 658q0 22 16 38t38 16t38 -16t16 -38t-16 -38t-38 -16t-38 16t-16 38z" />
    <glyph glyph-name="Gcommaaccent" unicode="&#x122;" horiz-adv-x="667" 
d="M559 326h-124q-43 0 -43 41t43 41h148q35 0 49.5 -16t14.5 -56q0 -70 -14 -127t-46.5 -107.5t-94.5 -79t-149 -28.5q-74 0 -134.5 30.5t-98.5 81.5t-58.5 115.5t-20.5 134.5q0 96 33.5 176t109 133t182.5 53q100 0 172 -40t72 -74q0 -18 -12 -30t-30 -12
q-14 0 -33.5 12.5t-39 27.5t-55.5 27.5t-80 12.5q-58 0 -102.5 -25t-70.5 -67t-39 -91.5t-13 -102.5q0 -54 13 -102.5t39 -91t71.5 -67.5t105.5 -25q96 0 150.5 66.5t54.5 147.5v42zM268 -129l51 69q17 22 36 22q16 0 28.5 -10.5t12.5 -26.5q0 -15 -10 -26l-55 -62
q-14 -17 -33 -17q-14 0 -25.5 9t-11.5 22q0 11 7 20z" />
    <glyph glyph-name="gcommaaccent" unicode="&#x123;" horiz-adv-x="556" 
d="M494 495v-457q0 -117 -65.5 -185.5t-174.5 -68.5q-69 0 -136.5 32t-67.5 65q0 16 9 28.5t28 12.5q15 0 39 -15.5t59 -31t76 -15.5q77 0 111 48.5t34 115.5v46h-2q-45 -76 -135 -76q-108 0 -171 80t-63 192t63 192t171 80q40 0 78 -20.5t57 -46.5h2v24q0 22 13.5 32.5
t33.5 10.5q15 0 28 -11t13 -32zM123 266q0 -78 36 -137t110 -59t110 59t36 137t-36 137t-110 59t-110 -59t-36 -137zM372 678l-51 -69q-17 -22 -36 -22q-16 0 -29 10t-13 26q0 10 10 23l56 66q14 17 33 17q14 0 25.5 -9t11.5 -22q0 -11 -7 -20z" />
    <glyph glyph-name="Hcircumflex" unicode="&#x124;" horiz-adv-x="667" 
d="M146 319v-272q0 -53 -44 -53t-44 53v618q0 53 44 53t44 -53v-270h375v270q0 53 44 53t44 -53v-618q0 -53 -44 -53t-44 53v272h-375zM203 840l129 55l129 -55q23 -10 23 -35q0 -16 -10 -27t-26 -11q-11 0 -22 5l-94 37l-94 -37q-11 -5 -22 -5q-16 0 -26 11t-10 27
q0 25 23 35z" />
    <glyph glyph-name="hcircumflex" unicode="&#x125;" horiz-adv-x="538" 
d="M392 41v290q0 65 -37 98t-86 33t-86 -33t-37 -98v-290q0 -22 -12 -34.5t-32 -12.5t-32 12.5t-12 34.5v684q0 22 12 34.5t32 12.5t32 -12.5t12 -34.5v-255l2 -2q55 70 147 70q33 0 64 -11t59 -33.5t45 -63t17 -94.5v-295q0 -22 -12 -34.5t-32 -12.5t-32 12.5t-12 34.5z
M81 880l129 55l129 -55q23 -10 23 -35q0 -16 -10 -27t-26 -11q-11 0 -22 5l-94 37l-94 -37q-11 -5 -22 -5q-16 0 -26 11t-10 27q0 25 23 35z" />
    <glyph glyph-name="Hbar" unicode="&#x126;" horiz-adv-x="667" 
d="M146 319v-272q0 -53 -44 -53t-44 53v618q0 53 44 53t44 -53v-70h375v70q0 53 44 53t44 -53v-618q0 -53 -44 -53t-44 53v272h-375zM146 395h375v124h-375v-124z" />
    <glyph glyph-name="hbar" unicode="&#x127;" horiz-adv-x="538" 
d="M392 41v290q0 65 -37 98t-86 33t-86 -33t-37 -98v-290q0 -22 -12 -34.5t-32 -12.5t-32 12.5t-12 34.5v550h-30q-43 0 -43 41t43 41h30v52q0 22 12 34.5t32 12.5t32 -12.5t12 -34.5v-52h106q43 0 43 -41t-43 -41h-106v-121l2 -2q55 70 147 70q33 0 64 -11t59 -33.5t45 -63
t17 -94.5v-295q0 -22 -12 -34.5t-32 -12.5t-32 12.5t-12 34.5z" />
    <glyph glyph-name="Itilde" unicode="&#x128;" 
d="M146 671v-630q0 -22 -12 -34.5t-32 -12.5t-32 12.5t-12 34.5v630q0 22 12 34.5t32 12.5t32 -12.5t12 -34.5zM-47 815q0 24 26.5 43.5t66.5 19.5q24 0 57.5 -10t52.5 -10q15 0 33 10t29 10q12 0 22.5 -12t10.5 -27q0 -24 -26.5 -43.5t-66.5 -19.5q-24 0 -57.5 10t-52.5 10
q-15 0 -33 -10t-29 -10q-12 0 -22.5 12t-10.5 27z" />
    <glyph glyph-name="itilde" unicode="&#x129;" 
d="M146 491v-450q0 -22 -12 -34.5t-32 -12.5t-32 12.5t-12 34.5v450q0 22 12 34.5t32 12.5t32 -12.5t12 -34.5zM-47 655q0 24 26.5 43.5t66.5 19.5q24 0 57.5 -10t52.5 -10q15 0 33 10t29 10q12 0 22.5 -12t10.5 -27q0 -24 -26.5 -43.5t-66.5 -19.5q-24 0 -57.5 10t-52.5 10
q-15 0 -33 -10t-29 -10q-12 0 -22.5 12t-10.5 27z" />
    <glyph glyph-name="Imacron" unicode="&#x12a;" 
d="M146 671v-630q0 -22 -12 -34.5t-32 -12.5t-32 12.5t-12 34.5v630q0 22 12 34.5t32 12.5t32 -12.5t12 -34.5zM1 849h202q43 0 43 -41t-43 -41h-202q-43 0 -43 41t43 41z" />
    <glyph glyph-name="imacron" unicode="&#x12b;" 
d="M146 491v-450q0 -22 -12 -34.5t-32 -12.5t-32 12.5t-12 34.5v450q0 22 12 34.5t32 12.5t32 -12.5t12 -34.5zM1 689h202q43 0 43 -41t-43 -41h-202q-43 0 -43 41t43 41z" />
    <glyph glyph-name="Ibreve" unicode="&#x12c;" 
d="M146 671v-630q0 -22 -12 -34.5t-32 -12.5t-32 12.5t-12 34.5v630q0 22 12 34.5t32 12.5t32 -12.5t12 -34.5zM-33 857q0 15 8.5 25.5t22.5 10.5q10 0 21.5 -9t21 -19.5t26 -19.5t35.5 -9t35.5 9t26 19.5t21 19.5t21.5 9q14 0 22.5 -10.5t8.5 -25.5q0 -41 -44.5 -69
t-90.5 -28t-90.5 28t-44.5 69z" />
    <glyph glyph-name="ibreve" unicode="&#x12d;" 
d="M146 491v-450q0 -22 -12 -34.5t-32 -12.5t-32 12.5t-12 34.5v450q0 22 12 34.5t32 12.5t32 -12.5t12 -34.5zM-33 697q0 15 8.5 25.5t22.5 10.5q10 0 21.5 -9t21 -19.5t26 -19.5t35.5 -9t35.5 9t26 19.5t21 19.5t21.5 9q14 0 22.5 -10.5t8.5 -25.5q0 -41 -44.5 -69
t-90.5 -28t-90.5 28t-44.5 69z" />
    <glyph glyph-name="Iogonek" unicode="&#x12e;" 
d="M146 671v-630q0 -27 -18 -40l-25 -23q-37 -34 -37 -68t37 -34q12 0 27.5 4t19.5 4q24 0 24 -23q0 -39 -85 -39q-41 0 -70 19.5t-29 53.5q0 45 55 84l30 22q-17 12 -17 40v630q0 22 12 34.5t32 12.5t32 -12.5t12 -34.5z" />
    <glyph glyph-name="iogonek" unicode="&#x12f;" 
d="M75 2q-17 12 -17 39v450q0 22 12 34.5t32 12.5t32 -12.5t12 -34.5v-450q0 -30 -21 -41l-23 -22q-37 -34 -37 -68t37 -34q12 0 27.5 4t19.5 4q24 0 24 -23q0 -39 -85 -39q-41 0 -70 19.5t-29 53.5q0 45 55 84zM48 664q0 22 16 38t38 16t38 -16t16 -38t-16 -38t-38 -16
t-38 16t-16 38z" />
    <glyph glyph-name="Idotaccent" unicode="&#x130;" 
d="M146 671v-630q0 -22 -12 -34.5t-32 -12.5t-32 12.5t-12 34.5v630q0 22 12 34.5t32 12.5t32 -12.5t12 -34.5zM48 818q0 22 16 38t38 16t38 -16t16 -38t-16 -38t-38 -16t-38 16t-16 38z" />
    <glyph glyph-name="dotlessi" unicode="&#x131;" 
d="M146 491v-450q0 -22 -12 -34.5t-32 -12.5t-32 12.5t-12 34.5v450q0 22 12 34.5t32 12.5t32 -12.5t12 -34.5z" />
    <glyph glyph-name="Jcircumflex" unicode="&#x134;" horiz-adv-x="370" 
d="M224 172v499q0 22 12 34.5t32 12.5t32 -12.5t12 -34.5v-490q0 -187 -173 -187q-44 0 -95 22.5t-51 57.5q0 17 9.5 27t25.5 10t30 -10.5t34.5 -20.5t53.5 -10q78 0 78 102zM139 840l129 55l129 -55q23 -10 23 -35q0 -16 -10 -27t-26 -11q-11 0 -22 5l-94 37l-94 -37
q-11 -5 -22 -5q-16 0 -26 11t-10 27q0 25 23 35z" />
    <glyph glyph-name="jcircumflex" unicode="&#x135;" 
d="M146 491v-660q0 -22 -12 -34.5t-32 -12.5t-32 12.5t-12 34.5v660q0 22 12 34.5t32 12.5t32 -12.5t12 -34.5zM-27 680l129 55l129 -55q23 -10 23 -35q0 -16 -10 -27t-26 -11q-11 0 -22 5l-94 37l-94 -37q-11 -5 -22 -5q-16 0 -26 11t-10 27q0 25 23 35z" />
    <glyph glyph-name="Kcommaaccent" unicode="&#x136;" horiz-adv-x="574" 
d="M146 339v-298q0 -22 -12 -34.5t-32 -12.5t-32 12.5t-12 34.5v630q0 22 12 34.5t32 12.5t32 -12.5t12 -34.5v-260l305 279q30 28 48 28q17 0 27.5 -10.5t10.5 -27.5q0 -24 -18 -40l-292 -263l319 -308q18 -17 18 -36q0 -16 -12.5 -27.5t-30.5 -11.5q-23 0 -43 19z
M206 -129l51 69q17 22 36 22q16 0 28.5 -10.5t12.5 -26.5q0 -15 -10 -26l-55 -62q-14 -17 -33 -17q-14 0 -25.5 9t-11.5 22q0 11 7 20z" />
    <glyph glyph-name="kcommaaccent" unicode="&#x137;" horiz-adv-x="463" 
d="M58 41v684q0 22 12 34.5t32 12.5t32 -12.5t12 -34.5v-375l192 161q30 27 50 27q17 0 27 -11t10 -28q0 -21 -22 -38l-200 -158l232 -229q21 -21 21 -45q0 -15 -11 -25t-26 -10t-25 5.5t-26 21.5l-222 232v-212q0 -22 -12 -34.5t-32 -12.5t-32 12.5t-12 34.5zM159 -129
l51 69q16 22 36 22q16 0 28.5 -10.5t12.5 -26.5q0 -15 -10 -26l-55 -62q-14 -17 -33 -17q-14 0 -25.5 9t-11.5 22q0 11 7 20z" />
    <glyph glyph-name="kgreenlandic" unicode="&#x138;" horiz-adv-x="463" 
d="M58 41v450q0 22 12 34.5t32 12.5t32 -12.5t12 -34.5v-141l192 161q30 27 50 27q17 0 27 -11t10 -28q0 -21 -22 -38l-200 -158l232 -229q21 -21 21 -45q0 -15 -11 -25t-26 -10t-25 5.5t-26 21.5l-222 232v-212q0 -22 -12 -34.5t-32 -12.5t-32 12.5t-12 34.5z" />
    <glyph glyph-name="Lacute" unicode="&#x139;" horiz-adv-x="389" 
d="M146 671v-589h188q43 0 43 -41t-43 -41h-229q-47 0 -47 48v623q0 22 12 34.5t32 12.5t32 -12.5t12 -34.5zM195 823l-115 -47q-22 -9 -34 -9q-18 0 -28 14t-10 28q0 23 35 37l115 47q22 9 34 9q18 0 28 -14t10 -28q0 -23 -35 -37z" />
    <glyph glyph-name="lacute" unicode="&#x13a;" 
d="M146 725v-684q0 -22 -12 -34.5t-32 -12.5t-32 12.5t-12 34.5v684q0 22 12 34.5t32 12.5t32 -12.5t12 -34.5zM195 843l-115 -47q-22 -9 -34 -9q-18 0 -28 14t-10 28q0 23 35 37l115 47q22 9 34 9q18 0 28 -14t10 -28q0 -23 -35 -37z" />
    <glyph glyph-name="Lcommaaccent" unicode="&#x13b;" horiz-adv-x="389" 
d="M146 671v-589h188q43 0 43 -41t-43 -41h-229q-47 0 -47 48v623q0 22 12 34.5t32 12.5t32 -12.5t12 -34.5zM134 -129l51 69q17 22 36 22q16 0 28.5 -10.5t12.5 -26.5q0 -15 -10 -26l-55 -62q-14 -17 -33 -17q-14 0 -25.5 9t-11.5 22q0 11 7 20z" />
    <glyph glyph-name="lcommaaccent" unicode="&#x13c;" 
d="M146 725v-684q0 -22 -12 -34.5t-32 -12.5t-32 12.5t-12 34.5v684q0 22 12 34.5t32 12.5t32 -12.5t12 -34.5zM26 -129l51 69q17 22 36 22q16 0 28.5 -10.5t12.5 -26.5q0 -15 -10 -26l-55 -62q-14 -17 -33 -17q-14 0 -25.5 9t-11.5 22q0 11 7 20z" />
    <glyph glyph-name="Lcaron" unicode="&#x13d;" horiz-adv-x="389" 
d="M146 671v-589h188q43 0 43 -41t-43 -41h-229q-47 0 -47 48v623q0 22 12 34.5t32 12.5t32 -12.5t12 -34.5zM219 661l41 86q11 25 35 25q18 0 30 -10.5t12 -23.5q0 -14 -7 -27l-48 -89q-11 -20 -33 -20q-16 0 -26.5 9t-10.5 20q0 16 7 30z" />
    <glyph glyph-name="lcaron" unicode="&#x13e;" 
d="M146 725v-684q0 -22 -12 -34.5t-32 -12.5t-32 12.5t-12 34.5v684q0 22 12 34.5t32 12.5t32 -12.5t12 -34.5zM194 661l41 86q11 25 35 25q18 0 30 -10.5t12 -23.5q0 -14 -7 -27l-48 -89q-11 -20 -33 -20q-16 0 -26.5 9t-10.5 20q0 16 7 30z" />
    <glyph glyph-name="Ldot" unicode="&#x13f;" horiz-adv-x="389" 
d="M146 671v-589h188q43 0 43 -41t-43 -41h-229q-47 0 -47 48v623q0 22 12 34.5t32 12.5t32 -12.5t12 -34.5zM242 365q0 23 16 38.5t38 15.5t38 -15.5t16 -38.5t-16 -38.5t-38 -15.5t-38 15.5t-16 38.5z" />
    <glyph glyph-name="ldot" unicode="&#x140;" horiz-adv-x="286" 
d="M146 725v-684q0 -22 -12 -34.5t-32 -12.5t-32 12.5t-12 34.5v684q0 22 12 34.5t32 12.5t32 -12.5t12 -34.5zM190 368q0 22 16 38t38 16t38 -16t16 -38t-16 -38t-38 -16t-38 16t-16 38z" />
    <glyph glyph-name="Lslash" unicode="&#x141;" horiz-adv-x="389" 
d="M146 337v-255h188q43 0 43 -41t-43 -41h-229q-47 0 -47 48v238l-13 -8q-20 -11 -37 -11q-16 0 -25.5 12t-9.5 28q0 22 24 35l61 36v293q0 22 12 34.5t32 12.5t32 -12.5t12 -34.5v-242l67 38q22 12 37 12q16 0 26.5 -10.5t10.5 -27.5q0 -23 -24 -37z" />
    <glyph glyph-name="lslash" unicode="&#x142;" 
d="M58 41v243l-21 -21q-16 -16 -33 -16t-28 11.5t-11 26.5q0 17 17 34l76 76v330q0 22 12 34.5t32 12.5t32 -12.5t12 -34.5v-242l21 21q16 16 33 16t28 -11.5t11 -26.5q0 -17 -17 -34l-76 -76v-331q0 -22 -12 -34.5t-32 -12.5t-32 12.5t-12 34.5z" />
    <glyph glyph-name="Nacute" unicode="&#x143;" horiz-adv-x="668" 
d="M146 557v-516q0 -22 -12 -34.5t-32 -12.5t-32 12.5t-12 34.5v625q0 52 40 52q19 0 31 -9.5t31 -36.5l360 -517h2v516q0 22 12 34.5t32 12.5t32 -12.5t12 -34.5v-625q0 -52 -40 -52q-19 0 -31 9.5t-31 36.5l-360 517h-2zM459 823l-115 -47q-22 -9 -34 -9q-18 0 -28 14
t-10 28q0 23 35 37l115 47q22 9 34 9q18 0 28 -14t10 -28q0 -23 -35 -37z" />
    <glyph glyph-name="nacute" unicode="&#x144;" horiz-adv-x="538" 
d="M58 41v450q0 22 12 34.5t32 12.5t32 -12.5t12 -34.5v-21l2 -2q55 70 147 70q33 0 64 -11t59 -33.5t45 -63t17 -94.5v-295q0 -22 -12 -34.5t-32 -12.5t-32 12.5t-12 34.5v290q0 65 -37 98t-86 33t-86 -33t-37 -98v-290q0 -22 -12 -34.5t-32 -12.5t-32 12.5t-12 34.5z
M382 663l-115 -47q-22 -9 -34 -9q-18 0 -28 14t-10 28q0 23 35 37l115 47q22 9 34 9q18 0 28 -14t10 -28q0 -23 -35 -37z" />
    <glyph glyph-name="Ncommaaccent" unicode="&#x145;" horiz-adv-x="668" 
d="M146 557v-516q0 -22 -12 -34.5t-32 -12.5t-32 12.5t-12 34.5v625q0 52 40 52q19 0 31 -9.5t31 -36.5l360 -517h2v516q0 22 12 34.5t32 12.5t32 -12.5t12 -34.5v-625q0 -52 -40 -52q-19 0 -31 9.5t-31 36.5l-360 517h-2zM250 -129l51 69q17 22 36 22q16 0 28.5 -10.5
t12.5 -26.5q0 -15 -10 -26l-55 -62q-14 -17 -33 -17q-14 0 -25.5 9t-11.5 22q0 11 7 20z" />
    <glyph glyph-name="ncommaaccent" unicode="&#x146;" horiz-adv-x="538" 
d="M58 41v450q0 22 12 34.5t32 12.5t32 -12.5t12 -34.5v-21l2 -2q55 70 147 70q33 0 64 -11t59 -33.5t45 -63t17 -94.5v-295q0 -22 -12 -34.5t-32 -12.5t-32 12.5t-12 34.5v290q0 65 -37 98t-86 33t-86 -33t-37 -98v-290q0 -22 -12 -34.5t-32 -12.5t-32 12.5t-12 34.5z
M191 -129l51 69q16 22 36 22q16 0 28.5 -10.5t12.5 -26.5q0 -15 -10 -26l-55 -62q-14 -17 -33 -17q-14 0 -25.5 9t-11.5 22q0 11 7 20z" />
    <glyph glyph-name="Ncaron" unicode="&#x147;" horiz-adv-x="668" 
d="M146 557v-516q0 -22 -12 -34.5t-32 -12.5t-32 12.5t-12 34.5v625q0 52 40 52q19 0 31 -9.5t31 -36.5l360 -517h2v516q0 22 12 34.5t32 12.5t32 -12.5t12 -34.5v-625q0 -52 -40 -52q-19 0 -31 9.5t-31 36.5l-360 517h-2zM334 767l-129 55q-23 10 -23 35q0 16 10 27t26 11
q11 0 22 -5l94 -37l94 37q11 5 22 5q16 0 26 -11t10 -27q0 -25 -23 -35z" />
    <glyph glyph-name="ncaron" unicode="&#x148;" horiz-adv-x="538" 
d="M58 41v450q0 22 12 34.5t32 12.5t32 -12.5t12 -34.5v-21l2 -2q55 70 147 70q33 0 64 -11t59 -33.5t45 -63t17 -94.5v-295q0 -22 -12 -34.5t-32 -12.5t-32 12.5t-12 34.5v290q0 65 -37 98t-86 33t-86 -33t-37 -98v-290q0 -22 -12 -34.5t-32 -12.5t-32 12.5t-12 34.5z
M272 607l-129 55q-23 10 -23 35q0 16 10 27t26 11q11 0 22 -5l94 -37l94 37q11 5 22 5q16 0 26 -11t10 -27q0 -25 -23 -35z" />
    <glyph glyph-name="Eng" unicode="&#x14a;" horiz-adv-x="654" 
d="M506 26l-359 521v-498q0 -55 -45 -55q-44 0 -44 55v618q0 25 12 38t32 13q28 0 49 -30l356 -518v493q0 55 45 55q44 0 44 -55v-698q0 -80 -44 -127.5t-118 -47.5q-61 0 -106.5 27t-45.5 52q0 18 10.5 29.5t26.5 11.5q14 0 33 -15q36 -27 79 -27q75 0 75 97v61z" />
    <glyph glyph-name="eng" unicode="&#x14b;" horiz-adv-x="528" 
d="M147 333v-284q0 -55 -44 -55q-45 0 -45 55v439q0 55 45 55q44 0 44 -55q53 55 128 55q78 0 136.5 -51.5t58.5 -143.5v-383q0 -80 -44 -127.5t-118 -47.5q-61 0 -106.5 27t-45.5 52q0 18 10.5 29.5t26.5 11.5q13 0 33 -15q36 -27 79 -27q76 0 76 97v385q0 50 -31.5 79.5
t-85.5 29.5q-48 0 -82.5 -33.5t-34.5 -92.5z" />
    <glyph glyph-name="Omacron" unicode="&#x14c;" horiz-adv-x="686" 
d="M125 356q0 -73 20 -135t71 -106.5t127 -44.5t127 44.5t71 106.5t20 135t-20 135t-71 106.5t-127 44.5t-127 -44.5t-71 -106.5t-20 -135zM31 356q0 95 34.5 176t107.5 133.5t170 52.5t170 -52.5t107.5 -133.5t34.5 -176t-34.5 -176t-107.5 -133.5t-170 -52.5t-170 52.5
t-107.5 133.5t-34.5 176zM241 849h202q43 0 43 -41t-43 -41h-202q-43 0 -43 41t43 41z" />
    <glyph glyph-name="omacron" unicode="&#x14d;" horiz-adv-x="538" 
d="M35 266q0 112 63 192t171 80t171 -80t63 -192t-63 -192t-171 -80t-171 80t-63 192zM123 266q0 -78 36 -137t110 -59t110 59t36 137t-36 137t-110 59t-110 -59t-36 -137zM169 689h202q43 0 43 -41t-43 -41h-202q-43 0 -43 41t43 41z" />
    <glyph glyph-name="Obreve" unicode="&#x14e;" horiz-adv-x="686" 
d="M125 356q0 -73 20 -135t71 -106.5t127 -44.5t127 44.5t71 106.5t20 135t-20 135t-71 106.5t-127 44.5t-127 -44.5t-71 -106.5t-20 -135zM31 356q0 95 34.5 176t107.5 133.5t170 52.5t170 -52.5t107.5 -133.5t34.5 -176t-34.5 -176t-107.5 -133.5t-170 -52.5t-170 52.5
t-107.5 133.5t-34.5 176zM207 857q0 15 8.5 25.5t22.5 10.5q10 0 21.5 -9t21 -19.5t26 -19.5t35.5 -9t35.5 9t26 19.5t21 19.5t21.5 9q14 0 22.5 -10.5t8.5 -25.5q0 -41 -44.5 -69t-90.5 -28t-90.5 28t-44.5 69z" />
    <glyph glyph-name="obreve" unicode="&#x14f;" horiz-adv-x="538" 
d="M35 266q0 112 63 192t171 80t171 -80t63 -192t-63 -192t-171 -80t-171 80t-63 192zM123 266q0 -78 36 -137t110 -59t110 59t36 137t-36 137t-110 59t-110 -59t-36 -137zM135 697q0 15 8.5 25.5t22.5 10.5q10 0 21.5 -9t21 -19.5t26 -19.5t35.5 -9t35.5 9t26 19.5t21 19.5
t21.5 9q14 0 22.5 -10.5t8.5 -25.5q0 -41 -44.5 -69t-90.5 -28t-90.5 28t-44.5 69z" />
    <glyph glyph-name="Ohungarumlaut" unicode="&#x150;" horiz-adv-x="686" 
d="M125 356q0 -73 20 -135t71 -106.5t127 -44.5t127 44.5t71 106.5t20 135t-20 135t-71 106.5t-127 44.5t-127 -44.5t-71 -106.5t-20 -135zM31 356q0 95 34.5 176t107.5 133.5t170 52.5t170 -52.5t107.5 -133.5t34.5 -176t-34.5 -176t-107.5 -133.5t-170 -52.5t-170 52.5
t-107.5 133.5t-34.5 176zM387 823l-115 -47q-22 -9 -34 -9q-18 0 -28 14t-10 28q0 23 35 37l115 47q22 9 34 9q18 0 28 -14t10 -28q0 -23 -35 -37zM607 823l-115 -47q-22 -9 -34 -9q-18 0 -28 14t-10 28q0 23 35 37l115 47q22 9 34 9q18 0 28 -14t10 -28q0 -23 -35 -37z" />
    <glyph glyph-name="ohungarumlaut" unicode="&#x151;" horiz-adv-x="538" 
d="M35 266q0 112 63 192t171 80t171 -80t63 -192t-63 -192t-171 -80t-171 80t-63 192zM123 266q0 -78 36 -137t110 -59t110 59t36 137t-36 137t-110 59t-110 -59t-36 -137zM308 663l-115 -47q-22 -9 -34 -9q-18 0 -28 14t-10 28q0 23 35 37l115 47q22 9 34 9q18 0 28 -14
t10 -28q0 -23 -35 -37zM528 663l-115 -47q-22 -9 -34 -9q-18 0 -28 14t-10 28q0 23 35 37l115 47q22 9 34 9q18 0 28 -14t10 -28q0 -23 -35 -37z" />
    <glyph glyph-name="OE" unicode="&#x152;" horiz-adv-x="926" 
d="M125 356q0 -73 20 -135t71 -106.5t127 -44.5t127 44.5t71 106.5t20 135t-20 135t-71 106.5t-127 44.5t-127 -44.5t-71 -106.5t-20 -135zM554 48v56h-2q-34 -49 -90 -79.5t-119 -30.5q-97 0 -170 52.5t-107.5 133.5t-34.5 176t34.5 176t107.5 133.5t170 52.5
q121 0 211 -100v46q0 48 47 48h241q43 0 43 -41t-43 -41h-200v-233h193q43 0 43 -41t-43 -41h-193v-233h210q43 0 43 -41t-43 -41h-251q-47 0 -47 48z" />
    <glyph glyph-name="oe" unicode="&#x153;" horiz-adv-x="907" 
d="M501 298h292q0 64 -37.5 114t-108.5 50t-108.5 -50t-37.5 -114zM35 266q0 112 62.5 192t168.5 80q121 0 193 -104q28 48 77 76t111 28q107 0 170.5 -78t63.5 -181q0 -24 -11 -35.5t-38 -11.5h-331q0 -71 43.5 -116t121.5 -44q37 1 67.5 11.5t46 23.5t31.5 23.5t27 11.5
q13 0 22.5 -10.5t9.5 -28.5q1 -21 -29 -46.5t-80 -44t-99 -18.5q-143 0 -203 104q-75 -104 -193 -104q-106 0 -168.5 80t-62.5 192zM268 462q-50 0 -84.5 -31t-47.5 -73.5t-13 -91.5t13 -91.5t47.5 -73.5t84.5 -31t84.5 31t47.5 73.5t13 91.5t-13 91.5t-47.5 73.5t-84.5 31z
" />
    <glyph glyph-name="Racute" unicode="&#x154;" horiz-adv-x="519" 
d="M146 312v-271q0 -22 -12 -34.5t-32 -12.5t-32 12.5t-12 34.5v623q0 48 47 48h163q88 0 153 -54t65 -138q0 -102 -53.5 -150.5t-140.5 -51.5l-38 -1l227 -249q17 -18 17 -40q0 -14 -11.5 -24t-28.5 -10q-22 0 -40 20zM146 636v-253h120q69 0 100.5 31t31.5 100
q0 51 -37 86.5t-97 35.5h-118zM347 823l-115 -47q-22 -9 -34 -9q-18 0 -28 14t-10 28q0 23 35 37l115 47q22 9 34 9q18 0 28 -14t10 -28q0 -23 -35 -37z" />
    <glyph glyph-name="racute" unicode="&#x155;" horiz-adv-x="315" 
d="M58 41v450q0 22 12 34.5t32 12.5t32 -12.5t12 -34.5v-45h2q17 35 51 63.5t69 28.5q23 0 36 -13t13 -32q0 -38 -55 -48q-47 -8 -81.5 -44.5t-34.5 -106.5v-253q0 -22 -12 -34.5t-32 -12.5t-32 12.5t-12 34.5zM261 663l-115 -47q-22 -9 -34 -9q-18 0 -28 14t-10 28
q0 23 35 37l115 47q22 9 34 9q18 0 28 -14t10 -28q0 -23 -35 -37z" />
    <glyph glyph-name="Rcommaaccent" unicode="&#x156;" horiz-adv-x="519" 
d="M146 312v-271q0 -22 -12 -34.5t-32 -12.5t-32 12.5t-12 34.5v623q0 48 47 48h163q88 0 153 -54t65 -138q0 -102 -53.5 -150.5t-140.5 -51.5l-38 -1l227 -249q17 -18 17 -40q0 -14 -11.5 -24t-28.5 -10q-22 0 -40 20zM146 636v-253h120q69 0 100.5 31t31.5 100
q0 51 -37 86.5t-97 35.5h-118zM173 -129l51 69q17 22 36 22q16 0 28.5 -10.5t12.5 -26.5q0 -15 -10 -26l-55 -62q-14 -17 -33 -17q-14 0 -25.5 9t-11.5 22q0 11 7 20z" />
    <glyph glyph-name="rcommaaccent" unicode="&#x157;" horiz-adv-x="315" 
d="M58 41v450q0 22 12 34.5t32 12.5t32 -12.5t12 -34.5v-45h2q17 35 51 63.5t69 28.5q23 0 36 -13t13 -32q0 -38 -55 -48q-47 -8 -81.5 -44.5t-34.5 -106.5v-253q0 -22 -12 -34.5t-32 -12.5t-32 12.5t-12 34.5zM28 -129l51 69q17 22 36 22q16 0 28.5 -10.5t12.5 -26.5
q0 -15 -10 -26l-55 -62q-14 -17 -33 -17q-14 0 -25.5 9t-11.5 22q0 11 7 20z" />
    <glyph glyph-name="Rcaron" unicode="&#x158;" horiz-adv-x="519" 
d="M146 312v-271q0 -22 -12 -34.5t-32 -12.5t-32 12.5t-12 34.5v623q0 48 47 48h163q88 0 153 -54t65 -138q0 -102 -53.5 -150.5t-140.5 -51.5l-38 -1l227 -249q17 -18 17 -40q0 -14 -11.5 -24t-28.5 -10q-22 0 -40 20zM146 636v-253h120q69 0 100.5 31t31.5 100
q0 51 -37 86.5t-97 35.5h-118zM252 767l-129 55q-23 10 -23 35q0 16 10 27t26 11q11 0 22 -5l94 -37l94 37q11 5 22 5q16 0 26 -11t10 -27q0 -25 -23 -35z" />
    <glyph glyph-name="rcaron" unicode="&#x159;" horiz-adv-x="315" 
d="M58 41v450q0 22 12 34.5t32 12.5t32 -12.5t12 -34.5v-45h2q17 35 51 63.5t69 28.5q23 0 36 -13t13 -32q0 -38 -55 -48q-47 -8 -81.5 -44.5t-34.5 -106.5v-253q0 -22 -12 -34.5t-32 -12.5t-32 12.5t-12 34.5zM146 607l-129 55q-23 10 -23 35q0 16 10 27t26 11q11 0 22 -5
l94 -37l94 37q11 5 22 5q16 0 26 -11t10 -27q0 -25 -23 -35z" />
    <glyph glyph-name="Sacute" unicode="&#x15a;" horiz-adv-x="481" 
d="M238 718q68 0 121.5 -24.5t53.5 -58.5q0 -16 -11 -27.5t-27 -11.5q-15 0 -32 11.5t-43.5 23t-64.5 11.5q-49 0 -81 -28t-32 -73q0 -32 18.5 -54.5t48.5 -36.5t66 -26t72 -27.5t66 -36t48.5 -56.5t18.5 -85q0 -93 -65 -159t-176 -66q-74 0 -136 25t-62 61q0 19 9.5 32
t27.5 13q11 0 33 -13.5t56 -27.5t73 -14q66 0 106 42t40 103q0 39 -25 66t-62.5 40t-81.5 30t-81.5 35t-62.5 56t-25 93q0 68 58.5 125.5t151.5 57.5zM344 823l-115 -47q-22 -9 -34 -9q-18 0 -28 14t-10 28q0 23 35 37l115 47q22 9 34 9q18 0 28 -14t10 -28q0 -23 -35 -37z
" />
    <glyph glyph-name="sacute" unicode="&#x15b;" horiz-adv-x="444" 
d="M46 388q0 69 54.5 109.5t126.5 40.5q60 0 118.5 -27.5t58.5 -66.5q0 -15 -10.5 -25.5t-29.5 -10.5q-15 0 -32 13.5t-43 27t-62 13.5q-40 0 -66.5 -17.5t-26.5 -49.5q0 -25 29.5 -45t71 -35t83 -33t71 -49.5t29.5 -74.5q0 -79 -57 -121.5t-137 -42.5t-140 32.5t-60 68.5
q0 18 10.5 29t25.5 11t37 -16.5t55 -32.5t75 -16q46 0 74.5 21.5t28.5 50.5q0 28 -29.5 50.5t-71 39t-83 35t-71 49.5t-29.5 72zM326 663l-115 -47q-22 -9 -34 -9q-18 0 -28 14t-10 28q0 23 35 37l115 47q22 9 34 9q18 0 28 -14t10 -28q0 -23 -35 -37z" />
    <glyph glyph-name="Scircumflex" unicode="&#x15c;" horiz-adv-x="481" 
d="M238 718q68 0 121.5 -24.5t53.5 -58.5q0 -16 -11 -27.5t-27 -11.5q-15 0 -32 11.5t-43.5 23t-64.5 11.5q-49 0 -81 -28t-32 -73q0 -32 18.5 -54.5t48.5 -36.5t66 -26t72 -27.5t66 -36t48.5 -56.5t18.5 -85q0 -93 -65 -159t-176 -66q-74 0 -136 25t-62 61q0 19 9.5 32
t27.5 13q11 0 33 -13.5t56 -27.5t73 -14q66 0 106 42t40 103q0 39 -25 66t-62.5 40t-81.5 30t-81.5 35t-62.5 56t-25 93q0 68 58.5 125.5t151.5 57.5zM113 840l129 55l129 -55q23 -10 23 -35q0 -16 -10 -27t-26 -11q-11 0 -22 5l-94 37l-94 -37q-11 -5 -22 -5q-16 0 -26 11
t-10 27q0 25 23 35z" />
    <glyph glyph-name="scircumflex" unicode="&#x15d;" horiz-adv-x="444" 
d="M46 388q0 69 54.5 109.5t126.5 40.5q60 0 118.5 -27.5t58.5 -66.5q0 -15 -10.5 -25.5t-29.5 -10.5q-15 0 -32 13.5t-43 27t-62 13.5q-40 0 -66.5 -17.5t-26.5 -49.5q0 -25 29.5 -45t71 -35t83 -33t71 -49.5t29.5 -74.5q0 -79 -57 -121.5t-137 -42.5t-140 32.5t-60 68.5
q0 18 10.5 29t25.5 11t37 -16.5t55 -32.5t75 -16q46 0 74.5 21.5t28.5 50.5q0 28 -29.5 50.5t-71 39t-83 35t-71 49.5t-29.5 72zM93 680l129 55l129 -55q23 -10 23 -35q0 -16 -10 -27t-26 -11q-11 0 -22 5l-94 37l-94 -37q-11 -5 -22 -5q-16 0 -26 11t-10 27q0 25 23 35z
" />
    <glyph glyph-name="Scedilla" unicode="&#x15e;" horiz-adv-x="481" 
d="M238 718q68 0 121.5 -24.5t53.5 -58.5q0 -16 -11 -27.5t-27 -11.5q-15 0 -32 11.5t-43.5 23t-64.5 11.5q-49 0 -81 -28t-32 -73q0 -32 18.5 -54.5t48.5 -36.5t66 -26t72 -27.5t66 -36t48.5 -56.5t18.5 -85q0 -82 -51 -144.5t-142 -76.5l-27 -40q15 3 21 3q31 0 50 -18
t19 -37q0 -44 -30 -65t-81 -21q-32 0 -52.5 9.5t-20.5 25.5q0 11 5.5 19t15.5 8q6 0 24 -4t28 -4q35 0 35 27q0 12 -9 15t-35 3q-11 0 -18.5 4t-9.5 8t-2 7q0 10 10 25l22 31q-73 2 -132 26.5t-59 59.5q0 19 9.5 32t27.5 13q11 0 33 -13.5t56 -27.5t73 -14q66 0 106 42
t40 103q0 39 -25 66t-62.5 40t-81.5 30t-81.5 35t-62.5 56t-25 93q0 68 58.5 125.5t151.5 57.5z" />
    <glyph glyph-name="scedilla" unicode="&#x15f;" horiz-adv-x="444" 
d="M46 388q0 69 54.5 109.5t126.5 40.5q60 0 118.5 -27.5t58.5 -66.5q0 -15 -10.5 -25.5t-29.5 -10.5q-15 0 -32 13.5t-43 27t-62 13.5q-40 0 -66.5 -17.5t-26.5 -49.5q0 -25 29.5 -45t71 -35t83 -33t71 -49.5t29.5 -74.5q0 -70 -44.5 -111t-113.5 -50l-26 -39q15 3 21 3
q31 0 50 -18t19 -37q0 -44 -30 -65t-81 -21q-32 0 -52.5 9.5t-20.5 25.5q0 11 5.5 19t15.5 8q6 0 24 -4t28 -4q35 0 35 27q0 12 -9 15t-35 3q-11 0 -18.5 4t-9.5 8t-2 7q0 10 10 25l22 32q-75 4 -128.5 35t-53.5 65q0 18 10.5 29t25.5 11t37 -16.5t55 -32.5t75 -16
q46 0 74.5 21.5t28.5 50.5q0 28 -29.5 50.5t-71 39t-83 35t-71 49.5t-29.5 72z" />
    <glyph glyph-name="Scaron" unicode="&#x160;" horiz-adv-x="481" 
d="M238 718q68 0 121.5 -24.5t53.5 -58.5q0 -16 -11 -27.5t-27 -11.5q-15 0 -32 11.5t-43.5 23t-64.5 11.5q-49 0 -81 -28t-32 -73q0 -32 18.5 -54.5t48.5 -36.5t66 -26t72 -27.5t66 -36t48.5 -56.5t18.5 -85q0 -93 -65 -159t-176 -66q-74 0 -136 25t-62 61q0 19 9.5 32
t27.5 13q11 0 33 -13.5t56 -27.5t73 -14q66 0 106 42t40 103q0 39 -25 66t-62.5 40t-81.5 30t-81.5 35t-62.5 56t-25 93q0 68 58.5 125.5t151.5 57.5zM241 767l-129 55q-23 10 -23 35q0 16 10 27t26 11q11 0 22 -5l94 -37l94 37q11 5 22 5q16 0 26 -11t10 -27q0 -25 -23 -35
z" />
    <glyph glyph-name="scaron" unicode="&#x161;" horiz-adv-x="444" 
d="M46 388q0 69 54.5 109.5t126.5 40.5q60 0 118.5 -27.5t58.5 -66.5q0 -15 -10.5 -25.5t-29.5 -10.5q-15 0 -32 13.5t-43 27t-62 13.5q-40 0 -66.5 -17.5t-26.5 -49.5q0 -25 29.5 -45t71 -35t83 -33t71 -49.5t29.5 -74.5q0 -79 -57 -121.5t-137 -42.5t-140 32.5t-60 68.5
q0 18 10.5 29t25.5 11t37 -16.5t55 -32.5t75 -16q46 0 74.5 21.5t28.5 50.5q0 28 -29.5 50.5t-71 39t-83 35t-71 49.5t-29.5 72zM222 607l-129 55q-23 10 -23 35q0 16 10 27t26 11q11 0 22 -5l94 -37l94 37q11 5 22 5q16 0 26 -11t10 -27q0 -25 -23 -35z" />
    <glyph glyph-name="Tcommaaccent" unicode="&#x162;" horiz-adv-x="444" 
d="M178 41v589h-133q-43 0 -43 41t43 41h354q43 0 43 -41t-43 -41h-133v-589q0 -22 -12 -34.5t-32 -12.5t-32 12.5t-12 34.5zM145 -129l51 69q16 22 36 22q16 0 28.5 -10.5t12.5 -26.5q0 -15 -10 -26l-55 -62q-14 -17 -33 -17q-14 0 -25.5 9t-11.5 22q0 11 7 20z" />
    <glyph glyph-name="tcommaaccent" unicode="&#x163;" horiz-adv-x="260" 
d="M86 532v115q0 22 12 34.5t32 12.5t32 -12.5t12 -34.5v-115h36q44 0 44 -38t-44 -38h-36v-415q0 -22 -12 -34.5t-32 -12.5t-32 12.5t-12 34.5v415h-36q-44 0 -44 38t44 38h36zM57 -129l51 69q16 22 36 22q16 0 28.5 -10.5t12.5 -26.5q0 -15 -10 -26l-55 -62
q-14 -17 -33 -17q-14 0 -25.5 9t-11.5 22q0 11 7 20z" />
    <glyph glyph-name="Tcaron" unicode="&#x164;" horiz-adv-x="444" 
d="M178 41v589h-133q-43 0 -43 41t43 41h354q43 0 43 -41t-43 -41h-133v-589q0 -22 -12 -34.5t-32 -12.5t-32 12.5t-12 34.5zM222 767l-129 55q-23 10 -23 35q0 16 10 27t26 11q11 0 22 -5l94 -37l94 37q11 5 22 5q16 0 26 -11t10 -27q0 -25 -23 -35z" />
    <glyph glyph-name="tcaron" unicode="&#x165;" horiz-adv-x="260" 
d="M86 532v115q0 22 12 34.5t32 12.5t32 -12.5t12 -34.5v-115h36q44 0 44 -38t-44 -38h-36v-415q0 -22 -12 -34.5t-32 -12.5t-32 12.5t-12 34.5v415h-36q-44 0 -44 38t44 38h36zM221 661l41 86q11 25 35 25q18 0 30 -10.5t12 -23.5q0 -14 -7 -27l-48 -89q-11 -20 -33 -20
q-16 0 -26.5 9t-10.5 20q0 16 7 30z" />
    <glyph glyph-name="Tbar" unicode="&#x166;" horiz-adv-x="444" 
d="M108 503h70v127h-133q-43 0 -43 41t43 41h354q43 0 43 -41t-43 -41h-133v-127h70q43 0 43 -41t-43 -41h-70v-380q0 -22 -12 -34.5t-32 -12.5t-32 12.5t-12 34.5v380h-70q-43 0 -43 41t43 41z" />
    <glyph glyph-name="tbar" unicode="&#x167;" horiz-adv-x="260" 
d="M86 532v115q0 22 12 34.5t32 12.5t32 -12.5t12 -34.5v-115h36q44 0 44 -38t-44 -38h-36v-65h36q44 0 44 -38t-44 -38h-36v-274q0 -22 -12 -34.5t-32 -12.5t-32 12.5t-12 34.5v274h-36q-44 0 -44 38t44 38h36v65h-36q-44 0 -44 38t44 38h36z" />
    <glyph glyph-name="Utilde" unicode="&#x168;" horiz-adv-x="668" 
d="M58 282v389q0 22 12 34.5t32 12.5t32 -12.5t12 -34.5v-423q0 -83 51.5 -130.5t136.5 -47.5t136.5 47.5t51.5 130.5v423q0 22 12 34.5t32 12.5t32 -12.5t12 -34.5v-389q0 -69 -17.5 -122t-44.5 -83.5t-64.5 -50t-73.5 -26t-76 -6.5t-76 6.5t-73.5 26t-64.5 50t-44.5 83.5
t-17.5 122zM187 815q0 24 26.5 43.5t66.5 19.5q24 0 57.5 -10t52.5 -10q15 0 33 10t29 10q12 0 22.5 -12t10.5 -27q0 -24 -26.5 -43.5t-66.5 -19.5q-24 0 -57.5 10t-52.5 10q-15 0 -33 -10t-29 -10q-12 0 -22.5 12t-10.5 27z" />
    <glyph glyph-name="utilde" unicode="&#x169;" horiz-adv-x="538" 
d="M58 206v285q0 22 12 34.5t32 12.5t32 -12.5t12 -34.5v-282q0 -139 123 -139t123 139v282q0 22 12 34.5t32 12.5t32 -12.5t12 -34.5v-285q0 -109 -60.5 -160.5t-150.5 -51.5t-150.5 51.5t-60.5 160.5zM123 655q0 24 26.5 43.5t66.5 19.5q24 0 57.5 -10t52.5 -10
q15 0 33 10t29 10q12 0 22.5 -12t10.5 -27q0 -24 -26.5 -43.5t-66.5 -19.5q-24 0 -57.5 10t-52.5 10q-15 0 -33 -10t-29 -10q-12 0 -22.5 12t-10.5 27z" />
    <glyph glyph-name="Umacron" unicode="&#x16a;" horiz-adv-x="668" 
d="M58 282v389q0 22 12 34.5t32 12.5t32 -12.5t12 -34.5v-423q0 -83 51.5 -130.5t136.5 -47.5t136.5 47.5t51.5 130.5v423q0 22 12 34.5t32 12.5t32 -12.5t12 -34.5v-389q0 -69 -17.5 -122t-44.5 -83.5t-64.5 -50t-73.5 -26t-76 -6.5t-76 6.5t-73.5 26t-64.5 50t-44.5 83.5
t-17.5 122zM235 849h202q43 0 43 -41t-43 -41h-202q-43 0 -43 41t43 41z" />
    <glyph glyph-name="umacron" unicode="&#x16b;" horiz-adv-x="538" 
d="M58 206v285q0 22 12 34.5t32 12.5t32 -12.5t12 -34.5v-282q0 -139 123 -139t123 139v282q0 22 12 34.5t32 12.5t32 -12.5t12 -34.5v-285q0 -109 -60.5 -160.5t-150.5 -51.5t-150.5 51.5t-60.5 160.5zM171 689h202q43 0 43 -41t-43 -41h-202q-43 0 -43 41t43 41z" />
    <glyph glyph-name="Ubreve" unicode="&#x16c;" horiz-adv-x="668" 
d="M58 282v389q0 22 12 34.5t32 12.5t32 -12.5t12 -34.5v-423q0 -83 51.5 -130.5t136.5 -47.5t136.5 47.5t51.5 130.5v423q0 22 12 34.5t32 12.5t32 -12.5t12 -34.5v-389q0 -69 -17.5 -122t-44.5 -83.5t-64.5 -50t-73.5 -26t-76 -6.5t-76 6.5t-73.5 26t-64.5 50t-44.5 83.5
t-17.5 122zM201 857q0 15 8.5 25.5t22.5 10.5q10 0 21.5 -9t21 -19.5t26 -19.5t35.5 -9t35.5 9t26 19.5t21 19.5t21.5 9q14 0 22.5 -10.5t8.5 -25.5q0 -41 -44.5 -69t-90.5 -28t-90.5 28t-44.5 69z" />
    <glyph glyph-name="ubreve" unicode="&#x16d;" horiz-adv-x="538" 
d="M58 206v285q0 22 12 34.5t32 12.5t32 -12.5t12 -34.5v-282q0 -139 123 -139t123 139v282q0 22 12 34.5t32 12.5t32 -12.5t12 -34.5v-285q0 -109 -60.5 -160.5t-150.5 -51.5t-150.5 51.5t-60.5 160.5zM137 697q0 15 8.5 25.5t22.5 10.5q10 0 21.5 -9t21 -19.5t26 -19.5
t35.5 -9t35.5 9t26 19.5t21 19.5t21.5 9q14 0 22.5 -10.5t8.5 -25.5q0 -41 -44.5 -69t-90.5 -28t-90.5 28t-44.5 69z" />
    <glyph glyph-name="Uring" unicode="&#x16e;" horiz-adv-x="668" 
d="M58 282v389q0 22 12 34.5t32 12.5t32 -12.5t12 -34.5v-423q0 -83 51.5 -130.5t136.5 -47.5t136.5 47.5t51.5 130.5v423q0 22 12 34.5t32 12.5t32 -12.5t12 -34.5v-389q0 -69 -17.5 -122t-44.5 -83.5t-64.5 -50t-73.5 -26t-76 -6.5t-76 6.5t-73.5 26t-64.5 50t-44.5 83.5
t-17.5 122zM242 828q0 39 27.5 66.5t66.5 27.5t66.5 -27.5t27.5 -66.5t-27.5 -66.5t-66.5 -27.5t-66.5 27.5t-27.5 66.5zM290 828q0 -19 13.5 -32.5t32.5 -13.5t32.5 13.5t13.5 32.5t-13.5 32.5t-32.5 13.5t-32.5 -13.5t-13.5 -32.5z" />
    <glyph glyph-name="uring" unicode="&#x16f;" horiz-adv-x="538" 
d="M58 206v285q0 22 12 34.5t32 12.5t32 -12.5t12 -34.5v-282q0 -139 123 -139t123 139v282q0 22 12 34.5t32 12.5t32 -12.5t12 -34.5v-285q0 -109 -60.5 -160.5t-150.5 -51.5t-150.5 51.5t-60.5 160.5zM178 678q0 39 27.5 66.5t66.5 27.5t66.5 -27.5t27.5 -66.5
t-27.5 -66.5t-66.5 -27.5t-66.5 27.5t-27.5 66.5zM226 678q0 -19 13.5 -32.5t32.5 -13.5t32.5 13.5t13.5 32.5t-13.5 32.5t-32.5 13.5t-32.5 -13.5t-13.5 -32.5z" />
    <glyph glyph-name="Uhungarumlaut" unicode="&#x170;" horiz-adv-x="668" 
d="M58 282v389q0 22 12 34.5t32 12.5t32 -12.5t12 -34.5v-423q0 -83 51.5 -130.5t136.5 -47.5t136.5 47.5t51.5 130.5v423q0 22 12 34.5t32 12.5t32 -12.5t12 -34.5v-389q0 -69 -17.5 -122t-44.5 -83.5t-64.5 -50t-73.5 -26t-76 -6.5t-76 6.5t-73.5 26t-64.5 50t-44.5 83.5
t-17.5 122zM364 823l-115 -47q-22 -9 -34 -9q-18 0 -28 14t-10 28q0 23 35 37l115 47q22 9 34 9q18 0 28 -14t10 -28q0 -23 -35 -37zM584 823l-115 -47q-22 -9 -34 -9q-18 0 -28 14t-10 28q0 23 35 37l115 47q22 9 34 9q18 0 28 -14t10 -28q0 -23 -35 -37z" />
    <glyph glyph-name="uhungarumlaut" unicode="&#x171;" horiz-adv-x="538" 
d="M58 206v285q0 22 12 34.5t32 12.5t32 -12.5t12 -34.5v-282q0 -139 123 -139t123 139v282q0 22 12 34.5t32 12.5t32 -12.5t12 -34.5v-285q0 -109 -60.5 -160.5t-150.5 -51.5t-150.5 51.5t-60.5 160.5zM289 663l-115 -47q-22 -9 -34 -9q-18 0 -28 14t-10 28q0 23 35 37
l115 47q22 9 34 9q18 0 28 -14t10 -28q0 -23 -35 -37zM509 663l-115 -47q-22 -9 -34 -9q-18 0 -28 14t-10 28q0 23 35 37l115 47q22 9 34 9q18 0 28 -14t10 -28q0 -23 -35 -37z" />
    <glyph glyph-name="Uogonek" unicode="&#x172;" horiz-adv-x="668" 
d="M58 282v389q0 22 12 34.5t32 12.5t32 -12.5t12 -34.5v-423q0 -83 51.5 -130.5t136.5 -47.5t136.5 47.5t51.5 130.5v423q0 22 12 34.5t32 12.5t32 -12.5t12 -34.5v-389q0 -76 -20 -132t-55 -87t-73.5 -46.5t-84.5 -20.5l-19 -18q-37 -34 -37 -68t37 -34q12 0 27.5 4
t19.5 4q24 0 24 -23q0 -39 -85 -39q-41 0 -70 19.5t-29 53.5q0 45 55 84l20 15q-50 2 -92 15t-82.5 43t-64 89t-23.5 141z" />
    <glyph glyph-name="uogonek" unicode="&#x173;" horiz-adv-x="538" 
d="M58 206v285q0 22 12 34.5t32 12.5t32 -12.5t12 -34.5v-282q0 -139 123 -139t123 139v282q0 22 12 34.5t32 12.5t32 -12.5t12 -34.5v-285q0 -97 -48.5 -148.5t-125.5 -61.5l-19 -18q-37 -34 -37 -68t37 -34q12 0 27.5 4t19.5 4q24 0 24 -23q0 -39 -85 -39q-41 0 -70 19.5
t-29 53.5q0 45 55 84l21 16q-83 5 -137.5 56.5t-54.5 154.5z" />
    <glyph glyph-name="Wcircumflex" unicode="&#x174;" horiz-adv-x="834" 
d="M208 108l164 575q10 35 45 35t45 -35l164 -575h2l93 569q7 41 48 41q18 0 29 -11.5t11 -28.5q0 -19 -5 -45l-108 -581q-11 -58 -63 -58q-28 0 -43.5 11.5t-25.5 46.5l-146 522h-2l-146 -522q-10 -35 -25.5 -46.5t-43.5 -11.5q-52 0 -63 58l-108 581q-5 26 -5 45
q0 17 11 28.5t29 11.5q41 0 48 -41l93 -569h2zM289 840l129 55l129 -55q23 -10 23 -35q0 -16 -10 -27t-26 -11q-11 0 -22 5l-94 37l-94 -37q-11 -5 -22 -5q-16 0 -26 11t-10 27q0 25 23 35z" />
    <glyph glyph-name="wcircumflex" unicode="&#x175;" horiz-adv-x="742" 
d="M155 40l-146 425q-7 23 -7 34q0 15 10.5 27t31.5 12q35 0 49 -45l113 -363h2l111 350q10 33 20 45.5t32 12.5t32 -12.5t20 -45.5l111 -350h2l113 363q14 45 49 45q21 0 31.5 -12t10.5 -27q0 -11 -7 -34l-146 -425q-16 -46 -51 -46t-50 46l-114 359h-2l-114 -359
q-15 -46 -50 -46t-51 46zM243 680l129 55l129 -55q23 -10 23 -35q0 -16 -10 -27t-26 -11q-11 0 -22 5l-94 37l-94 -37q-11 -5 -22 -5q-16 0 -26 11t-10 27q0 25 23 35z" />
    <glyph glyph-name="Ycircumflex" unicode="&#x176;" horiz-adv-x="500" 
d="M206 41v293l-191 311q-14 22 -14 37q0 16 11.5 26t28.5 10q27 0 44 -28l165 -269l165 269q17 28 44 28q17 0 28.5 -10t11.5 -26q0 -15 -14 -37l-191 -311v-293q0 -22 -12 -34.5t-32 -12.5t-32 12.5t-12 34.5zM121 840l129 55l129 -55q23 -10 23 -35q0 -16 -10 -27
t-26 -11q-11 0 -22 5l-94 37l-94 -37q-11 -5 -22 -5q-16 0 -26 11t-10 27q0 25 23 35z" />
    <glyph glyph-name="ycircumflex" unicode="&#x177;" horiz-adv-x="444" 
d="M179 19l-150 433q-12 36 -12 49q0 16 12 26.5t28 10.5q34 0 44 -33l122 -365h2l120 365q10 33 42 33q16 0 28 -10.5t12 -26.5q0 -13 -12 -49l-222 -635q-12 -33 -43 -33q-16 0 -28 10.5t-12 26.5q0 14 13 49zM97 680l129 55l129 -55q23 -10 23 -35q0 -16 -10 -27t-26 -11
q-11 0 -22 5l-94 37l-94 -37q-11 -5 -22 -5q-16 0 -26 11t-10 27q0 25 23 35z" />
    <glyph glyph-name="Ydieresis" unicode="&#x178;" horiz-adv-x="500" 
d="M206 41v293l-191 311q-14 22 -14 37q0 16 11.5 26t28.5 10q27 0 44 -28l165 -269l165 269q17 28 44 28q17 0 28.5 -10t11.5 -26q0 -15 -14 -37l-191 -311v-293q0 -22 -12 -34.5t-32 -12.5t-32 12.5t-12 34.5zM103 818q0 22 15.5 38t38.5 16t38.5 -16t15.5 -38t-15.5 -38
t-38.5 -16t-38.5 16t-15.5 38zM289 818q0 22 15.5 38t38.5 16t38.5 -16t15.5 -38t-15.5 -38t-38.5 -16t-38.5 16t-15.5 38z" />
    <glyph glyph-name="Zacute" unicode="&#x179;" horiz-adv-x="556" 
d="M41 87l366 549h-323q-19 0 -31 10t-12 28t12 28t31 10h389q21 0 33.5 -9t12.5 -22q0 -24 -22 -56l-367 -549h359q19 0 31 -10t12 -28t-12 -28t-31 -10h-413q-52 0 -52 40q0 22 17 47zM371 823l-115 -47q-22 -9 -34 -9q-18 0 -28 14t-10 28q0 23 35 37l115 47q22 9 34 9
q18 0 28 -14t10 -28q0 -23 -35 -37z" />
    <glyph glyph-name="zacute" unicode="&#x17a;" horiz-adv-x="444" 
d="M141 76h239q44 0 44 -38t-44 -38h-317q-43 0 -43 31q0 19 18 45l254 380h-218q-44 0 -44 38t44 38h296q43 0 43 -31q0 -19 -18 -45l-257 -378zM315 663l-115 -47q-22 -9 -34 -9q-18 0 -28 14t-10 28q0 23 35 37l115 47q22 9 34 9q18 0 28 -14t10 -28q0 -23 -35 -37z" />
    <glyph glyph-name="Zdotaccent" unicode="&#x17b;" horiz-adv-x="556" 
d="M41 87l366 549h-323q-19 0 -31 10t-12 28t12 28t31 10h389q21 0 33.5 -9t12.5 -22q0 -24 -22 -56l-367 -549h359q19 0 31 -10t12 -28t-12 -28t-31 -10h-413q-52 0 -52 40q0 22 17 47zM224 818q0 22 16 38t38 16t38 -16t16 -38t-16 -38t-38 -16t-38 16t-16 38z" />
    <glyph glyph-name="zdotaccent" unicode="&#x17c;" horiz-adv-x="444" 
d="M141 76h239q44 0 44 -38t-44 -38h-317q-43 0 -43 31q0 19 18 45l254 380h-218q-44 0 -44 38t44 38h296q43 0 43 -31q0 -19 -18 -45l-257 -378zM164 658q0 22 16 38t38 16t38 -16t16 -38t-16 -38t-38 -16t-38 16t-16 38z" />
    <glyph glyph-name="Zcaron" unicode="&#x17d;" horiz-adv-x="556" 
d="M41 87l366 549h-323q-19 0 -31 10t-12 28t12 28t31 10h389q21 0 33.5 -9t12.5 -22q0 -24 -22 -56l-367 -549h359q19 0 31 -10t12 -28t-12 -28t-31 -10h-413q-52 0 -52 40q0 22 17 47zM278 767l-129 55q-23 10 -23 35q0 16 10 27t26 11q11 0 22 -5l94 -37l94 37q11 5 22 5
q16 0 26 -11t10 -27q0 -25 -23 -35z" />
    <glyph glyph-name="zcaron" unicode="&#x17e;" horiz-adv-x="444" 
d="M141 76h239q44 0 44 -38t-44 -38h-317q-43 0 -43 31q0 19 18 45l254 380h-218q-44 0 -44 38t44 38h296q43 0 43 -31q0 -19 -18 -45l-257 -378zM222 607l-129 55q-23 10 -23 35q0 16 10 27t26 11q11 0 22 -5l94 -37l94 37q11 5 22 5q16 0 26 -11t10 -27q0 -25 -23 -35z
" />
    <glyph glyph-name="florin" unicode="&#x192;" horiz-adv-x="536" 
d="M147 432h63l22 124q15 86 50.5 124t105.5 38q66 0 66 -38q0 -32 -57 -32q-34 0 -52.5 -25t-28.5 -80l-20 -111h62q16 0 27 -11t11 -27t-11 -27t-27 -11h-75l-72 -396q-18 -97 -50.5 -136.5t-114.5 -39.5q-65 0 -65 40q0 37 45 37h41q25 0 38.5 28.5t25.5 95.5l66 371h-50
q-16 0 -27 11t-11 27t11 27t27 11z" />
    <glyph glyph-name="Aringacute" unicode="&#x1fa;" horiz-adv-x="612" 
d="M212 691q0 39 27.5 66.5t66.5 27.5t66.5 -27.5t27.5 -66.5q0 -33 -20 -58l210 -558q12 -36 12 -44q0 -17 -12 -27t-30 -10q-31 0 -43 33l-46 128h-330l-46 -128q-12 -33 -43 -33q-18 0 -30 10t-12 27q0 8 12 44l209 558q-19 25 -19 58zM444 231l-131 366h-15l-130 -366
h276zM253 875l96 41q14 6 29 6q16 0 25.5 -12.5t9.5 -30.5q0 -21 -32 -36h-1l-96 -37q-14 -6 -28 -6t-24 12.5t-10 26.5q0 22 31 36zM260 691q0 -19 13.5 -32.5t32.5 -13.5t32.5 13.5t13.5 32.5t-13.5 32.5t-32.5 13.5t-32.5 -13.5t-13.5 -32.5z" />
    <glyph glyph-name="aringacute" unicode="&#x1fb;" horiz-adv-x="556" 
d="M498 495v-458q0 -21 -13 -32t-28 -11q-16 0 -28.5 11t-12.5 32v37h-2q-56 -80 -145 -80q-108 0 -171 80t-63 192t63 192t171 80q80 0 145 -71h2v28q0 21 12.5 32t28.5 11q15 0 28 -11t13 -32zM123 266q0 -78 36 -137t110 -59t110 59t36 137t-36 137t-110 59t-110 -59
t-36 -137zM184 668q0 39 27.5 66.5t66.5 27.5t66.5 -27.5t27.5 -66.5t-27.5 -66.5t-66.5 -27.5t-66.5 27.5t-27.5 66.5zM232 668q0 -19 13.5 -32.5t32.5 -13.5t32.5 13.5t13.5 32.5t-13.5 32.5t-32.5 13.5t-32.5 -13.5t-13.5 -32.5zM233 865l96 41q14 6 29 6
q16 0 25.5 -12.5t9.5 -30.5q0 -21 -32 -36h-1l-96 -37q-14 -6 -28 -6t-24 12.5t-10 26.5q0 22 31 36z" />
    <glyph glyph-name="AEacute" unicode="&#x1fc;" horiz-adv-x="759" 
d="M461 315v-233h212q43 0 43 -41t-43 -41h-253q-47 0 -47 48v107h-231l-68 -133q-13 -28 -42 -28q-18 0 -29.5 9.5t-11.5 22.5q0 15 13 41l311 607q13 25 24.5 31.5t36.5 6.5h287q43 0 43 -41t-43 -41h-202v-233h193q43 0 43 -41t-43 -41h-193zM373 231v379h-2l-191 -379
h193zM532 823l-115 -47q-22 -9 -34 -9q-18 0 -28 14t-10 28q0 23 35 37l115 47q22 9 34 9q18 0 28 -14t10 -28q0 -23 -35 -37z" />
    <glyph glyph-name="aeacute" unicode="&#x1fd;" horiz-adv-x="889" 
d="M123 266q0 -78 36 -137t110 -59t110 59t36 137t-36 137t-110 59t-110 -59t-36 -137zM415 37v37h-2q-55 -80 -144 -80q-108 0 -171 80t-63 192t63 192t171 80q81 0 144 -71h2v28q0 21 12.5 32t28.5 11q15 0 28 -11t13 -32v-22h2q13 18 53 41.5t87 23.5q89 0 156.5 -72.5
t67.5 -186.5q0 -24 -11 -35.5t-38 -11.5h-325q2 -65 45 -113t116 -47q37 1 67 11.5t45.5 23.5t31 23.5t26.5 11.5q13 0 22.5 -10.5t9.5 -28.5q1 -21 -28 -47t-76 -44t-92 -18q-106 0 -157 64h-2v-21q0 -21 -13 -32t-28 -11q-16 0 -28.5 11t-12.5 32zM495 298h280
q0 64 -36.5 114t-104.5 50q-70 0 -104.5 -49.5t-34.5 -114.5zM545 663l-115 -47q-22 -9 -34 -9q-18 0 -28 14t-10 28q0 23 35 37l115 47q22 9 34 9q18 0 28 -14t10 -28q0 -23 -35 -37z" />
    <glyph glyph-name="Oslashacute" unicode="&#x1fe;" horiz-adv-x="686" 
d="M160 190l332 388q-57 64 -149 64q-76 0 -127 -44.5t-71 -106.5t-20 -135q0 -96 35 -166zM527 524l-333 -389q55 -65 149 -65q76 0 127 44.5t71 106.5t20 135q0 97 -34 168zM545 639l59 70q14 17 31 17q12 0 21.5 -7.5t9.5 -20.5t-12 -26l-69 -80q70 -99 70 -236
q0 -95 -34.5 -176t-107.5 -133.5t-170 -52.5q-120 0 -202 80l-61 -72q-14 -16 -31 -16q-13 0 -21 8.5t-8 18.5q0 13 14 30l66 77q-69 100 -69 236q0 95 34.5 176t107.5 133.5t170 52.5q120 0 202 -79zM439 823l-115 -47q-22 -9 -34 -9q-18 0 -28 14t-10 28q0 23 35 37
l115 47q22 9 34 9q18 0 28 -14t10 -28q0 -23 -35 -37z" />
    <glyph glyph-name="oslashacute" unicode="&#x1ff;" horiz-adv-x="538" 
d="M41 39l45 54q-51 69 -51 173q0 112 63 192t171 80q84 0 143 -51l41 50q15 19 31 19q13 0 22 -8t9 -20q0 -14 -14 -31l-48 -57q50 -76 50 -174q0 -112 -63 -192t-171 -80q-84 0 -142 52l-42 -51q-14 -19 -32 -19q-12 0 -21 8.5t-9 19.5q0 14 18 35zM143 162l218 263
q-35 37 -92 37q-74 0 -110 -59t-36 -137q0 -58 20 -104zM395 370l-218 -263q35 -37 92 -37q74 0 110 59t36 137q0 60 -20 104zM374 663l-115 -47q-22 -9 -34 -9q-18 0 -28 14t-10 28q0 23 35 37l115 47q22 9 34 9q18 0 28 -14t10 -28q0 -23 -35 -37z" />
    <glyph glyph-name="Scommaaccent" unicode="&#x218;" horiz-adv-x="481" 
d="M238 718q68 0 121.5 -24.5t53.5 -58.5q0 -16 -11 -27.5t-27 -11.5q-15 0 -32 11.5t-43.5 23t-64.5 11.5q-49 0 -81 -28t-32 -73q0 -32 18.5 -54.5t48.5 -36.5t66 -26t72 -27.5t66 -36t48.5 -56.5t18.5 -85q0 -93 -65 -159t-176 -66q-74 0 -136 25t-62 61q0 19 9.5 32
t27.5 13q11 0 33 -13.5t56 -27.5t73 -14q66 0 106 42t40 103q0 39 -25 66t-62.5 40t-81.5 30t-81.5 35t-62.5 56t-25 93q0 68 58.5 125.5t151.5 57.5zM152 -129l51 69q17 22 36 22q16 0 28.5 -10.5t12.5 -26.5q0 -15 -10 -26l-55 -62q-14 -17 -33 -17q-14 0 -25.5 9
t-11.5 22q0 11 7 20z" />
    <glyph glyph-name="scommaaccent" unicode="&#x219;" horiz-adv-x="444" 
d="M46 388q0 69 54.5 109.5t126.5 40.5q60 0 118.5 -27.5t58.5 -66.5q0 -15 -10.5 -25.5t-29.5 -10.5q-15 0 -32 13.5t-43 27t-62 13.5q-40 0 -66.5 -17.5t-26.5 -49.5q0 -25 29.5 -45t71 -35t83 -33t71 -49.5t29.5 -74.5q0 -79 -57 -121.5t-137 -42.5t-140 32.5t-60 68.5
q0 18 10.5 29t25.5 11t37 -16.5t55 -32.5t75 -16q46 0 74.5 21.5t28.5 50.5q0 28 -29.5 50.5t-71 39t-83 35t-71 49.5t-29.5 72zM140 -129l51 69q17 22 36 22q16 0 28.5 -10.5t12.5 -26.5q0 -15 -10 -26l-55 -62q-14 -17 -33 -17q-14 0 -25.5 9t-11.5 22q0 11 7 20z" />
    <glyph glyph-name="uni021A" unicode="&#x21a;" horiz-adv-x="444" 
d="M178 41v589h-133q-43 0 -43 41t43 41h354q43 0 43 -41t-43 -41h-133v-589q0 -22 -12 -34.5t-32 -12.5t-32 12.5t-12 34.5zM145 -129l51 69q16 22 36 22q16 0 28.5 -10.5t12.5 -26.5q0 -15 -10 -26l-55 -62q-14 -17 -33 -17q-14 0 -25.5 9t-11.5 22q0 11 7 20z" />
    <glyph glyph-name="uni021B" unicode="&#x21b;" horiz-adv-x="260" 
d="M86 532v115q0 22 12 34.5t32 12.5t32 -12.5t12 -34.5v-115h36q44 0 44 -38t-44 -38h-36v-415q0 -22 -12 -34.5t-32 -12.5t-32 12.5t-12 34.5v415h-36q-44 0 -44 38t44 38h36zM57 -129l51 69q16 22 36 22q16 0 28.5 -10.5t12.5 -26.5q0 -15 -10 -26l-55 -62
q-14 -17 -33 -17q-14 0 -25.5 9t-11.5 22q0 11 7 20z" />
    <glyph glyph-name="dotlessj" unicode="&#x237;" 
d="M146 491v-660q0 -22 -12 -34.5t-32 -12.5t-32 12.5t-12 34.5v660q0 22 12 34.5t32 12.5t32 -12.5t12 -34.5z" />
    <glyph glyph-name="circumflex" unicode="&#x2c6;" 
d="M-27 680l129 55l129 -55q23 -10 23 -35q0 -16 -10 -27t-26 -11q-11 0 -22 5l-94 37l-94 -37q-11 -5 -22 -5q-16 0 -26 11t-10 27q0 25 23 35z" />
    <glyph glyph-name="caron" unicode="&#x2c7;" 
d="M102 607l-129 55q-23 10 -23 35q0 16 10 27t26 11q11 0 22 -5l94 -37l94 37q11 5 22 5q16 0 26 -11t10 -27q0 -25 -23 -35z" />
    <glyph glyph-name="uni02C9" unicode="&#x2c9;" 
d="M1 689h202q43 0 43 -41t-43 -41h-202q-43 0 -43 41t43 41z" />
    <glyph glyph-name="breve" unicode="&#x2d8;" 
d="M-33 697q0 15 8.5 25.5t22.5 10.5q10 0 21.5 -9t21 -19.5t26 -19.5t35.5 -9t35.5 9t26 19.5t21 19.5t21.5 9q14 0 22.5 -10.5t8.5 -25.5q0 -41 -44.5 -69t-90.5 -28t-90.5 28t-44.5 69z" />
    <glyph glyph-name="dotaccent" unicode="&#x2d9;" 
d="M48 658q0 22 16 38t38 16t38 -16t16 -38t-16 -38t-38 -16t-38 16t-16 38z" />
    <glyph glyph-name="ring" unicode="&#x2da;" 
d="M8 678q0 39 27.5 66.5t66.5 27.5t66.5 -27.5t27.5 -66.5t-27.5 -66.5t-66.5 -27.5t-66.5 27.5t-27.5 66.5zM56 678q0 -19 13.5 -32.5t32.5 -13.5t32.5 13.5t13.5 32.5t-13.5 32.5t-32.5 13.5t-32.5 -13.5t-13.5 -32.5z" />
    <glyph glyph-name="ogonek" unicode="&#x2db;" 
d="M146 2h53l-26 -24q-37 -34 -37 -68t37 -34q12 0 27.5 4t19.5 4q24 0 24 -23q0 -39 -85 -39q-41 0 -70 19.5t-29 53.5q0 45 55 84z" />
    <glyph glyph-name="tilde" unicode="&#x2dc;" 
d="M-47 655q0 24 26.5 43.5t66.5 19.5q24 0 57.5 -10t52.5 -10q15 0 33 10t29 10q12 0 22.5 -12t10.5 -27q0 -24 -26.5 -43.5t-66.5 -19.5q-24 0 -57.5 10t-52.5 10q-15 0 -33 -10t-29 -10q-12 0 -22.5 12t-10.5 27z" />
    <glyph glyph-name="hungarumlaut" unicode="&#x2dd;" 
d="M68 663l-115 -47q-22 -9 -34 -9q-18 0 -28 14t-10 28q0 23 35 37l115 47q22 9 34 9q18 0 28 -14t10 -28q0 -23 -35 -37zM288 663l-115 -47q-22 -9 -34 -9q-18 0 -28 14t-10 28q0 23 35 37l115 47q22 9 34 9q18 0 28 -14t10 -28q0 -23 -35 -37z" />
    <glyph glyph-name="uni0394" unicode="&#x394;" horiz-adv-x="630" 
d="M24 0v56q134 345 240 625h103l238 -625v-56h-581zM121 80h382q-1 4 -155 407q-33 88 -35 91l-36 -92q-141 -369 -156 -406z" />
    <glyph glyph-name="uni03A9" unicode="&#x3a9;" horiz-adv-x="718" 
d="M299 0h-223q-5 0 -13 1.5t-21 11.5t-13 28q0 11 5 19.5t11.5 12.5t13.5 6.5t12 4.5l5 1h84q-118 107 -118 272q0 145 92 240.5t229 95.5q139 0 226 -94t87 -233q0 -170 -120 -283h87q5 0 12.5 -1.5t20.5 -12t13 -28.5t-11.5 -28t-23.5 -11l-12 -2h-223v65
q67 45 110.5 121t43.5 167q0 97 -57 176.5t-154 79.5q-99 0 -157.5 -78t-58.5 -179q0 -86 44.5 -166t108.5 -120v-66z" />
    <glyph glyph-name="uni03BC" unicode="&#x3bc;" horiz-adv-x="536" 
d="M62 -156v644q0 55 45 55q44 0 44 -55v-291q0 -60 31 -92.5t86 -32.5t86 32.5t31 92.5v291q0 55 44 55q45 0 45 -55v-449q0 -19 -13 -32t-32 -13q-30 0 -41 28q-49 -28 -120 -28q-68 0 -117 42v-192q0 -54 -44 -54q-45 0 -45 54z" />
    <glyph glyph-name="pi" unicode="&#x3c0;" horiz-adv-x="611" 
d="M112 47v417h-22q-5 0 -13 1t-21 11t-13 28q0 17 11.5 27t23.5 11l12 1h427q5 0 13 -1t21 -11t13 -27q0 -18 -12 -28t-24 -11l-11 -1h-28v-341q0 -25 5 -37.5t22 -12.5q16 0 52 17v-73q-50 -23 -78 -23q-51 0 -70.5 30t-23.5 82q-1 18 -1 54v304h-190v-417q0 -5 -1.5 -13
t-13 -21t-32.5 -13q-20 0 -31.5 12t-12.5 24z" />
    <glyph glyph-name="uni0400" unicode="&#x400;" horiz-adv-x="444" 
d="M146 315v-233h212q43 0 43 -41t-43 -41h-253q-47 0 -47 48v616q0 48 47 48h253q43 0 43 -41t-43 -41h-212v-233h193q43 0 43 -41t-43 -41h-193zM261 776l-115 47q-35 14 -35 37q0 14 10 28t28 14q12 0 34 -9l115 -47q35 -14 35 -37q0 -14 -10 -28t-28 -14q-12 0 -34 9z
" />
    <glyph glyph-name="afii10023" unicode="&#x401;" horiz-adv-x="444" 
d="M75 818q0 22 15.5 38t38.5 16t38.5 -16t15.5 -38t-15.5 -38t-38.5 -16t-38.5 16t-15.5 38zM261 818q0 22 15.5 38t38.5 16t38.5 -16t15.5 -38t-15.5 -38t-38.5 -16t-38.5 16t-15.5 38zM146 315v-233h212q43 0 43 -41t-43 -41h-253q-47 0 -47 48v616q0 48 47 48h253
q43 0 43 -41t-43 -41h-212v-233h193q43 0 43 -41t-43 -41h-193z" />
    <glyph glyph-name="afii10051" unicode="&#x402;" horiz-adv-x="668" 
d="M265 631v-185h124q124 0 186.5 -63.5t62.5 -164.5q0 -94 -58 -159t-127 -65q-53 0 -53 42q0 37 45 42q44 5 74.5 41t30.5 95q0 84 -46.5 118t-129.5 34h-109v-319q0 -53 -45 -53q-44 0 -44 53v584h-127q-21 0 -34 11.5t-13 28.5q0 18 13 29.5t34 11.5h393q21 0 34 -11.5
t13 -29.5q0 -17 -13 -28.5t-34 -11.5h-177z" />
    <glyph glyph-name="afii10052" unicode="&#x403;" horiz-adv-x="434" 
d="M330 823l-115 -47q-22 -9 -34 -9q-18 0 -28 14t-10 28q0 23 35 37l115 47q22 9 34 9q18 0 28 -14t10 -28q0 -23 -35 -37zM149 631v-584q0 -53 -44 -53t-44 53v621q0 19 13 31.5t31 12.5h285q21 0 33.5 -11.5t12.5 -29.5q0 -17 -12.5 -28.5t-33.5 -11.5h-241z" />
    <glyph glyph-name="afii10053" unicode="&#x404;" horiz-adv-x="602" 
d="M349 718q90 0 147.5 -37t57.5 -67q0 -20 -11 -31t-26 -11q-12 0 -27.5 11t-30 24t-44.5 24t-67 11q-90 0 -149.5 -64.5t-71.5 -181.5h268q21 0 33.5 -11.5t12.5 -28.5q0 -18 -12.5 -29.5t-33.5 -11.5h-269q4 -44 18.5 -85t39.5 -78t66.5 -59.5t93.5 -22.5q47 0 86.5 16
t65 32t38.5 16q15 0 25 -11.5t10 -29.5q0 -34 -66 -66.5t-160 -32.5q-141 0 -226.5 102.5t-85.5 259.5q0 98 35.5 178.5t109 132t173.5 51.5z" />
    <glyph glyph-name="afii10054" unicode="&#x405;" horiz-adv-x="481" 
d="M238 718q68 0 121.5 -24.5t53.5 -58.5q0 -16 -11 -27.5t-27 -11.5q-15 0 -32 11.5t-43.5 23t-64.5 11.5q-49 0 -81 -28t-32 -73q0 -32 18.5 -54.5t48.5 -36.5t66 -26t72 -27.5t66 -36t48.5 -56.5t18.5 -85q0 -93 -65 -159t-176 -66q-74 0 -136 25t-62 61q0 19 9.5 32
t27.5 13q11 0 33 -13.5t56 -27.5t73 -14q66 0 106 42t40 103q0 39 -25 66t-62.5 40t-81.5 30t-81.5 35t-62.5 56t-25 93q0 68 58.5 125.5t151.5 57.5z" />
    <glyph glyph-name="afii10055" unicode="&#x406;" 
d="M146 671v-630q0 -22 -12 -34.5t-32 -12.5t-32 12.5t-12 34.5v630q0 22 12 34.5t32 12.5t32 -12.5t12 -34.5z" />
    <glyph glyph-name="afii10056" unicode="&#x407;" 
d="M-45 818q0 22 15.5 38t38.5 16t38.5 -16t15.5 -38t-15.5 -38t-38.5 -16t-38.5 16t-15.5 38zM141 818q0 22 15.5 38t38.5 16t38.5 -16t15.5 -38t-15.5 -38t-38.5 -16t-38.5 16t-15.5 38zM146 671v-630q0 -22 -12 -34.5t-32 -12.5t-32 12.5t-12 34.5v630q0 22 12 34.5
t32 12.5t32 -12.5t12 -34.5z" />
    <glyph glyph-name="afii10057" unicode="&#x408;" horiz-adv-x="370" 
d="M224 172v499q0 22 12 34.5t32 12.5t32 -12.5t12 -34.5v-490q0 -187 -173 -187q-44 0 -95 22.5t-51 57.5q0 17 9.5 27t25.5 10t30 -10.5t34.5 -20.5t53.5 -10q78 0 78 102z" />
    <glyph glyph-name="afii10058" unicode="&#x409;" horiz-adv-x="984" 
d="M257 631l-45 -406q-27 -231 -170 -231q-19 0 -30 12t-11 32q0 27 30 35q41 9 63 49.5t34 148.5l45 395q4 46 50 46h319q20 0 33 -12t13 -30v-253h162q98 0 157 -56t59 -152q0 -89 -59 -149t-173 -60h-184q-51 0 -51 46v585h-242zM588 336v-256h138q71 0 111 33t40 96
q0 59 -39.5 93t-107.5 34h-142z" />
    <glyph glyph-name="afii10059" unicode="&#x40a;" horiz-adv-x="1006" 
d="M146 336v-289q0 -53 -44 -53t-44 53v618q0 53 44 53t44 -53v-248h375v248q0 53 44 53q45 0 45 -53v-248h161q98 0 157.5 -56t59.5 -152q0 -89 -59 -149t-173 -60h-184q-51 0 -51 46v290h-375zM610 336v-256h138q71 0 111 33t40 96q0 59 -40 93t-108 34h-141z" />
    <glyph glyph-name="afii10060" unicode="&#x40b;" horiz-adv-x="680" 
d="M265 631v-185h109q119 0 191.5 -63t72.5 -182v-153q0 -54 -44 -54t-44 54v139q0 93 -49 136t-133 43h-103v-319q0 -53 -45 -53q-44 0 -44 53v584h-127q-21 0 -34 11.5t-13 28.5q0 18 13 29.5t34 11.5h393q21 0 34 -11.5t13 -29.5q0 -17 -13 -28.5t-34 -11.5h-177z" />
    <glyph glyph-name="afii10061" unicode="&#x40c;" horiz-adv-x="574" 
d="M385 823l-115 -47q-22 -9 -34 -9q-18 0 -28 14t-10 28q0 23 35 37l115 47q22 9 34 9q18 0 28 -14t10 -28q0 -23 -35 -37zM146 339v-298q0 -22 -12 -34.5t-32 -12.5t-32 12.5t-12 34.5v630q0 22 12 34.5t32 12.5t32 -12.5t12 -34.5v-260l305 279q30 28 48 28
q17 0 27.5 -10.5t10.5 -27.5q0 -24 -18 -40l-292 -263l319 -308q18 -17 18 -36q0 -16 -12.5 -27.5t-30.5 -11.5q-23 0 -43 19z" />
    <glyph glyph-name="uni040D" unicode="&#x40d;" horiz-adv-x="673" 
d="M523 47v509h-2l-365 -525q-17 -22 -26.5 -29.5t-25.5 -7.5q-43 0 -43 52v619q0 53 44 53t44 -53v-503h2l362 519q15 20 26.5 28.5t28.5 8.5q19 0 31.5 -13t12.5 -37v-621q0 -53 -44 -53q-45 0 -45 53zM345 776l-115 47q-35 14 -35 37q0 14 10 28t28 14q12 0 34 -9
l115 -47q35 -14 35 -37q0 -14 -10 -28t-28 -14q-12 0 -34 9z" />
    <glyph glyph-name="afii10062" unicode="&#x40e;" horiz-adv-x="588" 
d="M164 857q0 15 8.5 25.5t22.5 10.5q10 0 21.5 -9t21 -19.5t26 -19.5t35.5 -9t35.5 9t26 19.5t21 19.5t21.5 9q14 0 22.5 -10.5t8.5 -25.5q0 -41 -44.5 -69t-90.5 -28t-90.5 28t-44.5 69zM302 269l192 412q17 37 47 37q19 0 31 -11t12 -28q0 -18 -20 -59l-223 -474
q-38 -78 -84.5 -115t-123.5 -37q-46 0 -71.5 12.5t-25.5 35.5q0 18 10 30t25 12q8 0 27 -3t35 -3q67 0 103 67l15 29l-221 440q-22 46 -22 63q0 16 12 28.5t32 12.5q28 0 46 -32z" />
    <glyph glyph-name="afii10145" unicode="&#x40f;" horiz-adv-x="667" 
d="M523 81v584q0 53 44 53t44 -53v-619q0 -46 -51 -46h-179v-122q0 -52 -43 -52t-43 52v122h-188q-20 0 -33 12t-13 30v623q0 53 44 53t44 -53v-584h374z" />
    <glyph glyph-name="afii10017" unicode="&#x410;" horiz-adv-x="612" 
d="M141 155l-46 -128q-12 -33 -43 -33q-18 0 -30 10t-12 27q0 8 12 44l221 589q19 54 63 54t63 -54l221 -589q12 -36 12 -44q0 -17 -12 -27t-30 -10q-31 0 -43 33l-46 128h-330zM444 231l-137 385h-2l-137 -385h276z" />
    <glyph glyph-name="afii10018" unicode="&#x411;" horiz-adv-x="546" 
d="M149 417h162q98 0 157.5 -56t59.5 -152q0 -89 -59.5 -149t-173.5 -60h-183q-51 0 -51 46v622q0 19 13 31.5t31 12.5h283q21 0 34 -11.5t13 -29.5q0 -17 -13 -28.5t-34 -11.5h-239v-214zM149 336v-256h139q71 0 110.5 33t39.5 96q0 59 -39.5 93t-107.5 34h-142z" />
    <glyph glyph-name="afii10019" unicode="&#x412;" horiz-adv-x="537" 
d="M146 636v-225h100q55 0 86.5 32.5t31.5 82.5t-29 80t-86 30h-103zM146 339v-263h124q65 0 107 36.5t42 95.5q0 57 -39 94t-106 37h-128zM58 48v616q0 48 47 48h155q89 0 140.5 -52t51.5 -118q0 -58 -27.5 -100t-71.5 -56v-2q65 -7 109.5 -56.5t44.5 -119.5
q0 -88 -62.5 -148t-170.5 -60h-169q-47 0 -47 48z" />
    <glyph glyph-name="afii10020" unicode="&#x413;" horiz-adv-x="434" 
d="M149 631v-584q0 -53 -44 -53t-44 53v621q0 19 13 31.5t31 12.5h285q21 0 33.5 -11.5t12.5 -29.5q0 -17 -12.5 -28.5t-33.5 -11.5h-241z" />
    <glyph glyph-name="afii10021" unicode="&#x414;" horiz-adv-x="750" 
d="M650 0h-556v-122q0 -52 -43 -52t-43 52v160q0 19 12.5 31t31.5 12h44q58 52 73 195l46 390q6 46 51 46h317q20 0 33 -12t13 -30v-589h63q19 0 31.5 -12t12.5 -31v-160q0 -52 -43 -52t-43 52v122zM300 631l-46 -391q-13 -105 -54 -159h340v550h-240z" />
    <glyph glyph-name="afii10022" unicode="&#x415;" horiz-adv-x="444" 
d="M146 315v-233h212q43 0 43 -41t-43 -41h-253q-47 0 -47 48v616q0 48 47 48h253q43 0 43 -41t-43 -41h-212v-233h193q43 0 43 -41t-43 -41h-193z" />
    <glyph glyph-name="afii10024" unicode="&#x416;" horiz-adv-x="942" 
d="M515 412l301 279q27 27 50 27q17 0 28.5 -11.5t11.5 -27.5q0 -21 -19 -37l-290 -264l313 -304q22 -20 22 -40q0 -17 -12 -28.5t-30 -11.5q-23 0 -53 32l-322 314v-293q0 -53 -44 -53t-44 53v293l-322 -314q-32 -32 -54 -32q-18 0 -29.5 11.5t-11.5 28.5q0 19 21 40
l314 304l-291 264q-19 16 -19 37q0 16 11.5 27.5t28.5 11.5q23 0 50 -27l302 -279v253q0 53 44 53t44 -53v-253z" />
    <glyph glyph-name="afii10025" unicode="&#x417;" horiz-adv-x="505" 
d="M346 530q0 47 -30 77.5t-81 30.5q-41 0 -69.5 -17t-46 -33.5t-31.5 -16.5q-17 0 -29 13t-12 30q0 35 55 70.5t140 35.5q97 0 148 -53t51 -124q0 -115 -105 -164q62 -14 98.5 -59.5t36.5 -109.5q0 -95 -67.5 -156.5t-173.5 -61.5q-98 0 -158.5 37.5t-60.5 70.5q0 20 12 33
t31 13q13 0 30.5 -11t34.5 -24.5t47.5 -24.5t64.5 -11q64 0 104 34.5t40 90.5q0 130 -183 130q-26 0 -40 11t-14 29q0 43 49 43q76 0 117.5 32.5t41.5 84.5z" />
    <glyph glyph-name="afii10026" unicode="&#x418;" horiz-adv-x="673" 
d="M523 47v509h-2l-365 -525q-17 -22 -26.5 -29.5t-25.5 -7.5q-43 0 -43 52v619q0 53 44 53t44 -53v-503h2l362 519q15 20 26.5 28.5t28.5 8.5q19 0 31.5 -13t12.5 -37v-621q0 -53 -44 -53q-45 0 -45 53z" />
    <glyph glyph-name="afii10027" unicode="&#x419;" horiz-adv-x="673" 
d="M208 857q0 15 8.5 25.5t22.5 10.5q10 0 21.5 -9t21 -19.5t26 -19.5t35.5 -9t35.5 9t26 19.5t21 19.5t21.5 9q14 0 22.5 -10.5t8.5 -25.5q0 -41 -44.5 -69t-90.5 -28t-90.5 28t-44.5 69zM523 47v509h-2l-365 -525q-17 -22 -26.5 -29.5t-25.5 -7.5q-43 0 -43 52v619
q0 53 44 53t44 -53v-503h2l362 519q15 20 26.5 28.5t28.5 8.5q19 0 31.5 -13t12.5 -37v-621q0 -53 -44 -53q-45 0 -45 53z" />
    <glyph glyph-name="afii10028" unicode="&#x41a;" horiz-adv-x="574" 
d="M146 339v-298q0 -22 -12 -34.5t-32 -12.5t-32 12.5t-12 34.5v630q0 22 12 34.5t32 12.5t32 -12.5t12 -34.5v-260l305 279q30 28 48 28q17 0 27.5 -10.5t10.5 -27.5q0 -24 -18 -40l-292 -263l319 -308q18 -17 18 -36q0 -16 -12.5 -27.5t-30.5 -11.5q-23 0 -43 19z" />
    <glyph glyph-name="afii10029" unicode="&#x41b;" horiz-adv-x="646" 
d="M257 631l-45 -406q-27 -231 -170 -231q-19 0 -30 12t-11 32q0 27 30 35q41 9 63 49.5t34 148.5l45 395q4 46 50 46h319q20 0 33 -12t13 -30v-623q0 -53 -44 -53q-45 0 -45 53v584h-242z" />
    <glyph glyph-name="afii10030" unicode="&#x41c;" horiz-adv-x="834" 
d="M200 604l-83 -572q-5 -38 -47 -38q-41 0 -41 45q0 12 5 40l97 572q12 67 69 67q50 0 64 -46l152 -521h2l152 521q14 46 64 46q57 0 69 -67l97 -572q5 -28 5 -40q0 -45 -41 -45q-42 0 -47 38l-83 572h-2l-170 -574q-11 -36 -45 -36t-45 36l-170 574h-2z" />
    <glyph glyph-name="afii10031" unicode="&#x41d;" horiz-adv-x="667" 
d="M146 319v-272q0 -53 -44 -53t-44 53v618q0 53 44 53t44 -53v-270h375v270q0 53 44 53t44 -53v-618q0 -53 -44 -53t-44 53v272h-375z" />
    <glyph glyph-name="afii10032" unicode="&#x41e;" horiz-adv-x="686" 
d="M125 356q0 -73 20 -135t71 -106.5t127 -44.5t127 44.5t71 106.5t20 135t-20 135t-71 106.5t-127 44.5t-127 -44.5t-71 -106.5t-20 -135zM31 356q0 95 34.5 176t107.5 133.5t170 52.5t170 -52.5t107.5 -133.5t34.5 -176t-34.5 -176t-107.5 -133.5t-170 -52.5t-170 52.5
t-107.5 133.5t-34.5 176z" />
    <glyph glyph-name="afii10033" unicode="&#x41f;" horiz-adv-x="666" 
d="M520 631h-374v-584q0 -53 -44 -53t-44 53v619q0 46 51 46h453q20 0 33 -12t13 -30v-623q0 -53 -44 -53t-44 53v584z" />
    <glyph glyph-name="afii10034" unicode="&#x420;" horiz-adv-x="519" 
d="M146 266v-225q0 -22 -12 -34.5t-32 -12.5t-32 12.5t-12 34.5v623q0 48 47 48h174q105 0 168 -64t63 -160q0 -93 -65.5 -157.5t-162.5 -64.5h-136zM146 636v-294h130q64 0 105 42t41 104q0 60 -37 104t-113 44h-126z" />
    <glyph glyph-name="afii10035" unicode="&#x421;" horiz-adv-x="593" 
d="M125 356q0 -114 56.5 -200t161.5 -86q47 0 86.5 16t65.5 32t39 16q16 0 25.5 -11t9.5 -30q0 -35 -68 -67t-158 -32q-99 0 -171.5 52.5t-106.5 133.5t-34 176q0 71 20.5 135t58.5 115t100 81.5t138 30.5q86 0 146 -36t60 -68q0 -18 -10 -30t-26 -12q-15 0 -35 17.5
t-53.5 35t-81.5 17.5q-57 0 -101 -25t-70 -67t-39 -91.5t-13 -102.5z" />
    <glyph glyph-name="afii10036" unicode="&#x422;" horiz-adv-x="444" 
d="M178 41v589h-133q-43 0 -43 41t43 41h354q43 0 43 -41t-43 -41h-133v-589q0 -22 -12 -34.5t-32 -12.5t-32 12.5t-12 34.5z" />
    <glyph glyph-name="afii10037" unicode="&#x423;" horiz-adv-x="588" 
d="M302 269l192 412q17 37 47 37q19 0 31 -11t12 -28q0 -18 -20 -59l-223 -474q-38 -78 -84.5 -115t-123.5 -37q-46 0 -71.5 12.5t-25.5 35.5q0 18 10 30t25 12q8 0 27 -3t35 -3q67 0 103 67l15 29l-221 440q-22 46 -22 63q0 16 12 28.5t32 12.5q28 0 46 -32z" />
    <glyph glyph-name="afii10038" unicode="&#x424;" horiz-adv-x="736" 
d="M412 68v-36q0 -25 -12 -39t-32 -14t-32 14t-12 39v36q-139 11 -225.5 87t-86.5 202q0 125 87 201t225 87v36q0 53 44 53t44 -53v-36q138 -11 225 -87t87 -201q0 -126 -86.5 -202t-225.5 -87zM628 357q0 96 -61 146.5t-155 57.5v-410q95 9 155.5 59t60.5 147zM109 357
q0 -97 60 -147t155 -59v410q-94 -7 -154.5 -57.5t-60.5 -146.5z" />
    <glyph glyph-name="afii10039" unicode="&#x425;" horiz-adv-x="594" 
d="M297 313l-204 -291q-20 -28 -44 -28q-15 0 -27.5 11t-12.5 26t14 36l223 315l-186 263q-14 20 -14 36t11.5 26.5t27.5 10.5q25 0 45 -28l167 -244l167 244q20 28 45 28q16 0 27.5 -10.5t11.5 -26.5t-14 -36l-186 -263l223 -315q14 -21 14 -36t-12.5 -26t-27.5 -11
q-24 0 -44 28z" />
    <glyph glyph-name="afii10040" unicode="&#x426;" horiz-adv-x="731" 
d="M631 0h-527q-20 0 -33 12t-13 30v623q0 53 44 53t44 -53v-584h374v584q0 53 44 53t44 -53v-584h65q19 0 31.5 -12t12.5 -31v-160q0 -52 -43 -52t-43 52v122z" />
    <glyph glyph-name="afii10041" unicode="&#x427;" horiz-adv-x="624" 
d="M478 280h-158q-118 0 -195 69t-77 190v126q0 53 44 53t44 -53v-117q0 -91 53 -139t134 -48h155v304q0 53 44 53t44 -53v-618q0 -53 -44 -53t-44 53v233z" />
    <glyph glyph-name="afii10042" unicode="&#x428;" horiz-adv-x="892" 
d="M746 81v584q0 53 44 53t44 -53v-621q0 -19 -13 -31.5t-31 -12.5h-686q-20 0 -33 12t-13 30v623q0 53 44 53t44 -53v-584h256v584q0 53 44 53t44 -53v-584h256z" />
    <glyph glyph-name="afii10043" unicode="&#x429;" horiz-adv-x="957" 
d="M746 81v584q0 53 44 53t44 -53v-584h65q19 0 31.5 -12t12.5 -31v-160q0 -52 -43 -52t-43 52v122h-753q-20 0 -33 12t-13 30v623q0 53 44 53t44 -53v-584h256v584q0 53 44 53t44 -53v-584h256z" />
    <glyph glyph-name="afii10044" unicode="&#x42a;" horiz-adv-x="703" 
d="M218 631h-169q-21 0 -34 11.5t-13 28.5q0 18 13 29.5t34 11.5h214q19 0 31.5 -12t12.5 -31v-252h162q98 0 157 -56t59 -152q0 -89 -59 -149t-173 -60h-184q-51 0 -51 46v585zM307 336v-256h138q71 0 111 33t40 96q0 59 -39.5 93t-107.5 34h-142z" />
    <glyph glyph-name="afii10045" unicode="&#x42b;" horiz-adv-x="748" 
d="M687 665v-618q0 -53 -45 -53q-44 0 -44 53v618q0 53 44 53q45 0 45 -53zM149 417h148q98 0 157.5 -56t59.5 -152q0 -89 -59.5 -149t-173.5 -60h-169q-51 0 -51 46v619q0 53 44 53t44 -53v-248zM149 336v-256h125q70 0 110 33t40 96q0 59 -39.5 93t-107.5 34h-128z" />
    <glyph glyph-name="afii10046" unicode="&#x42c;" horiz-adv-x="546" 
d="M149 417h162q98 0 157.5 -56t59.5 -152q0 -89 -59.5 -149t-173.5 -60h-183q-51 0 -51 46v619q0 53 44 53t44 -53v-248zM149 336v-256h139q71 0 110.5 33t39.5 96q0 59 -39.5 93t-107.5 34h-142z" />
    <glyph glyph-name="afii10047" unicode="&#x42d;" horiz-adv-x="613" 
d="M483 396q-11 120 -73 181t-149 61q-39 0 -72.5 -10.5t-51 -23.5t-34 -23.5t-26.5 -10.5q-16 0 -27.5 12.5t-11.5 32.5q0 33 68.5 69t159.5 36q79 0 140.5 -30.5t98.5 -82t56 -116t19 -136.5q0 -158 -88.5 -260.5t-243.5 -102.5q-87 0 -152 35t-65 69q0 43 38 43
q10 0 31 -16t60 -32t91 -16q108 0 167 66t66 174h-269q-21 0 -33.5 11.5t-12.5 29.5q0 17 12.5 28.5t33.5 11.5h268z" />
    <glyph glyph-name="afii10048" unicode="&#x42e;" horiz-adv-x="913" 
d="M149 406h136q13 134 90.5 224t204.5 90q93 0 162 -52t102 -133.5t33 -178.5t-33 -178.5t-102 -133.5t-162 -52q-131 0 -209.5 96t-87.5 236h-134v-277q0 -53 -44 -53t-44 53v618q0 53 44 53t44 -53v-259zM579 639q-70 0 -117.5 -45t-65.5 -106t-18 -132t18 -132
t65.5 -106t117.5 -45t117.5 45t65.5 106t18 132t-18 132t-65.5 106t-117.5 45z" />
    <glyph glyph-name="afii10049" unicode="&#x42f;" horiz-adv-x="519" 
d="M373 41v271l-272 -298q-18 -20 -40 -20q-17 0 -28.5 10t-11.5 24q0 22 17 40l224 245l-38 1q-86 3 -138.5 52.5t-52.5 148.5q0 86 61.5 141.5t156.5 55.5h163q47 0 47 -48v-623q0 -22 -12 -34.5t-32 -12.5t-32 12.5t-12 34.5zM373 383v253h-118q-66 0 -100 -36.5
t-34 -85.5q0 -70 38.5 -100.5t112.5 -30.5h101z" />
    <glyph glyph-name="afii10065" unicode="&#x430;" horiz-adv-x="556" 
d="M498 495v-458q0 -21 -13 -32t-28 -11q-16 0 -28.5 11t-12.5 32v37h-2q-56 -80 -145 -80q-108 0 -171 80t-63 192t63 192t171 80q80 0 145 -71h2v28q0 21 12.5 32t28.5 11q15 0 28 -11t13 -32zM123 266q0 -78 36 -137t110 -59t110 59t36 137t-36 137t-110 59t-110 -59
t-36 -137z" />
    <glyph glyph-name="afii10066" unicode="&#x431;" horiz-adv-x="540" 
d="M505 265q0 -120 -62.5 -196.5t-176.5 -76.5q-51 0 -92 18.5t-66.5 48t-42.5 69.5t-23.5 81.5t-6.5 85.5q0 331 194 394q20 7 45 11t60 8.5t50 6.5q14 2 32 7t28 5q19 0 28 -12.5t9 -29.5q0 -32 -52 -43q-18 -4 -69.5 -9.5t-82.5 -11.5q-118 -21 -145 -162h3q59 74 155 74
q101 0 158 -71.5t57 -196.5zM276 459q-68 0 -108.5 -48.5t-40.5 -147.5q0 -78 35.5 -137t107.5 -59t107.5 58.5t35.5 137.5q0 196 -137 196z" />
    <glyph glyph-name="afii10067" unicode="&#x432;" horiz-adv-x="500" 
d="M58 46v441q0 45 50 45h151q79 0 124.5 -33t45.5 -101q0 -81 -81 -112v-2q124 -15 124 -129q0 -69 -53 -112t-150 -43h-161q-50 0 -50 46zM145 458v-146h89q109 0 109 76q0 34 -25.5 52t-68.5 18h-104zM145 238v-164h125q53 0 84 20t31 60q0 84 -123 84h-117z" />
    <glyph glyph-name="afii10068" unicode="&#x433;" horiz-adv-x="359" 
d="M145 451v-405q0 -24 -12 -38t-32 -14t-31.5 14t-11.5 38v448q0 16 10 27t30 11h222q44 0 44 -40q0 -41 -44 -41h-175z" />
    <glyph glyph-name="afii10069" unicode="&#x434;" horiz-adv-x="605" 
d="M508 0h-416v-97q0 -52 -42 -52t-42 52v134q0 19 12 31t31 12h15q43 42 65 152l50 256q5 23 16.5 33.5t34.5 10.5h229q21 0 33.5 -11t12.5 -29v-412h42q19 0 31 -12t12 -31v-134q0 -52 -42 -52t-42 52v97zM263 452l-48 -255q-14 -73 -46 -117h251v372h-157z" />
    <glyph glyph-name="afii10070" unicode="&#x435;" horiz-adv-x="520" 
d="M445 232h-331q0 -70 42.5 -116t114.5 -46q40 0 72.5 11t49 25t32.5 25t26 11q13 0 22.5 -10.5t9.5 -28.5q0 -34 -69 -71.5t-144 -37.5q-120 0 -182 78.5t-62 193.5q0 113 65.5 192.5t173.5 79.5q103 0 166 -78t63 -181q0 -24 -11 -35.5t-38 -11.5zM114 298h292
q0 64 -36.5 114t-104.5 50q-75 3 -111.5 -45.5t-39.5 -118.5z" />
    <glyph glyph-name="afii10072" unicode="&#x436;" horiz-adv-x="724" 
d="M405 331l200 181q29 26 48 26q16 0 27 -11t11 -27q0 -21 -28 -46l-193 -166l215 -206q32 -32 32 -51q0 -16 -11 -26.5t-27 -10.5q-17 0 -30 8.5t-38 33.5l-206 203v-193q0 -24 -11.5 -38t-31.5 -14t-32 14t-12 38v193l-205 -203q-26 -25 -39 -33.5t-30 -8.5
q-15 0 -26 10.5t-11 26.5q0 18 31 51l216 206l-194 166q-27 26 -27 46q0 16 11 27t27 11q19 0 48 -26l199 -181v155q0 24 12 38t32 14t31.5 -14t11.5 -38v-155z" />
    <glyph glyph-name="afii10073" unicode="&#x437;" horiz-adv-x="469" 
d="M441 156q0 -69 -58.5 -116.5t-166.5 -47.5q-91 0 -147.5 30t-56.5 61q0 21 11.5 33t27.5 12q11 0 31 -15.5t55 -31t81 -15.5q64 0 99 24t35 64q0 51 -44 68.5t-129 17.5q-24 0 -36 11t-12 27q0 14 12 26t36 12q147 0 147 79q0 32 -25 52.5t-78 20.5q-60 0 -112 -38
q-15 -10 -28 -10q-16 0 -26.5 10.5t-10.5 26.5q0 32 55.5 58.5t127.5 26.5q90 0 138 -38t48 -97q0 -86 -95 -121q56 -12 88.5 -45t32.5 -85z" />
    <glyph glyph-name="afii10074" unicode="&#x438;" horiz-adv-x="546" 
d="M401 46v342l-252 -360q-23 -34 -50 -34q-41 0 -41 51v441q0 52 43 52q20 0 32 -13.5t12 -38.5v-339l248 357q25 34 53 34q19 0 30.5 -13t11.5 -36v-443q0 -24 -11.5 -38t-32.5 -14q-20 0 -31.5 14t-11.5 38z" />
    <glyph glyph-name="afii10075" unicode="&#x439;" horiz-adv-x="546" 
d="M142 697q0 15 8.5 25.5t22.5 10.5q10 0 21.5 -9t21 -19.5t26 -19.5t35.5 -9t35.5 9t26 19.5t21 19.5t21.5 9q14 0 22.5 -10.5t8.5 -25.5q0 -41 -44.5 -69t-90.5 -28t-90.5 28t-44.5 69zM401 46v342l-252 -360q-23 -34 -50 -34q-41 0 -41 51v441q0 52 43 52q20 0 32 -13.5
t12 -38.5v-339l248 357q25 34 53 34q19 0 30.5 -13t11.5 -36v-443q0 -24 -11.5 -38t-32.5 -14q-20 0 -31.5 14t-11.5 38z" />
    <glyph glyph-name="afii10076" unicode="&#x43a;" horiz-adv-x="463" 
d="M145 331l199 181q29 26 48 26q16 0 27 -11t11 -27q0 -20 -27 -46l-194 -166l216 -206q31 -33 31 -51q0 -16 -11 -26.5t-26 -10.5q-17 0 -30 8.5t-39 33.5l-205 204v-194q0 -24 -12 -38t-32 -14t-31.5 14t-11.5 38v440q0 24 11.5 38t31.5 14t32 -14t12 -38v-155z" />
    <glyph glyph-name="afii10077" unicode="&#x43b;" horiz-adv-x="548" 
d="M237 452l-42 -259q-17 -107 -55.5 -153t-99.5 -46q-38 0 -38 40q0 28 29 35q33 7 48.5 41t32.5 129l43 249q6 44 52 44h237q21 0 33.5 -11t12.5 -29v-446q0 -24 -11.5 -38t-31.5 -14t-32 14t-12 38v406h-166z" />
    <glyph glyph-name="afii10078" unicode="&#x43c;" horiz-adv-x="680" 
d="M589 475l50 -363q9 -63 9 -76q0 -20 -13 -31t-31 -11q-38 0 -44 48l-49 390h-2l-123 -385q-16 -51 -49 -51q-19 0 -30 11.5t-18 35.5l-118 387h-2l-50 -387q-6 -49 -45 -49q-42 0 -42 41q0 5 10 77l50 362q9 64 76 64q52 0 68 -54l102 -345h2l109 345q17 54 71 54
q60 0 69 -63z" />
    <glyph glyph-name="afii10079" unicode="&#x43d;" horiz-adv-x="543" 
d="M145 236v-190q0 -24 -12 -38t-32 -14t-31.5 14t-11.5 38v440q0 52 43 52q20 0 32 -13.5t12 -38.5v-173h253v173q0 52 43 52q44 0 44 -52v-440q0 -24 -11.5 -38t-32.5 -14q-20 0 -31.5 14t-11.5 38v190h-253z" />
    <glyph glyph-name="afii10080" unicode="&#x43e;" horiz-adv-x="538" 
d="M35 266q0 112 63 192t171 80t171 -80t63 -192t-63 -192t-171 -80t-171 80t-63 192zM123 266q0 -78 36 -137t110 -59t110 59t36 137t-36 137t-110 59t-110 -59t-36 -137z" />
    <glyph glyph-name="afii10081" unicode="&#x43f;" horiz-adv-x="534" 
d="M145 452v-406q0 -24 -12 -38t-32 -14t-31.5 14t-11.5 38v439q0 47 44 47h334q20 0 30 -11t10 -27v-448q0 -24 -11.5 -38t-32.5 -14q-20 0 -31.5 14t-11.5 38v406h-244z" />
    <glyph glyph-name="afii10082" unicode="&#x440;" horiz-adv-x="556" 
d="M141 266q0 -78 36 -137t110 -59t110 59t36 137t-36 137t-110 59t-110 -59t-36 -137zM62 -169v660q0 22 12 34.5t32 12.5t32 -12.5t12 -34.5v-26h2q38 73 142 73t165.5 -80t61.5 -192t-61.5 -192t-165.5 -80q-48 0 -85 21.5t-57 50.5h-2v-235q0 -22 -12 -34.5t-32 -12.5
t-32 12.5t-12 34.5z" />
    <glyph glyph-name="afii10083" unicode="&#x441;" horiz-adv-x="444" 
d="M35 266q0 114 62.5 193t177.5 79q65 0 104 -19.5t39 -47.5q0 -14 -10.5 -25.5t-25.5 -11.5q-14 0 -44 14t-63 14q-75 0 -113.5 -59.5t-38.5 -136.5t38.5 -136.5t113.5 -59.5q35 0 65.5 15t40.5 15q34 0 34 -37q0 -27 -38 -48t-102 -21q-115 0 -177.5 79t-62.5 193z" />
    <glyph glyph-name="afii10084" unicode="&#x442;" horiz-adv-x="402" 
d="M158 451h-112q-21 0 -32.5 11t-11.5 30q0 40 44 40h310q44 0 44 -40q0 -19 -11.5 -30t-32.5 -11h-111v-405q0 -24 -12 -38t-32 -14t-31.5 14t-11.5 38v405z" />
    <glyph glyph-name="afii10085" unicode="&#x443;" horiz-adv-x="429" 
d="M91 500l122 -359h2l123 357q13 40 45 40q18 0 29.5 -12t11.5 -29q0 -15 -6 -30l-205 -570q-41 -116 -141 -116q-47 0 -47 40q0 17 8 23.5t25 9.5q27 4 44.5 17.5t31.5 50.5l38 99l-158 442q-9 25 -9 35q0 17 11.5 28.5t29.5 11.5q32 0 45 -38z" />
    <glyph glyph-name="afii10086" unicode="&#x444;" horiz-adv-x="668" 
d="M377 540q118 -2 187 -77t69 -197q0 -123 -72 -197t-184 -77v-157q0 -24 -11.5 -38t-31.5 -14t-32 14t-12 38v157q-120 3 -187.5 77.5t-67.5 196.5q0 120 69.5 195.5t185.5 78.5v179q0 25 12 39t32 14t31.5 -14t11.5 -39v-179zM377 464v-396q76 1 120 57t44 141t-44 141
t-120 57zM290 464q-76 -1 -119.5 -57t-43.5 -141t43.5 -141t119.5 -57v396z" />
    <glyph glyph-name="afii10087" unicode="&#x445;" horiz-adv-x="464" 
d="M24 76l157 206l-138 181q-15 19 -15 35q0 17 10.5 28.5t26.5 11.5q22 0 38 -20l129 -172l129 172q16 20 38 20q16 0 26.5 -11.5t10.5 -28.5q0 -16 -15 -35l-138 -181l157 -206q18 -24 18 -42q0 -17 -11.5 -28.5t-28.5 -11.5q-25 0 -39 20l-147 204l-147 -204
q-14 -20 -39 -20q-17 0 -28.5 11.5t-11.5 28.5q0 18 18 42z" />
    <glyph glyph-name="afii10088" unicode="&#x446;" horiz-adv-x="574" 
d="M477 0h-379q-20 0 -30 11t-10 27v448q0 24 11.5 38t31.5 14t32 -14t12 -38v-406h244v406q0 24 11.5 38t31.5 14q21 0 32.5 -14t11.5 -38v-406h42q19 0 31 -12t12 -31v-134q0 -52 -42 -52t-42 52v97z" />
    <glyph glyph-name="afii10089" unicode="&#x447;" horiz-adv-x="500" 
d="M355 200h-86q-107 0 -167 55.5t-60 173.5v57q0 24 12 38t32 14t31.5 -14t11.5 -38v-47q0 -89 36 -125t109 -36h81v208q0 24 11.5 38t31.5 14t32 -14t12 -38v-440q0 -24 -12 -38t-32 -14t-31.5 14t-11.5 38v154z" />
    <glyph glyph-name="afii10090" unicode="&#x448;" horiz-adv-x="800" 
d="M655 80v406q0 24 12 38t32 14t31.5 -14t11.5 -38v-446q0 -40 -40 -40h-604q-20 0 -30 11t-10 27v448q0 24 11.5 38t31.5 14t32 -14t12 -38v-406h211v406q0 24 12 38t32 14t32 -14t12 -38v-406h211z" />
    <glyph glyph-name="afii10091" unicode="&#x449;" horiz-adv-x="840" 
d="M655 80v406q0 24 12 38t32 14t31.5 -14t11.5 -38v-406h42q19 0 31 -11.5t12 -30.5v-135q0 -52 -42 -52t-42 52v97h-645q-20 0 -30 11t-10 27v448q0 24 11.5 38t31.5 14t32 -14t12 -38v-406h211v406q0 24 12 38t32 14t32 -14t12 -38v-406h211z" />
    <glyph glyph-name="afii10092" unicode="&#x44a;" horiz-adv-x="588" 
d="M158 451h-112q-21 0 -32.5 11t-11.5 30q0 40 44 40h161q38 0 38 -39v-178h144q91 0 137 -42.5t46 -113.5q0 -68 -51 -113.5t-152 -45.5h-161q-50 0 -50 46v405zM245 239v-161h126q114 0 114 80q0 81 -114 81h-126z" />
    <glyph glyph-name="afii10093" unicode="&#x44b;" horiz-adv-x="674" 
d="M616 486v-440q0 -24 -11.5 -38t-31.5 -14t-32 14t-12 38v440q0 24 12 38t32 14t31.5 -14t11.5 -38zM145 315h134q91 0 137 -42.5t46 -113.5q0 -68 -51 -113.5t-152 -45.5h-151q-50 0 -50 46v440q0 24 11.5 38t31.5 14t32 -14t12 -38v-171zM145 239v-161h115q115 0 115 80
q0 81 -115 81h-115z" />
    <glyph glyph-name="afii10094" unicode="&#x44c;" horiz-adv-x="488" 
d="M145 315h144q91 0 137 -42.5t46 -113.5q0 -68 -51 -113.5t-152 -45.5h-161q-50 0 -50 46v440q0 24 11.5 38t31.5 14t32 -14t12 -38v-171zM145 239v-161h125q115 0 115 80q0 81 -115 81h-125z" />
    <glyph glyph-name="afii10095" unicode="&#x44d;" horiz-adv-x="457" 
d="M422 269q0 -123 -69 -200t-180 -77q-60 0 -105.5 22t-45.5 54q0 14 11.5 24.5t24.5 10.5q4 0 43 -15.5t77 -15.5q61 0 104 42.5t47 111.5h-196q-19 0 -34 10t-15 27q0 39 50 39h195q-5 71 -44.5 115t-102.5 44q-38 0 -70.5 -15.5t-42.5 -15.5q-40 0 -40 41q0 25 47.5 47
t108.5 22q115 0 176 -74.5t61 -196.5z" />
    <glyph glyph-name="afii10096" unicode="&#x44e;" horiz-adv-x="722" 
d="M687 266q0 -119 -60.5 -196.5t-168.5 -77.5q-102 0 -161 68t-67 176h-85v-190q0 -24 -12 -38t-32 -14t-31.5 14t-11.5 38v440q0 52 43 52q20 0 32 -13.5t12 -38.5v-173h87q12 96 71 161.5t155 65.5q108 0 168.5 -81t60.5 -193zM595 266q0 79 -34 138.5t-104 59.5
q-68 0 -102.5 -59.5t-34.5 -138.5q0 -50 13 -93t45 -74t79 -31q70 0 104 59t34 139z" />
    <glyph glyph-name="afii10097" unicode="&#x44f;" horiz-adv-x="485" 
d="M340 222l-216 -198q-31 -30 -52 -30q-18 0 -28.5 10.5t-10.5 26.5q0 21 28 46l167 149l-43 1q-72 2 -113 39.5t-41 105.5q0 69 51.5 114.5t148.5 45.5h145q51 0 51 -45v-446q0 -47 -45 -47q-42 0 -42 47v181zM340 291v164h-110q-52 0 -82 -21t-30 -61q0 -82 108 -82h114z
" />
    <glyph glyph-name="uni0450" unicode="&#x450;" horiz-adv-x="520" 
d="M298 616l-115 47q-35 14 -35 37q0 14 10 28t28 14q12 0 34 -9l115 -47q35 -14 35 -37q0 -14 -10 -28t-28 -14q-12 0 -34 9zM445 232h-331q0 -70 42.5 -116t114.5 -46q40 0 72.5 11t49 25t32.5 25t26 11q13 0 22.5 -10.5t9.5 -28.5q0 -34 -69 -71.5t-144 -37.5
q-120 0 -182 78.5t-62 193.5q0 113 65.5 192.5t173.5 79.5q103 0 166 -78t63 -181q0 -24 -11 -35.5t-38 -11.5zM114 298h292q0 64 -36.5 114t-104.5 50q-75 3 -111.5 -45.5t-39.5 -118.5z" />
    <glyph glyph-name="afii10071" unicode="&#x451;" horiz-adv-x="520" 
d="M113 658q0 22 15.5 38t38.5 16t38.5 -16t15.5 -38t-15.5 -38t-38.5 -16t-38.5 16t-15.5 38zM299 658q0 22 15.5 38t38.5 16t38.5 -16t15.5 -38t-15.5 -38t-38.5 -16t-38.5 16t-15.5 38zM445 232h-331q0 -70 42.5 -116t114.5 -46q40 0 72.5 11t49 25t32.5 25t26 11
q13 0 22.5 -10.5t9.5 -28.5q0 -34 -69 -71.5t-144 -37.5q-120 0 -182 78.5t-62 193.5q0 113 65.5 192.5t173.5 79.5q103 0 166 -78t63 -181q0 -24 -11 -35.5t-38 -11.5zM114 298h292q0 64 -36.5 114t-104.5 50q-75 3 -111.5 -45.5t-39.5 -118.5z" />
    <glyph glyph-name="afii10099" unicode="&#x452;" horiz-adv-x="548" 
d="M159 585v-136h2q53 66 138 66q78 0 134.5 -49.5t56.5 -139.5v-359q0 -90 -49 -137t-123 -47q-52 0 -52 38q0 36 39 37q44 2 71 29t27 77v356q0 53 -33 85t-89 32q-51 0 -86.5 -35t-35.5 -96v-260q0 -24 -12 -38t-32 -14t-31.5 14t-11.5 38v539h-59q-20 0 -32 10.5
t-12 27.5t12 27.5t32 10.5h59v58q0 25 11.5 39t31.5 14t32 -14t12 -39v-58h179q20 0 32 -10.5t12 -27.5t-12.5 -27.5t-31.5 -10.5h-179z" />
    <glyph glyph-name="afii10100" unicode="&#x453;" horiz-adv-x="359" 
d="M293 663l-115 -47q-22 -9 -34 -9q-18 0 -28 14t-10 28q0 23 35 37l115 47q22 9 34 9q18 0 28 -14t10 -28q0 -23 -35 -37zM145 451v-405q0 -24 -12 -38t-32 -14t-31.5 14t-11.5 38v448q0 16 10 27t30 11h222q44 0 44 -40q0 -41 -44 -41h-175z" />
    <glyph glyph-name="afii10101" unicode="&#x454;" horiz-adv-x="453" 
d="M128 302h195q50 0 50 -39q0 -17 -14 -27t-35 -10h-196q4 -69 46.5 -111.5t102.5 -42.5q38 0 75 13.5t42 13.5q13 0 24.5 -10.5t11.5 -24.5q0 -33 -46 -52.5t-109 -19.5q-111 0 -175.5 75.5t-64.5 196.5q0 120 66.5 198t181.5 78q57 0 102.5 -22.5t45.5 -47.5
q0 -41 -41 -41q-9 0 -42 16t-73 16q-63 0 -102.5 -44t-44.5 -115z" />
    <glyph glyph-name="afii10102" unicode="&#x455;" horiz-adv-x="444" 
d="M46 388q0 69 54.5 109.5t126.5 40.5q60 0 118.5 -27.5t58.5 -66.5q0 -15 -10.5 -25.5t-29.5 -10.5q-15 0 -32 13.5t-43 27t-62 13.5q-40 0 -66.5 -17.5t-26.5 -49.5q0 -25 29.5 -45t71 -35t83 -33t71 -49.5t29.5 -74.5q0 -79 -57 -121.5t-137 -42.5t-140 32.5t-60 68.5
q0 18 10.5 29t25.5 11t37 -16.5t55 -32.5t75 -16q46 0 74.5 21.5t28.5 50.5q0 28 -29.5 50.5t-71 39t-83 35t-71 49.5t-29.5 72z" />
    <glyph glyph-name="afii10103" unicode="&#x456;" 
d="M146 491v-450q0 -22 -12 -34.5t-32 -12.5t-32 12.5t-12 34.5v450q0 22 12 34.5t32 12.5t32 -12.5t12 -34.5zM48 664q0 22 16 38t38 16t38 -16t16 -38t-16 -38t-38 -16t-38 16t-16 38z" />
    <glyph glyph-name="afii10104" unicode="&#x457;" 
d="M146 491v-450q0 -22 -12 -34.5t-32 -12.5t-32 12.5t-12 34.5v450q0 22 12 34.5t32 12.5t32 -12.5t12 -34.5zM-45 658q0 22 15.5 38t38.5 16t38.5 -16t15.5 -38t-15.5 -38t-38.5 -16t-38.5 16t-15.5 38zM141 658q0 22 15.5 38t38.5 16t38.5 -16t15.5 -38t-15.5 -38
t-38.5 -16t-38.5 16t-15.5 38z" />
    <glyph glyph-name="afii10105" unicode="&#x458;" 
d="M146 491v-660q0 -22 -12 -34.5t-32 -12.5t-32 12.5t-12 34.5v660q0 22 12 34.5t32 12.5t32 -12.5t12 -34.5zM48 664q0 22 16 38t38 16t38 -16t16 -38t-16 -38t-38 -16t-38 16t-16 38z" />
    <glyph glyph-name="afii10106" unicode="&#x459;" horiz-adv-x="834" 
d="M231 452l-37 -259q-29 -199 -154 -199q-16 0 -27 11.5t-11 30.5q0 24 29 33q35 9 51 42.5t30 127.5l37 249q6 44 51 44h244q21 0 33.5 -11t12.5 -29v-177h145q91 0 137 -42.5t46 -113.5q0 -68 -51 -113.5t-152 -45.5h-161q-51 0 -51 46v406h-172zM490 239v-161h126
q115 0 115 80q0 81 -115 81h-126z" />
    <glyph glyph-name="afii10107" unicode="&#x45a;" horiz-adv-x="829" 
d="M398 315v171q0 52 43 52q44 0 44 -52v-171h145q91 0 137 -42.5t46 -113.5q0 -68 -51.5 -113.5t-151.5 -45.5h-161q-51 0 -51 46v193h-253v-193q0 -24 -12 -38t-32 -14t-31.5 14t-11.5 38v440q0 52 43 52q20 0 32 -13.5t12 -38.5v-171h253zM485 239v-161h126q114 0 114 80
q0 81 -114 81h-126z" />
    <glyph glyph-name="afii10108" unicode="&#x45b;" horiz-adv-x="548" 
d="M159 585v-136h2q53 66 138 66q78 0 134.5 -49.5t56.5 -139.5v-280q0 -24 -11.5 -38t-31.5 -14q-21 0 -32.5 14t-11.5 38v274q0 53 -33 85t-89 32q-51 0 -86.5 -35t-35.5 -96v-260q0 -24 -12 -38t-32 -14t-31.5 14t-11.5 38v539h-59q-20 0 -32 10.5t-12 27.5t12 27.5
t32 10.5h59v58q0 25 11.5 39t31.5 14t32 -14t12 -39v-58h179q20 0 32 -10.5t12 -27.5t-12.5 -27.5t-31.5 -10.5h-179z" />
    <glyph glyph-name="afii10109" unicode="&#x45c;" horiz-adv-x="463" 
d="M327 663l-115 -47q-22 -9 -34 -9q-18 0 -28 14t-10 28q0 23 35 37l115 47q22 9 34 9q18 0 28 -14t10 -28q0 -23 -35 -37zM145 331l199 181q29 26 48 26q16 0 27 -11t11 -27q0 -20 -27 -46l-194 -166l216 -206q31 -33 31 -51q0 -16 -11 -26.5t-26 -10.5q-17 0 -30 8.5
t-39 33.5l-205 204v-194q0 -24 -12 -38t-32 -14t-31.5 14t-11.5 38v440q0 24 11.5 38t31.5 14t32 -14t12 -38v-155z" />
    <glyph glyph-name="uni045D" unicode="&#x45d;" horiz-adv-x="546" 
d="M303 616l-115 47q-35 14 -35 37q0 14 10 28t28 14q12 0 34 -9l115 -47q35 -14 35 -37q0 -14 -10 -28t-28 -14q-12 0 -34 9zM401 46v342l-252 -360q-23 -34 -50 -34q-41 0 -41 51v441q0 52 43 52q20 0 32 -13.5t12 -38.5v-339l248 357q25 34 53 34q19 0 30.5 -13t11.5 -36
v-443q0 -24 -11.5 -38t-32.5 -14q-20 0 -31.5 14t-11.5 38z" />
    <glyph glyph-name="afii10110" unicode="&#x45e;" horiz-adv-x="429" 
d="M77 697q0 15 8.5 25.5t22.5 10.5q10 0 21.5 -9t21 -19.5t26 -19.5t35.5 -9t35.5 9t26 19.5t21 19.5t21.5 9q14 0 22.5 -10.5t8.5 -25.5q0 -41 -44.5 -69t-90.5 -28t-90.5 28t-44.5 69zM91 500l122 -359h2l123 357q13 40 45 40q18 0 29.5 -12t11.5 -29q0 -15 -6 -30
l-205 -570q-41 -116 -141 -116q-47 0 -47 40q0 17 8 23.5t25 9.5q27 4 44.5 17.5t31.5 50.5l38 99l-158 442q-9 25 -9 35q0 17 11.5 28.5t29.5 11.5q32 0 45 -38z" />
    <glyph glyph-name="afii10193" unicode="&#x45f;" horiz-adv-x="534" 
d="M389 80v406q0 24 11.5 38t31.5 14q21 0 32.5 -14t11.5 -38v-439q0 -47 -44 -47h-123v-97q0 -52 -42 -52t-42 52v97h-127q-20 0 -30 11t-10 27v448q0 24 11.5 38t31.5 14t32 -14t12 -38v-406h244z" />
    <glyph glyph-name="afii10146" unicode="&#x462;" horiz-adv-x="668" 
d="M222 0q-51 0 -51 46v477h-131q-20 0 -31.5 11.5t-11.5 27.5t12 28t31 12h131v63q0 53 44 53t44 -53v-63h131q20 0 31.5 -12t11.5 -28q0 -17 -11.5 -28t-31.5 -11h-131v-106h162q98 0 157.5 -56t59.5 -152q0 -89 -59.5 -149t-173.5 -60h-183zM259 80h139q71 0 110.5 33
t39.5 96q0 59 -39.5 93t-107.5 34h-142v-256z" />
    <glyph glyph-name="afii10194" unicode="&#x463;" horiz-adv-x="597" 
d="M203 0q-50 0 -50 46v405h-112q-21 0 -32.5 11t-11.5 30q0 40 44 40h112v110q0 54 43 54q44 0 44 -54v-110h111q44 0 44 -40q0 -19 -11.5 -30t-32.5 -11h-111v-136h145q90 0 136 -42.5t46 -113.5q0 -68 -51 -113.5t-152 -45.5h-161zM240 78h126q114 0 114 80q0 81 -114 81
h-126v-161z" />
    <glyph glyph-name="afii10147" unicode="&#x472;" horiz-adv-x="692" 
d="M346 -6q-97 0 -169 52.5t-107 133.5t-35 176q0 96 34.5 177t107 133t169.5 52t169 -52.5t107 -133.5t35 -176t-34.5 -176t-107 -133.5t-169.5 -52.5zM346 73q54 0 95.5 22.5t66 60t38 81t16.5 92.5q-46 -37 -105 -37q-48 0 -116.5 39.5t-105.5 39.5q-9 0 -17 -1
t-15.5 -3.5t-13 -4.5t-12.5 -7t-10.5 -7t-10.5 -8.5t-9 -8t-9 -8.5l-8 -8q4 -47 18.5 -88.5t39.5 -77t65.5 -56t92.5 -20.5zM459 368q54 0 100 53q-14 94 -67 156t-146 62q-96 0 -148.5 -66t-65.5 -164q48 38 104 38q48 0 117.5 -39.5t105.5 -39.5z" />
    <glyph glyph-name="afii10195" unicode="&#x473;" horiz-adv-x="540" 
d="M270 -6q-111 0 -173 77t-62 195q0 110 62.5 191t172.5 81q111 0 173 -81t62 -191q0 -118 -62 -195t-173 -77zM270 66q66 0 101.5 48.5t42.5 119.5q-31 -20 -68 -20q-27 0 -78.5 25t-74.5 25q-36 0 -68 -30q7 -70 43.5 -119t101.5 -49zM346 280q37 0 66 29q-9 67 -44 112
t-98 45q-62 0 -97.5 -44.5t-45.5 -110.5q32 20 69 20q28 0 78 -25.5t72 -25.5z" />
    <glyph glyph-name="afii10148" unicode="&#x474;" horiz-adv-x="594" 
d="M276 -6q-32 0 -49 46l-208 588q-12 32 -12 48q0 18 12.5 30t31.5 12q30 0 42 -34l182 -542h2l128 384q13 39 19.5 56.5t18.5 45.5t23 40t27 26t36.5 19t47.5 5q18 0 29.5 -12t11.5 -31q0 -17 -9.5 -24t-28.5 -12q-30 -8 -46 -30.5t-38 -84.5l-170 -484q-17 -46 -50 -46z
" />
    <glyph glyph-name="afii10196" unicode="&#x475;" horiz-adv-x="455" 
d="M211 -6q-33 0 -42 27l-150 431q-10 27 -10 41q0 19 11 32t31 13q31 0 43 -37l116 -365h2l80 254q24 77 53.5 112.5t84.5 35.5q23 0 35 -12t12 -28q0 -35 -37 -38q-24 -2 -37 -18.5t-30 -67.5l-119 -353q-9 -27 -43 -27z" />
    <glyph glyph-name="afii10050" unicode="&#x490;" horiz-adv-x="434" 
d="M350 712v122q0 52 43 52t43 -52v-163q0 -17 -12.5 -28.5t-33.5 -11.5h-241v-584q0 -53 -44 -53t-44 53v621q0 19 13 31.5t31 12.5h245z" />
    <glyph glyph-name="afii10098" unicode="&#x491;" horiz-adv-x="359" 
d="M280 532v96q0 52 42 52t42 -52v-136q0 -41 -44 -41h-175v-405q0 -24 -12 -38t-32 -14t-31.5 14t-11.5 38v448q0 16 10 27t30 11h182z" />
    <glyph glyph-name="Wgrave" unicode="&#x1e80;" horiz-adv-x="834" 
d="M208 108l164 575q10 35 45 35t45 -35l164 -575h2l93 569q7 41 48 41q18 0 29 -11.5t11 -28.5q0 -19 -5 -45l-108 -581q-11 -58 -63 -58q-28 0 -43.5 11.5t-25.5 46.5l-146 522h-2l-146 -522q-10 -35 -25.5 -46.5t-43.5 -11.5q-52 0 -63 58l-108 581q-5 26 -5 45
q0 17 11 28.5t29 11.5q41 0 48 -41l93 -569h2zM442 776l-115 47q-35 14 -35 37q0 14 10 28t28 14q12 0 34 -9l115 -47q35 -14 35 -37q0 -14 -10 -28t-28 -14q-12 0 -34 9z" />
    <glyph glyph-name="wgrave" unicode="&#x1e81;" horiz-adv-x="742" 
d="M155 40l-146 425q-7 23 -7 34q0 15 10.5 27t31.5 12q35 0 49 -45l113 -363h2l111 350q10 33 20 45.5t32 12.5t32 -12.5t20 -45.5l111 -350h2l113 363q14 45 49 45q21 0 31.5 -12t10.5 -27q0 -11 -7 -34l-146 -425q-16 -46 -51 -46t-50 46l-114 359h-2l-114 -359
q-15 -46 -50 -46t-51 46zM384 616l-115 47q-35 14 -35 37q0 14 10 28t28 14q12 0 34 -9l115 -47q35 -14 35 -37q0 -14 -10 -28t-28 -14q-12 0 -34 9z" />
    <glyph glyph-name="Wacute" unicode="&#x1e82;" horiz-adv-x="834" 
d="M208 108l164 575q10 35 45 35t45 -35l164 -575h2l93 569q7 41 48 41q18 0 29 -11.5t11 -28.5q0 -19 -5 -45l-108 -581q-11 -58 -63 -58q-28 0 -43.5 11.5t-25.5 46.5l-146 522h-2l-146 -522q-10 -35 -25.5 -46.5t-43.5 -11.5q-52 0 -63 58l-108 581q-5 26 -5 45
q0 17 11 28.5t29 11.5q41 0 48 -41l93 -569h2zM519 823l-115 -47q-22 -9 -34 -9q-18 0 -28 14t-10 28q0 23 35 37l115 47q22 9 34 9q18 0 28 -14t10 -28q0 -23 -35 -37z" />
    <glyph glyph-name="wacute" unicode="&#x1e83;" horiz-adv-x="742" 
d="M155 40l-146 425q-7 23 -7 34q0 15 10.5 27t31.5 12q35 0 49 -45l113 -363h2l111 350q10 33 20 45.5t32 12.5t32 -12.5t20 -45.5l111 -350h2l113 363q14 45 49 45q21 0 31.5 -12t10.5 -27q0 -11 -7 -34l-146 -425q-16 -46 -51 -46t-50 46l-114 359h-2l-114 -359
q-15 -46 -50 -46t-51 46zM471 663l-115 -47q-22 -9 -34 -9q-18 0 -28 14t-10 28q0 23 35 37l115 47q22 9 34 9q18 0 28 -14t10 -28q0 -23 -35 -37z" />
    <glyph glyph-name="Wdieresis" unicode="&#x1e84;" horiz-adv-x="834" 
d="M208 108l164 575q10 35 45 35t45 -35l164 -575h2l93 569q7 41 48 41q18 0 29 -11.5t11 -28.5q0 -19 -5 -45l-108 -581q-11 -58 -63 -58q-28 0 -43.5 11.5t-25.5 46.5l-146 522h-2l-146 -522q-10 -35 -25.5 -46.5t-43.5 -11.5q-52 0 -63 58l-108 581q-5 26 -5 45
q0 17 11 28.5t29 11.5q41 0 48 -41l93 -569h2zM272 818q0 22 16 38t38 16t38 -16t16 -38t-16 -38t-38 -16t-38 16t-16 38zM458 818q0 22 16 38t38 16t38 -16t16 -38t-16 -38t-38 -16t-38 16t-16 38z" />
    <glyph glyph-name="wdieresis" unicode="&#x1e85;" horiz-adv-x="742" 
d="M155 40l-146 425q-7 23 -7 34q0 15 10.5 27t31.5 12q35 0 49 -45l113 -363h2l111 350q10 33 20 45.5t32 12.5t32 -12.5t20 -45.5l111 -350h2l113 363q14 45 49 45q21 0 31.5 -12t10.5 -27q0 -11 -7 -34l-146 -425q-16 -46 -51 -46t-50 46l-114 359h-2l-114 -359
q-15 -46 -50 -46t-51 46zM226 658q0 22 16 38t38 16t38 -16t16 -38t-16 -38t-38 -16t-38 16t-16 38zM412 658q0 22 16 38t38 16t38 -16t16 -38t-16 -38t-38 -16t-38 16t-16 38z" />
    <glyph glyph-name="Ygrave" unicode="&#x1ef2;" horiz-adv-x="500" 
d="M206 41v293l-191 311q-14 22 -14 37q0 16 11.5 26t28.5 10q27 0 44 -28l165 -269l165 269q17 28 44 28q17 0 28.5 -10t11.5 -26q0 -15 -14 -37l-191 -311v-293q0 -22 -12 -34.5t-32 -12.5t-32 12.5t-12 34.5zM249 776l-115 47q-35 14 -35 37q0 14 10 28t28 14q12 0 34 -9
l115 -47q35 -14 35 -37q0 -14 -10 -28t-28 -14q-12 0 -34 9z" />
    <glyph glyph-name="ygrave" unicode="&#x1ef3;" horiz-adv-x="444" 
d="M179 19l-150 433q-12 36 -12 49q0 16 12 26.5t28 10.5q34 0 44 -33l122 -365h2l120 365q10 33 42 33q16 0 28 -10.5t12 -26.5q0 -13 -12 -49l-222 -635q-12 -33 -43 -33q-16 0 -28 10.5t-12 26.5q0 14 13 49zM220 616l-115 47q-35 14 -35 37q0 14 10 28t28 14q12 0 34 -9
l115 -47q35 -14 35 -37q0 -14 -10 -28t-28 -14q-12 0 -34 9z" />
    <glyph glyph-name="uni2010" unicode="&#x2010;" horiz-adv-x="352" 
d="M279 230h-206q-16 0 -27 11t-11 27t11 27t27 11h206q16 0 27 -11t11 -27t-11 -27t-27 -11z" />
    <glyph glyph-name="endash" unicode="&#x2013;" horiz-adv-x="500" 
d="M462 230h-424q-16 0 -27 11t-11 27t11 27t27 11h424q16 0 27 -11t11 -27t-11 -27t-27 -11z" />
    <glyph glyph-name="emdash" unicode="&#x2014;" horiz-adv-x="1000" 
d="M0 306h1000q16 0 27 -11t11 -27t-11 -27t-27 -11h-1000q-16 0 -27 11t-11 27t11 27t27 11z" />
    <glyph glyph-name="quoteleft" unicode="&#x2018;" 
d="M36 571l56 110q19 37 47 37q16 0 28 -11t12 -27q0 -15 -11 -37l-56 -110q-19 -37 -47 -37q-16 0 -28 11t-12 27q0 15 11 37z" />
    <glyph glyph-name="quoteright" unicode="&#x2019;" 
d="M36 571l56 110q19 37 47 37q16 0 28 -11t12 -27q0 -15 -11 -37l-56 -110q-19 -37 -47 -37q-16 0 -28 11t-12 27q0 15 11 37z" />
    <glyph glyph-name="quotesinglbase" unicode="&#x201a;" 
d="M36 -51l56 110q19 37 47 37q16 0 28 -11t12 -27q0 -15 -11 -37l-56 -110q-19 -37 -47 -37q-16 0 -28 11t-12 27q0 15 11 37z" />
    <glyph glyph-name="quotedblleft" unicode="&#x201c;" horiz-adv-x="334" 
d="M172 571l56 110q19 37 47 37q16 0 28 -11t12 -27q0 -15 -11 -37l-56 -110q-19 -37 -47 -37q-16 0 -28 11t-12 27q0 15 11 37zM30 571l56 110q19 37 47 37q16 0 28 -11t12 -27q0 -15 -11 -37l-56 -110q-19 -37 -47 -37q-16 0 -28 11t-12 27q0 15 11 37z" />
    <glyph glyph-name="quotedblright" unicode="&#x201d;" horiz-adv-x="334" 
d="M172 571l56 110q19 37 47 37q16 0 28 -11t12 -27q0 -15 -11 -37l-56 -110q-19 -37 -47 -37q-16 0 -28 11t-12 27q0 15 11 37zM30 571l56 110q19 37 47 37q16 0 28 -11t12 -27q0 -15 -11 -37l-56 -110q-19 -37 -47 -37q-16 0 -28 11t-12 27q0 15 11 37z" />
    <glyph glyph-name="quotedblbase" unicode="&#x201e;" horiz-adv-x="334" 
d="M172 -51l56 110q19 37 47 37q16 0 28 -11t12 -27q0 -15 -11 -37l-56 -110q-19 -37 -47 -37q-16 0 -28 11t-12 27q0 15 11 37zM30 -51l56 110q19 37 47 37q16 0 28 -11t12 -27q0 -15 -11 -37l-56 -110q-19 -37 -47 -37q-16 0 -28 11t-12 27q0 15 11 37z" />
    <glyph glyph-name="dagger" unicode="&#x2020;" horiz-adv-x="612" 
d="M265 470v205q0 43 41 43t41 -43v-205h195q43 0 43 -41t-43 -41h-195v-561q0 -43 -41 -43t-41 43v561h-195q-43 0 -43 41t43 41h195z" />
    <glyph glyph-name="daggerdbl" unicode="&#x2021;" horiz-adv-x="612" 
d="M265 94v314h-195q-43 0 -43 41t43 41h195v185q0 43 41 43t41 -43v-185h195q43 0 43 -41t-43 -41h-195v-314h195q43 0 43 -41t-43 -41h-195v-185q0 -43 -41 -43t-41 43v185h-195q-43 0 -43 41t43 41h195z" />
    <glyph glyph-name="bullet" unicode="&#x2022;" horiz-adv-x="500" 
d="M72 356q0 74 52 126t126 52t126 -52t52 -126t-52 -126t-126 -52t-126 52t-52 126z" />
    <glyph glyph-name="ellipsis" unicode="&#x2026;" horiz-adv-x="1000" 
d="M116 45q0 21 15 36t36 15t36 -15t15 -36t-15 -36t-36 -15t-36 15t-15 36zM449 45q0 21 15 36t36 15t36 -15t15 -36t-15 -36t-36 -15t-36 15t-15 36zM782 45q0 21 15 36t36 15t36 -15t15 -36t-15 -36t-36 -15t-36 15t-15 36z" />
    <glyph glyph-name="perthousand" unicode="&#x2030;" horiz-adv-x="1093" 
d="M211 58l266 638q13 30 35 30q17 0 26 -8.5t9 -18.5q0 -9 -14 -45l-266 -638q-13 -30 -37 -30q-15 0 -24 8t-9 19t14 45zM545 -6q-72 0 -112 49t-40 120t40 120t112 49t112 -49t40 -120t-40 -120t-112 -49zM545 48q44 0 65 34.5t21 80.5t-21 80.5t-65 34.5t-65 -34.5
t-21 -80.5t21 -80.5t65 -34.5zM198 380q-72 0 -112 49t-40 120t40 120t112 49t112 -49t40 -120t-40 -120t-112 -49zM198 434q44 0 65 34.5t21 80.5t-21 80.5t-65 34.5t-65 -34.5t-21 -80.5t21 -80.5t65 -34.5zM895 -6q-72 0 -112 49t-40 120t40 120t112 49t112 -49t40 -120
t-40 -120t-112 -49zM895 48q44 0 65 34.5t21 80.5t-21 80.5t-65 34.5t-65 -34.5t-21 -80.5t21 -80.5t65 -34.5z" />
    <glyph glyph-name="guilsinglleft" unicode="&#x2039;" horiz-adv-x="259" 
d="M43 268l99 178q15 26 34 26q16 0 28 -9t12 -26q0 -12 -11 -31l-83 -138l83 -138q11 -19 11 -31q0 -17 -12 -26t-28 -9q-19 0 -34 26z" />
    <glyph glyph-name="guilsinglright" unicode="&#x203a;" horiz-adv-x="259" 
d="M54 130l83 138l-83 138q-11 19 -11 31q0 17 12 26t28 9q19 0 34 -26l99 -178l-99 -178q-15 -26 -34 -26q-16 0 -28 9t-12 26q0 12 11 31z" />
    <glyph glyph-name="interrobang" unicode="&#x203d;" horiz-adv-x="444" 
d="M213 -6q-21 0 -36 15t-15 36t15 36t36 15t36 -15t15 -36t-15 -36t-36 -15zM213 191q-20 0 -32 12.5t-12 34.5v292q0 22 12 34.5t32 12.5t32 -12.5t12 -34.5v-104q78 31 78 107q0 49 -35.5 78t-79.5 29t-76 -24t-45 -62q-11 -28 -42 -28q-18 0 -29 11.5t-11 29.5
q0 63 62.5 107t139.5 44q90 0 148.5 -50.5t58.5 -132.5q0 -151 -169 -193v-104q0 -22 -12 -34.5t-32 -12.5z" />
    <glyph glyph-name="fraction" unicode="&#x2044;" horiz-adv-x="168" 
d="M-77 58l266 638q13 30 35 30q17 0 26 -8.5t9 -18.5q0 -12 -14 -45l-266 -638q-13 -30 -37 -30q-15 0 -24 8t-9 19t14 45z" />
    <glyph glyph-name="zero.superior" unicode="&#x2070;" horiz-adv-x="348" 
d="M173 347q38 0 56.5 44t18.5 111t-18.5 111.5t-56.5 44.5q-37 0 -55.5 -44.5t-18.5 -111.5t18.5 -111t55.5 -44zM173 285q-60 0 -102.5 56t-42.5 161t42.5 160.5t102.5 55.5q62 0 104.5 -55.5t42.5 -160.5t-42.5 -161t-104.5 -56z" />
    <glyph glyph-name="four.superior" unicode="&#x2074;" horiz-adv-x="348" 
d="M245 285q-16 0 -25 9t-9 22v72h-170q-31 0 -31 29q0 12 13 33l149 236q19 32 60 32q23 0 37 -12.5t14 -38.5v-216h20q13 0 21 -8.5t8 -22.5q0 -15 -8 -23.5t-21 -8.5h-20v-72q0 -13 -10.5 -22t-27.5 -9zM87 451h124v196h-3z" />
    <glyph glyph-name="five.superior" unicode="&#x2075;" horiz-adv-x="348" 
d="M161 285q-45 0 -84.5 25.5t-39.5 47.5q0 11 9 21t22 10q10 0 27 -14q34 -29 67 -29q34 0 53.5 25.5t19.5 64.5q0 35 -19 55t-52 20q-14 0 -34 -9q-16 -9 -28 -9q-11 0 -18.5 7t-7.5 18q0 14 2 25l20 131q3 21 10.5 29.5t25.5 8.5h132q30 0 30 -30q0 -29 -30 -29h-107
q-2 -10 -5 -28.5t-5.5 -33.5t-4.5 -28q15 5 37 5q51 0 87.5 -36.5t36.5 -90.5q0 -71 -39.5 -113.5t-104.5 -42.5z" />
    <glyph glyph-name="six.superior" unicode="&#x2076;" horiz-adv-x="348" 
d="M175 285q-70 0 -106 44.5t-36 99.5q0 75 43.5 149t107.5 131q18 15 33 15q12 0 22 -10t10 -25q0 -8 -16 -24q-2 -2 -13 -12.5t-18.5 -18t-18 -19.5t-20 -26t-18.5 -29q23 9 48 9q54 0 88 -38.5t34 -101.5q0 -57 -37 -100.5t-103 -43.5zM173 344q30 0 50 22t20 60t-19 63
t-51 25q-68 0 -68 -88q0 -32 18 -57t50 -25z" />
    <glyph glyph-name="seven.superior" unicode="&#x2077;" horiz-adv-x="320" 
d="M108 285q-14 0 -23 9t-9 20q0 7 7 23l141 315h-161q-16 0 -24.5 8.5t-8.5 20.5q0 13 8.5 22t24.5 9h207q32 0 32 -25q0 -10 -8 -31l-152 -345q-11 -26 -34 -26z" />
    <glyph glyph-name="eight.superior" unicode="&#x2078;" horiz-adv-x="348" 
d="M174 285q-62 0 -99 39t-37 95q0 34 16.5 63.5t43.5 43.5q-44 33 -44 87q0 43 34.5 74.5t85.5 31.5q50 0 84 -31.5t34 -74.5q0 -49 -45 -87q29 -15 46 -44t17 -63q0 -57 -37.5 -95.5t-98.5 -38.5zM174 341q27 0 46.5 21.5t19.5 57.5q0 31 -17.5 53.5t-48.5 22.5
t-48.5 -22.5t-17.5 -53.5q0 -36 19.5 -57.5t46.5 -21.5zM174 552q24 0 38 15t14 40q0 24 -14 39.5t-38 15.5t-38 -15.5t-14 -39.5q0 -25 14 -40t38 -15z" />
    <glyph glyph-name="nine.superior" unicode="&#x2079;" horiz-adv-x="348" 
d="M131 285q-12 0 -22 10t-10 25q0 8 16 24q2 2 13 12.5t18.5 18t18 19.5t20 26t18.5 29q-23 -9 -48 -9q-54 0 -88 38.5t-34 101.5q0 57 37 100.5t103 43.5q70 0 106 -44.5t36 -99.5q0 -75 -43.5 -149t-107.5 -131q-18 -15 -33 -15zM175 495q68 0 68 88q0 32 -18 57t-50 25
q-30 0 -50 -22t-20 -60t19 -63t51 -25z" />
    <glyph glyph-name="plus.superior" unicode="&#x207a;" horiz-adv-x="374" 
d="M187 288q-14 0 -22.5 9t-8.5 23v92h-91q-15 0 -24 8.5t-9 22.5q0 13 9 22t24 9h91v91q0 15 8.5 24.5t22.5 9.5q13 0 22.5 -9.5t9.5 -24.5v-91h89q15 0 24.5 -9t9.5 -22q0 -14 -9 -22.5t-25 -8.5h-89v-92q0 -14 -9.5 -23t-22.5 -9z" />
    <glyph glyph-name="minus.superior" unicode="&#x207b;" horiz-adv-x="374" 
d="M65 412q-15 0 -24 8.5t-9 22.5q0 13 9 22t24 9h243q15 0 24.5 -9t9.5 -22q0 -14 -9 -22.5t-25 -8.5h-243z" />
    <glyph glyph-name="equal.superior" unicode="&#x207c;" horiz-adv-x="374" 
d="M65 353q-15 0 -24 8.5t-9 22.5q0 13 9 22t24 9h243q15 0 24.5 -9t9.5 -22q0 -14 -9 -22.5t-25 -8.5h-243zM65 471q-15 0 -24 8.5t-9 22.5q0 12 9 21.5t24 9.5h243q15 0 24.5 -9t9.5 -22q0 -14 -9 -22.5t-25 -8.5h-243z" />
    <glyph glyph-name="parenleft.superior" unicode="&#x207d;" horiz-adv-x="164" 
d="M107 227q-23 0 -36 40q-31 87 -31 214q0 129 31 215q13 40 36 40q27 0 29 -25q0 -9 -7 -28q-27 -78 -27 -202q0 -126 27 -202q7 -16 7 -27q0 -25 -29 -25z" />
    <glyph glyph-name="parenright.superior" unicode="&#x207e;" horiz-adv-x="164" 
d="M57 227q-29 0 -29 25q0 11 7 27q27 76 27 202q0 124 -27 202q-7 19 -7 28q2 25 29 25q23 0 36 -40q31 -86 31 -215q0 -127 -31 -214q-13 -40 -36 -40z" />
    <glyph glyph-name="n.superior" unicode="&#x207f;" horiz-adv-x="350" 
d="M76 391q-35 0 -35 40v247q0 40 36 40q13 0 22.5 -9t10.5 -23q34 32 80 32q55 0 89 -30.5t34 -86.5v-170q0 -40 -34 -40q-35 0 -35 40v167q0 28 -17 44.5t-49 16.5q-26 0 -46.5 -19t-20.5 -49v-160q0 -19 -9.5 -29.5t-25.5 -10.5z" />
    <glyph glyph-name="zero.inferior" unicode="&#x2080;" horiz-adv-x="348" 
d="M173 56q38 0 56.5 44t18.5 111t-18.5 111.5t-56.5 44.5q-37 0 -55.5 -44.5t-18.5 -111.5t18.5 -111t55.5 -44zM173 -6q-60 0 -102.5 56t-42.5 161t42.5 160.5t102.5 55.5q62 0 104.5 -55.5t42.5 -160.5t-42.5 -161t-104.5 -56z" />
    <glyph glyph-name="one.inferior" unicode="&#x2081;" horiz-adv-x="229" 
d="M123 -6q-15 0 -25.5 9t-10.5 27v331h-51q-28 0 -28 30t28 30h104q19 0 19 -14v-377q0 -36 -36 -36z" />
    <glyph glyph-name="two.inferior" unicode="&#x2082;" horiz-adv-x="348" 
d="M61 0q-15 0 -22.5 6.5t-7.5 14.5t12 23l171 217q26 33 26 56t-17.5 36.5t-46.5 13.5q-36 0 -60 -26.5t-24 -55.5q0 -24 -29 -24q-31 0 -31 33q0 55 39.5 94t108.5 39q63 0 97.5 -31t34.5 -77q0 -41 -36 -84l-145 -175h148q38 0 38 -30t-38 -30h-218z" />
    <glyph glyph-name="three.inferior" unicode="&#x2083;" horiz-adv-x="348" 
d="M163 -6q-61 0 -97 33t-36 72q0 32 28 32q18 0 29 -25q24 -52 81 -52q32 0 55 22t23 54q0 63 -67 63q-28 0 -37 6.5t-9 18.5q0 13 6.5 19t23.5 10q32 7 45.5 23t13.5 44q0 21 -17 37t-44 16q-29 0 -45 -14.5t-20 -34.5q-3 -23 -29 -23q-25 0 -25 28q0 45 32.5 74.5
t89.5 29.5q61 0 95.5 -31.5t34.5 -78.5q0 -61 -55 -91q38 -11 58.5 -38.5t20.5 -64.5q0 -59 -44.5 -94t-110.5 -35z" />
    <glyph glyph-name="four.inferior" unicode="&#x2084;" horiz-adv-x="348" 
d="M245 -6q-16 0 -25 9t-9 22v72h-170q-31 0 -31 29q0 12 13 33l149 236q19 32 60 32q23 0 37 -12.5t14 -38.5v-216h20q13 0 21 -8.5t8 -22.5q0 -15 -8 -23.5t-21 -8.5h-20v-72q0 -13 -10.5 -22t-27.5 -9zM87 160h124v196h-3z" />
    <glyph glyph-name="five.inferior" unicode="&#x2085;" horiz-adv-x="348" 
d="M161 -6q-45 0 -84.5 25.5t-39.5 47.5q0 11 9 21t22 10q10 0 27 -14q34 -29 67 -29q34 0 53.5 25.5t19.5 64.5q0 35 -19 55t-52 20q-14 0 -34 -9q-16 -9 -28 -9q-11 0 -18.5 7t-7.5 18q0 3 2 25l20 131q3 21 10.5 29.5t25.5 8.5h132q30 0 30 -30q0 -29 -30 -29h-107
q-2 -10 -5 -28.5t-5.5 -33.5t-4.5 -28q15 5 37 5q51 0 87.5 -36.5t36.5 -90.5q0 -71 -39.5 -113.5t-104.5 -42.5z" />
    <glyph glyph-name="six.inferior" unicode="&#x2086;" horiz-adv-x="348" 
d="M175 -6q-70 0 -106 44.5t-36 99.5q0 75 43.5 149t107.5 131q18 15 33 15q12 0 22 -10t10 -25q0 -8 -16 -24q-2 -2 -13 -12.5t-18.5 -18t-18 -19.5t-20 -26t-18.5 -29q23 9 48 9q54 0 88 -38.5t34 -101.5q0 -57 -37 -100.5t-103 -43.5zM173 53q30 0 50 22t20 60t-19 63
t-51 25q-68 0 -68 -88q0 -32 18 -57t50 -25z" />
    <glyph glyph-name="seven.inferior" unicode="&#x2087;" horiz-adv-x="320" 
d="M108 -6q-14 0 -23 9t-9 20q0 7 7 23l141 315h-161q-16 0 -24.5 8.5t-8.5 20.5q0 13 8.5 22t24.5 9h207q32 0 32 -25q0 -4 -1.5 -9.5t-3.5 -12t-3 -9.5l-152 -345q-11 -26 -34 -26z" />
    <glyph glyph-name="eight.inferior" unicode="&#x2088;" horiz-adv-x="348" 
d="M174 -6q-62 0 -99 39t-37 95q0 34 16.5 63.5t43.5 43.5q-44 33 -44 87q0 43 34.5 74.5t85.5 31.5q50 0 84 -31.5t34 -74.5q0 -49 -45 -87q29 -15 46 -44t17 -63q0 -57 -37.5 -95.5t-98.5 -38.5zM174 50q27 0 46.5 21.5t19.5 57.5q0 31 -17.5 53.5t-48.5 22.5t-48.5 -22.5
t-17.5 -53.5q0 -36 19.5 -57.5t46.5 -21.5zM174 261q24 0 38 15t14 40q0 24 -14 39.5t-38 15.5t-38 -15.5t-14 -39.5q0 -25 14 -40t38 -15z" />
    <glyph glyph-name="nine.inferior" unicode="&#x2089;" horiz-adv-x="348" 
d="M131 -6q-12 0 -22 10t-10 25q0 8 16 24q2 2 13 12.5t18.5 18t18 19.5t20 26t18.5 29q-23 -9 -48 -9q-54 0 -88 38.5t-34 101.5q0 57 37 100.5t103 43.5q70 0 106 -44.5t36 -99.5q0 -75 -43.5 -149t-107.5 -131q-18 -15 -33 -15zM175 204q68 0 68 88q0 32 -18 57t-50 25
q-30 0 -50 -22t-20 -60t19 -63t51 -25z" />
    <glyph glyph-name="plus.inferior" unicode="&#x208a;" horiz-adv-x="374" 
d="M187 -3q-14 0 -22.5 9t-8.5 23v92h-91q-15 0 -24 8.5t-9 22.5q0 13 9 22t24 9h91v91q0 15 8.5 24.5t22.5 9.5q13 0 22.5 -9.5t9.5 -24.5v-91h89q15 0 24.5 -9t9.5 -22q0 -14 -9 -22.5t-25 -8.5h-89v-92q0 -14 -9.5 -23t-22.5 -9z" />
    <glyph glyph-name="minus.inferior" unicode="&#x208b;" horiz-adv-x="374" 
d="M65 121q-15 0 -24 8.5t-9 22.5q0 13 9 22t24 9h243q15 0 24.5 -9t9.5 -22q0 -14 -9 -22.5t-25 -8.5h-243z" />
    <glyph glyph-name="equal.inferior" unicode="&#x208c;" horiz-adv-x="374" 
d="M65 62q-15 0 -24 8.5t-9 22.5q0 13 9 22t24 9h243q15 0 24.5 -9t9.5 -22q0 -14 -9 -22.5t-25 -8.5h-243zM65 180q-15 0 -24 8.5t-9 22.5q0 13 9 22t24 9h243q15 0 24.5 -9t9.5 -22q0 -14 -9 -22.5t-25 -8.5h-243z" />
    <glyph glyph-name="parenleft.inferior" unicode="&#x208d;" horiz-adv-x="164" 
d="M107 -64q-23 0 -36 40q-31 87 -31 214q0 129 31 215q13 40 36 40q27 0 29 -25q0 -9 -7 -28q-27 -78 -27 -202q0 -126 27 -202q7 -16 7 -27q0 -25 -29 -25z" />
    <glyph glyph-name="parenright.inferior" unicode="&#x208e;" horiz-adv-x="164" 
d="M57 -64q-29 0 -29 25q0 11 7 27q27 76 27 202q0 124 -27 202q-7 19 -7 28q2 25 29 25q23 0 36 -40q31 -86 31 -215q0 -127 -31 -214q-13 -40 -36 -40z" />
    <glyph glyph-name="Euro" unicode="&#x20ac;" horiz-adv-x="536" 
d="M373 396h-223q0 -1 -1 -15t-1 -21q0 -4 0.5 -14t0.5 -21h184q21 0 31 -10t10 -23t-10 -23t-31 -10h-176q14 -68 44 -115q46 -74 130 -74q46 0 108 44q27 20 37 20q14 0 25 -11t11 -30q0 -21 -29 -48q-59 -51 -151 -51q-112 0 -186 81q-63 69 -84 184h-33q-21 0 -31 10
t-10 23t10 23t31 10h26q0 8 -0.5 17t-0.5 14v11q0 3 0.5 8.5t0.5 7.5v13h-26q-21 0 -31 10t-10 23t10 23t31 10h35q5 29 17 63q17 46 50 92q78 101 200 101q84 0 143 -59q23 -23 23 -47q0 -22 -19 -35q-8 -5 -19 -5q-9 0 -19 10l-11 12q-24 26 -47 37q-24 11 -51 11
q-88 0 -137 -87q-22 -37 -34 -93h213q21 0 31 -10t10 -23t-10 -23t-31 -10z" />
    <glyph glyph-name="afii61248" unicode="&#x2105;" horiz-adv-x="796" 
d="M202 391q-73 0 -115 48.5t-42 115.5q0 66 44.5 114.5t116.5 48.5q36 0 68 -14.5t32 -33.5q0 -13 -9 -22.5t-22 -9.5q-7 0 -19 5q-35 16 -53 16q-45 0 -65.5 -31t-20.5 -71q0 -44 22 -75.5t64 -31.5q20 0 55 14q9 4 18 4q12 0 19.5 -8t7.5 -20q0 -24 -31 -36.5t-70 -12.5z
M245 -15q-14 0 -24 8.5t-10 20.5q0 10 9 31l274 656q11 27 37 27q14 0 23.5 -8t9.5 -21q0 -11 -9 -30l-275 -657q-11 -27 -35 -27zM445 159q0 70 42 116.5t110 46.5t110 -46.5t42 -116.5q0 -71 -41.5 -117.5t-110.5 -46.5q-68 0 -110 46.5t-42 117.5zM517 159
q0 -43 22.5 -73.5t57.5 -30.5t57.5 30.5t22.5 73.5q0 42 -22.5 72.5t-57.5 30.5t-57.5 -30.5t-22.5 -72.5z" />
    <glyph glyph-name="afii61289" unicode="&#x2113;" horiz-adv-x="518" 
d="M391 134h16q7 -6 25 -21.5t26 -22.5q-69 -99 -184 -99q-148 0 -168 144l-52 -34q-20 36 -21 38q-3 9 -14 26q68 49 84 63v221q0 141 43 205t128 64q63 0 101.5 -45.5t38.5 -119.5q0 -93 -52.5 -177t-158.5 -177v-9q0 -108 73 -108q33 0 67 14.5t48 37.5zM203 506v-198
q118 124 118 244q0 86 -55 86q-26 0 -44.5 -33.5t-18.5 -98.5z" />
    <glyph glyph-name="afii61352" unicode="&#x2116;" horiz-adv-x="1078" 
d="M730 254h252q19 0 31.5 -11t12.5 -28t-12.5 -28t-31.5 -11h-252q-20 0 -32 11t-12 28t12 28t32 11zM855 655q-49 0 -75.5 -38.5t-26.5 -92.5t26.5 -93t75.5 -39t75.5 38.5t26.5 91.5q0 55 -26.5 94t-75.5 39zM855 721q86 0 135.5 -58.5t49.5 -140.5q0 -79 -49.5 -137.5
t-135.5 -58.5q-85 0 -134.5 58.5t-49.5 139.5q0 80 49.5 138.5t134.5 58.5zM587 665v-619q0 -52 -43 -52q-16 0 -27 8t-25 30l-341 516h-2v-501q0 -53 -44 -53t-44 53v621q0 24 12.5 37t31.5 13q29 0 55 -38l337 -511h2v496q0 53 44 53t44 -53z" />
    <glyph glyph-name="published" unicode="&#x2117;" horiz-adv-x="800" 
d="M400 -6q-150 0 -256 106t-106 256t106 256t256 106t256 -106t106 -256t-106 -256t-256 -106zM400 70q114 0 197 84t83 202t-83 202t-197 84t-197 -84t-83 -202t83 -202t197 -84zM308 137q-34 0 -34 38v360q0 23 25 23h139q142 0 142 -128q0 -61 -36.5 -93.5t-105.5 -32.5
h-97v-129q0 -38 -33 -38zM341 357h78q47 0 71 15t24 61q0 72 -83 72h-90v-148z" />
    <glyph glyph-name="trademark" unicode="&#x2122;" horiz-adv-x="990" 
d="M185 341v305h-95q-32 0 -32 33t32 33h272q32 0 32 -33t-32 -33h-95v-305q0 -43 -41 -43t-41 43zM474 336v315q0 67 63 67q51 0 67 -39l100 -261l98 261q16 39 67 39q63 0 63 -67v-315q0 -16 -11 -27t-27 -11t-27 11t-11 27v288h-2l-108 -289q-14 -37 -43 -37t-43 37
l-108 289h-2v-288q0 -16 -11 -27t-27 -11t-27 11t-11 27z" />
    <glyph glyph-name="Omega" unicode="&#x2126;" horiz-adv-x="718" 
d="M299 0h-223q-5 0 -13 1.5t-21 11.5t-13 28q0 11 5 19.5t11.5 12.5t13.5 6.5t12 4.5l5 1h84q-118 107 -118 272q0 145 92 240.5t229 95.5q139 0 226 -94t87 -233q0 -170 -120 -283h87q5 0 12.5 -1.5t20.5 -12t13 -28.5t-11.5 -28t-23.5 -11l-12 -2h-223v65
q67 45 110.5 121t43.5 167q0 97 -57 176.5t-154 79.5q-99 0 -157.5 -78t-58.5 -179q0 -86 44.5 -166t108.5 -120v-66z" />
    <glyph glyph-name="estimated" unicode="&#x212e;" horiz-adv-x="772" 
d="M726 354h-532v-240q78 -78 191 -78q82 0 143.5 38t110.5 120l45 -27q-61 -95 -129 -136t-170 -41q-152 0 -245.5 104t-93.5 260t93.5 260t245.5 104q151 0 245 -101.5t96 -262.5zM194 401h383v191q-82 79 -193 79q-113 0 -190 -79v-191z" />
    <glyph glyph-name="onethird" unicode="&#x2153;" horiz-adv-x="805" 
d="M178 58l266 638q13 30 35 30q17 0 26 -8.5t9 -18.5q0 -12 -14 -45l-266 -638q-13 -30 -37 -30q-15 0 -24 8t-9 19t14 45zM121 652h-51q-28 0 -28 30t28 30h104q19 0 19 -14v-377q0 -36 -36 -36q-15 0 -25.5 9t-10.5 27v331zM609 427q61 0 95.5 -31.5t34.5 -78.5
q0 -61 -55 -91q38 -11 58.5 -38.5t20.5 -64.5q0 -59 -44.5 -94t-110.5 -35q-61 0 -97 33t-36 72q0 32 28 32q18 0 29 -25q24 -52 81 -52q32 0 55 22t23 54q0 63 -67 63q-28 0 -37 6.5t-9 18.5q0 13 6.5 19t23.5 10q32 7 45.5 23t13.5 44q0 21 -17 37t-44 16q-29 0 -45 -14.5
t-20 -34.5q-3 -23 -29 -23q-25 0 -25 28q0 45 32.5 74.5t89.5 29.5z" />
    <glyph glyph-name="twothirds" unicode="&#x2154;" horiz-adv-x="805" 
d="M230 58l266 638q13 30 35 30q17 0 26 -8.5t9 -18.5q0 -12 -14 -45l-266 -638q-13 -30 -37 -30q-15 0 -24 8t-9 19t14 45zM611 427q61 0 95.5 -31.5t34.5 -78.5q0 -61 -55 -91q38 -11 58.5 -38.5t20.5 -64.5q0 -59 -44.5 -94t-110.5 -35q-61 0 -97 33t-36 72q0 32 28 32
q18 0 29 -25q24 -52 81 -52q32 0 55 22t23 54q0 63 -67 63q-28 0 -37 6.5t-9 18.5q0 13 6.5 19t23.5 10q32 7 45.5 23t13.5 44q0 21 -17 37t-44 16q-29 0 -45 -14.5t-20 -34.5q-3 -23 -29 -23q-25 0 -25 28q0 45 32.5 74.5t89.5 29.5zM139 351h138q38 0 38 -30t-38 -30h-208
q-15 0 -22.5 6.5t-7.5 14.5t12 23l171 217q26 33 26 56t-17.5 36.5t-46.5 13.5q-36 0 -60 -26.5t-24 -55.5q0 -24 -29 -24q-31 0 -31 33q0 55 39.5 94t108.5 39q63 0 97.5 -31t34.5 -77q0 -40 -36 -84z" />
    <glyph glyph-name="oneeighth" unicode="&#x215b;" horiz-adv-x="805" 
d="M199 58l266 638q13 30 35 30q17 0 26 -8.5t9 -18.5q0 -12 -14 -45l-266 -638q-13 -30 -37 -30q-15 0 -24 8t-9 19t14 45zM112 652h-51q-28 0 -28 30t28 30h104q19 0 19 -14v-377q0 -36 -36 -36q-15 0 -25.5 9t-10.5 27v331zM527 327q0 48 33 75t78 27t78.5 -27t33.5 -75
q0 -54 -46 -89q32 -12 49.5 -40.5t17.5 -64.5q0 -56 -36 -96.5t-97 -40.5t-96.5 40.5t-35.5 96.5q0 35 18 63.5t49 41.5q-46 35 -46 89zM572 131q0 -36 19.5 -57.5t46.5 -21.5t46.5 21.5t19.5 57.5q0 31 -17.5 53.5t-48.5 22.5t-48.5 -22.5t-17.5 -53.5zM586 318
q0 -25 14 -40t38 -15t38 15t14 40q0 24 -14 39.5t-38 15.5t-38 -15.5t-14 -39.5z" />
    <glyph glyph-name="threeeighths" unicode="&#x215c;" horiz-adv-x="805" 
d="M249 58l266 638q13 30 35 30q17 0 26 -8.5t9 -18.5q0 -12 -14 -45l-266 -638q-13 -30 -37 -30q-15 0 -24 8t-9 19t14 45zM163 718q61 0 95.5 -31.5t34.5 -78.5q0 -61 -55 -91q38 -11 58.5 -38.5t20.5 -64.5q0 -59 -44.5 -94t-110.5 -35q-61 0 -97 33t-36 72q0 32 28 32
q18 0 29 -25q24 -52 81 -52q32 0 55 22t23 54q0 63 -67 63q-28 0 -37 6.5t-9 18.5q0 13 6.5 19t23.5 10q32 7 45.5 23t13.5 44q0 21 -17 37t-44 16q-29 0 -45 -14.5t-20 -34.5q-3 -23 -29 -23q-25 0 -25 28q0 45 32.5 74.5t89.5 29.5zM532 327q0 48 33 75t78 27t78.5 -27
t33.5 -75q0 -54 -46 -89q32 -12 49.5 -40.5t17.5 -64.5q0 -56 -36 -96.5t-97 -40.5t-96.5 40.5t-35.5 96.5q0 35 18 63.5t49 41.5q-46 35 -46 89zM577 131q0 -36 19.5 -57.5t46.5 -21.5t46.5 21.5t19.5 57.5q0 31 -17.5 53.5t-48.5 22.5t-48.5 -22.5t-17.5 -53.5zM591 318
q0 -25 14 -40t38 -15t38 15t14 40q0 24 -14 39.5t-38 15.5t-38 -15.5t-14 -39.5z" />
    <glyph glyph-name="fiveeighths" unicode="&#x215d;" horiz-adv-x="805" 
d="M244 58l266 638q13 30 35 30q17 0 26 -8.5t9 -18.5q0 -12 -14 -45l-266 -638q-13 -30 -37 -30q-15 0 -24 8t-9 19t14 45zM527 327q0 48 33 75t78 27t78.5 -27t33.5 -75q0 -54 -46 -89q32 -12 49.5 -40.5t17.5 -64.5q0 -56 -36 -96.5t-97 -40.5t-96.5 40.5t-35.5 96.5
q0 35 18 63.5t49 41.5q-46 35 -46 89zM572 131q0 -36 19.5 -57.5t46.5 -21.5t46.5 21.5t19.5 57.5q0 31 -17.5 53.5t-48.5 22.5t-48.5 -22.5t-17.5 -53.5zM586 318q0 -25 14 -40t38 -15t38 15t14 40q0 24 -14 39.5t-38 15.5t-38 -15.5t-14 -39.5zM152 658l-15 -97q21 8 48 8
q49 0 80 -39t31 -92q0 -70 -37.5 -111.5t-102.5 -41.5q-50 0 -86 26t-36 49q0 11 6.5 19.5t18.5 8.5q9 0 28 -15v1q36 -29 70 -29q33 0 53 24t20 60t-16.5 58.5t-49.5 22.5q-22 0 -48 -11q-13 -5 -22 -5q-23 0 -23 22q0 12 4 36q3 21 21 144q4 18 26 18h142q12 0 20.5 -8.5
t8.5 -19.5q0 -12 -8.5 -20t-20.5 -8h-112z" />
    <glyph glyph-name="seveneighths" unicode="&#x215e;" horiz-adv-x="805" 
d="M218 58l266 638q13 30 35 30q17 0 26 -8.5t9 -18.5q0 -12 -14 -45l-266 -638q-13 -30 -37 -30q-15 0 -24 8t-9 19t14 45zM501 327q0 48 33 75t78 27t78.5 -27t33.5 -75q0 -54 -46 -89q32 -12 49.5 -40.5t17.5 -64.5q0 -56 -36 -96.5t-97 -40.5t-96.5 40.5t-35.5 96.5
q0 35 18 63.5t49 41.5q-46 35 -46 89zM546 131q0 -36 19.5 -57.5t46.5 -21.5t46.5 21.5t19.5 57.5q0 31 -17.5 53.5t-48.5 22.5t-48.5 -22.5t-17.5 -53.5zM560 318q0 -25 14 -40t38 -15t38 15t14 40q0 24 -14 39.5t-38 15.5t-38 -15.5t-14 -39.5zM252 657h-165
q-11 0 -19.5 8t-8.5 20q0 11 8.5 19.5t19.5 8.5h209q32 0 32 -22q0 -9 -11 -34l-153 -350q-12 -23 -37 -23q-8 0 -16 7.5t-8 19.5q0 5 8 28z" />
    <glyph glyph-name="partialdiff" unicode="&#x2202;" horiz-adv-x="546" 
d="M93 630l-11 22q-19 37 -22 43q82 58 181 58q108 0 186 -106t78 -275q0 -182 -78.5 -282t-193.5 -100q-99 0 -150.5 61t-51.5 150q0 103 65 174.5t161 71.5q100 0 160 -68v7q0 126 -55 207t-126 81q-81 0 -143 -44zM240 69q66 0 111.5 61t56.5 150q-16 38 -53.5 63.5
t-88.5 25.5q-60 0 -102 -47.5t-42 -117.5q0 -63 32 -99t86 -36z" />
    <glyph glyph-name="Delta" unicode="&#x2206;" horiz-adv-x="630" 
d="M24 0v56q134 345 240 625h103l238 -625v-56h-581zM121 80h382q-1 4 -155 407q-33 88 -35 91l-36 -92q-141 -369 -156 -406z" />
    <glyph glyph-name="product" unicode="&#x220f;" horiz-adv-x="682" 
d="M533 -80v746h-384v-746q0 -2 -0.5 -5t-3 -11t-6.5 -14t-13.5 -11t-22.5 -5q-21 0 -32.5 11.5t-12.5 22.5l-2 12v827h570v-827q0 -2 -0.5 -5t-3 -11t-6.5 -14t-14 -11t-23 -5q-20 0 -31.5 11.5t-13.5 22.5z" />
    <glyph glyph-name="summation" unicode="&#x2211;" horiz-adv-x="615" 
d="M579 -126h-572v55l252 379q-23 37 -108.5 171t-130.5 206v62h525q5 0 13 -1.5t21 -11.5t13 -28q0 -4 -1.5 -10t-13.5 -16t-32 -10h-406q52 -85 129 -205q88 -139 99 -156q-74 -109 -181 -273q-3 -5 -53 -82h446q2 0 5 -0.5t11 -2.5t14 -6t11 -12.5t5 -19.5
q0 -17 -11.5 -27t-23.5 -11z" />
    <glyph glyph-name="minus" unicode="&#x2212;" horiz-adv-x="600" 
d="M510 212h-420q-43 0 -43 41t43 41h420q43 0 43 -41t-43 -41z" />
    <glyph glyph-name="uni2215" unicode="&#x2215;" horiz-adv-x="168" 
d="M-77 58l266 638q13 30 35 30q17 0 26 -8.5t9 -18.5q0 -12 -14 -45l-266 -638q-13 -30 -37 -30q-15 0 -24 8t-9 19t14 45z" />
    <glyph glyph-name="uni2219" unicode="&#x2219;" horiz-adv-x="250" 
d="M71 303q0 23 15.5 38.5t38.5 15.5t38.5 -15.5t15.5 -38.5t-15.5 -38.5t-38.5 -15.5t-38.5 15.5t-15.5 38.5z" />
    <glyph glyph-name="radical" unicode="&#x221a;" horiz-adv-x="527" 
d="M524 797l-208 -885h-71q-36 100 -143 394l-69 -27l-23 62l143 57l44 -122q46 -128 68 -193l9 -27l5 24q4 21 28.5 124.5t39.5 170.5q15 65 37 162.5t37 164t22 95.5h81z" />
    <glyph glyph-name="infinity" unicode="&#x221e;" horiz-adv-x="738" 
d="M541 115q-32 0 -65 16t-54.5 34t-52.5 49q-32 -31 -52.5 -48.5t-56 -34t-71.5 -16.5q-65 0 -106.5 42.5t-41.5 108.5q0 62 44.5 107t111.5 45q32 0 63.5 -15t49.5 -29.5t48 -42.5l12 -11q31 30 52.5 48t57 34t70.5 16q65 0 106 -42.5t41 -109.5q0 -62 -45 -106.5
t-111 -44.5zM194 190q24 0 48.5 13t38 25.5t37.5 36.5q-6 8 -12 14l-4 4q-21 20 -33 30t-32.5 20.5t-40.5 10.5q-33 0 -55 -23t-22 -55t21.5 -54t53.5 -22zM542 190q32 0 54.5 22.5t22.5 53.5q0 34 -21 56t-53 22q-23 0 -48 -13t-39.5 -26.5t-37.5 -36.5l11 -11
q22 -22 34 -33t34 -22.5t43 -11.5z" />
    <glyph glyph-name="integral" unicode="&#x222b;" horiz-adv-x="319" 
d="M316 745l-15 -70q-28 6 -37 6q-33 0 -49 -35.5t-16 -129.5v-28q0 -77 5 -169q6 -102 6 -165q0 -57 -1 -82q-8 -213 -142 -213q-38 0 -66 15l16 69q22 -8 43 -8q12 0 21 4t20.5 18.5t17.5 50t6 89.5v28q0 68 -6 188q-6 118 -6 180q0 139 35.5 200.5t112.5 61.5
q32 0 55 -10z" />
    <glyph glyph-name="approxequal" unicode="&#x2248;" horiz-adv-x="600" 
d="M534 423q0 -43 -42 -80t-99 -37q-7 0 -14 1t-12.5 2t-13.5 4t-11.5 4t-13 6t-12 6t-13 7t-12.5 7q-10 5 -13 8q-50 28 -75 28q-28 0 -50 -35q-8 -13 -12 -18.5t-13.5 -12t-20.5 -7.5h-5q-16 0 -26 11t-10 29q0 43 42 80t99 37q37 0 104 -37h-1q2 -1 11 -7q47 -29 76 -29
q28 0 50 35q8 13 12 18.5t13.5 12t20.5 7.5h5q16 0 26 -11t10 -29zM534 233q0 -42 -42 -79t-99 -37q-37 0 -102 37q-12 6 -13 7q-52 29 -75 29q-27 0 -50 -35q-8 -13 -12.5 -19t-13.5 -12t-20 -7h-5q-16 0 -26 10.5t-10 29.5q0 42 42 79t99 37q40 0 104 -37h-1q2 -1 11 -7
q50 -29 76 -29q27 0 50 35q8 13 12.5 19t13.5 12t20 7h5q16 0 26 -10.5t10 -29.5z" />
    <glyph glyph-name="notequal" unicode="&#x2260;" horiz-adv-x="600" 
d="M91 200h132l42 111h-174q-20 0 -33.5 12.5t-13.5 29.5t13.5 29.5t33.5 12.5h204q30 81 31 84q12 30 41 30q10 0 16 -2h-1q26 -9 26 -39q0 -13 -23 -73h124q20 0 33.5 -12.5t13.5 -29.5t-13.5 -29.5t-33.5 -12.5h-156q-3 -9 -18.5 -49t-23.5 -62h198q21 0 34 -12t13 -30
q0 -17 -13 -29t-34 -12h-227q-5 -14 -15.5 -40.5t-14.5 -36.5q-11 -32 -40 -32q-8 0 -15 3q-26 10 -26 39q0 5 22 67h-102q-21 0 -34 12t-13 29q0 18 13 30t34 12z" />
    <glyph glyph-name="lessequal" unicode="&#x2264;" horiz-adv-x="600" 
d="M165 362l364 -178q20 -10 28 -19.5t8 -24.5q0 -18 -10 -29t-27 -11q-18 0 -35 10q-70 34 -213 104.5t-213 104.5q-32 17 -32 43q0 27 32 42q292 144 426 209q18 10 35 10q16 0 26.5 -10t10.5 -24q0 -32 -38 -50q-29 -14 -159.5 -78t-202.5 -99zM509 0h-418q-21 0 -34 12
t-13 30q0 17 13.5 29.5t33.5 12.5h418q20 0 33.5 -12.5t13.5 -29.5q0 -18 -13 -30t-34 -12z" />
    <glyph glyph-name="greaterequal" unicode="&#x2265;" horiz-adv-x="600" 
d="M509 0h-418q-21 0 -34 12t-13 30q0 17 13.5 29.5t33.5 12.5h418q20 0 33.5 -12.5t13.5 -29.5q0 -18 -13 -30t-34 -12zM71 184l364 178q-39 19 -165 81t-197 96q-38 18 -38 50q0 14 10.5 24t26.5 10q18 0 35 -10q134 -65 426 -209q32 -15 32 -42q0 -26 -32 -43
q-70 -34 -213 -104.5t-213 -104.5q-18 -10 -35 -10t-27 11t-10 29q0 15 8 24.5t28 19.5z" />
    <glyph glyph-name="lozenge" unicode="&#x25ca;" horiz-adv-x="532" 
d="M487 335l-184 -364h-75l-187 360q2 4 187 362h75q123 -242 184 -358zM398 329l-135 271q-36 -71 -130 -268q10 -22 48 -98l40 -80t46 -90l2 4q10 19 87 176q24 47 42 85z" />
    <glyph glyph-name="f_i" unicode="&#xf001;" horiz-adv-x="463" 
d="M405 491v-450q0 -22 -12 -34.5t-32 -12.5t-32 12.5t-12 34.5v450q0 22 12 34.5t32 12.5t32 -12.5t12 -34.5zM307 664q0 22 15.5 38t38.5 16t38.5 -16t15.5 -38t-15.5 -38t-38.5 -16t-38.5 16t-15.5 38zM174 456v-415q0 -22 -12 -34.5t-32 -12.5t-32 12.5t-12 34.5v415
h-36q-44 0 -44 38t44 38h36v125q0 55 33 85t84 30h27q19 0 34.5 -10.5t15.5 -27.5q0 -38 -48 -38h-22q-36 0 -36 -35v-129h55q44 0 44 -38t-44 -38h-55z" />
    <glyph glyph-name="f_l" unicode="&#xf002;" horiz-adv-x="463" 
d="M174 456v-415q0 -22 -12 -34.5t-32 -12.5t-32 12.5t-12 34.5v415h-36q-44 0 -44 38t44 38h36v125q0 55 33 85t84 30h27q19 0 34.5 -10.5t15.5 -27.5q0 -38 -48 -38h-22q-36 0 -36 -35v-129h55q44 0 44 -38t-44 -38h-55zM405 725v-684q0 -22 -12 -34.5t-32 -12.5t-32 12.5
t-12 34.5v684q0 22 12 34.5t32 12.5t32 -12.5t12 -34.5z" />
    <glyph glyph-name="uniF8FF" unicode="&#xf8ff;" horiz-adv-x="485" 
d="M263 111h-53v63h53v-63zM257 222h-46v16q0 50 11 75.5t46 55.5q28 27 37 44t9 36q0 33 -21 56.5t-51 23.5q-67 0 -77 -90l-48 8q7 66 41 98t87 32q52 0 85 -34t33 -90q0 -32 -12.5 -56.5t-47.5 -56.5q-33 -30 -39.5 -46t-6.5 -58v-14zM47 47h391v585h-391v-585zM0 680
h485v-680h-485v680z" />
    <glyph glyph-name="grave.cap" 
d="M141 776l-115 47q-35 14 -35 37q0 14 10 28t28 14q12 0 34 -9l115 -47q35 -14 35 -37q0 -14 -10 -28t-28 -14q-12 0 -34 9z" />
    <glyph glyph-name="acute.cap" 
d="M178 823l-115 -47q-22 -9 -34 -9q-18 0 -28 14t-10 28q0 23 35 37l115 47q22 9 34 9q18 0 28 -14t10 -28q0 -23 -35 -37z" />
    <glyph glyph-name="circumflex.cap" 
d="M-27 840l129 55l129 -55q23 -10 23 -35q0 -16 -10 -27t-26 -11q-11 0 -22 5l-94 37l-94 -37q-11 -5 -22 -5q-16 0 -26 11t-10 27q0 25 23 35z" />
    <glyph glyph-name="caron.cap" 
d="M102 767l-129 55q-23 10 -23 35q0 16 10 27t26 11q11 0 22 -5l94 -37l94 37q11 5 22 5q16 0 26 -11t10 -27q0 -25 -23 -35z" />
    <glyph glyph-name="caron.alt" horiz-adv-x="250" 
d="M81 661l41 86q11 25 35 25q18 0 30 -10.5t12 -23.5q0 -14 -7 -27l-48 -89q-11 -20 -33 -20q-16 0 -26.5 9t-10.5 20q0 16 7 30z" />
    <glyph glyph-name="tilde.cap" 
d="M-47 815q0 24 26.5 43.5t66.5 19.5q24 0 57.5 -10t52.5 -10q15 0 33 10t29 10q12 0 22.5 -12t10.5 -27q0 -24 -26.5 -43.5t-66.5 -19.5q-24 0 -57.5 10t-52.5 10q-15 0 -33 -10t-29 -10q-12 0 -22.5 12t-10.5 27z" />
    <glyph glyph-name="dieresis.cap" 
d="M-45 818q0 22 15.5 38t38.5 16t38.5 -16t15.5 -38t-15.5 -38t-38.5 -16t-38.5 16t-15.5 38zM141 818q0 22 15.5 38t38.5 16t38.5 -16t15.5 -38t-15.5 -38t-38.5 -16t-38.5 16t-15.5 38z" />
    <glyph glyph-name="macron.cap" 
d="M1 849h202q43 0 43 -41t-43 -41h-202q-43 0 -43 41t43 41z" />
    <glyph glyph-name="breve.cap" 
d="M-33 857q0 15 8.5 25.5t22.5 10.5q10 0 21.5 -9t21 -19.5t26 -19.5t35.5 -9t35.5 9t26 19.5t21 19.5t21.5 9q14 0 22.5 -10.5t8.5 -25.5q0 -41 -44.5 -69t-90.5 -28t-90.5 28t-44.5 69z" />
    <glyph glyph-name="ring.cap" 
d="M8 828q0 39 27.5 66.5t66.5 27.5t66.5 -27.5t27.5 -66.5t-27.5 -66.5t-66.5 -27.5t-66.5 27.5t-27.5 66.5zM56 828q0 -19 13.5 -32.5t32.5 -13.5t32.5 13.5t13.5 32.5t-13.5 32.5t-32.5 13.5t-32.5 -13.5t-13.5 -32.5z" />
    <glyph glyph-name="hungarumlaut.cap" 
d="M68 823l-115 -47q-22 -9 -34 -9q-18 0 -28 14t-10 28q0 23 35 37l115 47q22 9 34 9q18 0 28 -14t10 -28q0 -23 -35 -37zM288 823l-115 -47q-22 -9 -34 -9q-18 0 -28 14t-10 28q0 23 35 37l115 47q22 9 34 9q18 0 28 -14t10 -28q0 -23 -35 -37z" />
    <glyph glyph-name="dotaccent.cap" 
d="M48 818q0 22 16 38t38 16t38 -16t16 -38t-16 -38t-38 -16t-38 16t-16 38z" />
    <glyph glyph-name="commaaccent" horiz-adv-x="250" 
d="M48 -129l51 69q17 22 36 22q16 0 28.5 -10.5t12.5 -26.5q0 -15 -10 -26l-55 -62q-14 -17 -33 -17q-14 0 -25.5 9t-11.5 22q0 11 7 20z" />
    <glyph glyph-name="commaaccent.alt" horiz-adv-x="250" 
d="M182 678l-51 -69q-16 -22 -36 -22q-16 0 -29 10t-13 26q0 10 10 23l56 66q14 17 33 17q14 0 25.5 -9t11.5 -22q0 -11 -7 -20z" />
    <glyph glyph-name="cyrbreve" 
d="M-33 697q0 15 8.5 25.5t22.5 10.5q10 0 21.5 -9t21 -19.5t26 -19.5t35.5 -9t35.5 9t26 19.5t21 19.5t21.5 9q14 0 22.5 -10.5t8.5 -25.5q0 -41 -44.5 -69t-90.5 -28t-90.5 28t-44.5 69z" />
    </font>
</defs>
</svg>
